<svg width="2000" height="2000" viewBox="0 0 2000 2000" fill="none" xmlns="http://www.w3.org/2000/svg">
<ellipse cx="999.5" cy="1000" rx="885.5" ry="887" fill="#F7EA7C"/>
<path d="M779.037 924.304H618.217C614.326 924.304 612.164 922.141 611.732 917.819L428.216 5.18906C427.352 1.72969 429.081 0 433.404 0H583.848C587.307 0 589.468 1.72969 590.333 5.18906L699.274 613.609L805.622 5.18906C806.488 1.72969 808.65 0 812.109 0H960.607C965.361 0 967.09 1.72969 965.794 5.18906L785.521 917.819C785.088 922.141 782.926 924.304 779.037 924.304ZM1199.24 924.304H1050.09C1045.77 924.304 1043.61 922.141 1043.61 917.819L1046.21 5.18906C1046.21 1.72969 1047.93 0 1051.39 0H1306.89C1388.16 0 1452.36 24.8643 1499.48 74.593C1547.03 123.889 1570.81 191.131 1570.81 276.32C1570.81 338.587 1558.49 392.855 1533.85 439.126C1508.78 484.961 1476.35 520.422 1436.58 545.502C1396.81 570.582 1353.58 583.122 1306.89 583.122H1205.73V917.819C1205.73 922.141 1203.56 924.304 1199.24 924.304ZM1306.89 157.618L1205.73 158.916V422.261H1306.89C1334.99 422.261 1359.41 408.857 1380.16 382.045C1400.91 354.804 1411.29 319.562 1411.29 276.32C1411.29 241.724 1402 213.401 1383.41 191.347C1364.82 168.861 1339.31 157.618 1306.89 157.618ZM713.54 2000C665.555 2000 621.675 1987.89 581.903 1963.68C542.562 1939.46 511.22 1907.03 487.875 1866.38C464.963 1825.3 453.506 1779.68 453.506 1729.52L454.803 1315.04C454.803 1265.75 466.043 1221.2 488.523 1181.42C511.004 1141.21 541.914 1108.99 581.254 1084.78C621.027 1060.13 665.122 1047.8 713.54 1047.8C762.824 1047.8 806.703 1059.69 845.18 1083.48C884.087 1107.26 914.999 1139.48 937.91 1180.13C961.255 1220.34 972.929 1265.31 972.929 1315.04V1376.01C972.929 1379.47 971.199 1381.2 967.741 1381.2H818.592C815.134 1381.2 813.405 1379.47 813.405 1376.01V1315.04C813.405 1285.64 803.893 1260.34 784.873 1239.15C765.85 1217.96 742.075 1207.37 713.54 1207.37C681.983 1207.37 657.773 1218.18 640.913 1239.8C624.053 1261.42 615.623 1286.5 615.623 1315.04V1729.52C615.623 1761.95 625.134 1788.54 644.155 1809.3C663.177 1829.62 686.306 1839.79 713.54 1839.79C742.075 1839.79 765.85 1828.54 784.873 1806.06C803.893 1783.14 813.405 1757.63 813.405 1729.52V1667.9C813.405 1664.44 815.134 1662.71 818.592 1662.71H969.037C972.496 1662.71 974.225 1664.44 974.225 1667.9V1729.52C974.225 1779.25 962.551 1824.65 939.206 1865.73C915.432 1906.38 884.087 1939.03 845.18 1963.68C806.273 1987.89 762.391 2000 713.54 2000ZM1315.32 2000C1267.33 2000 1223.45 1987.89 1183.68 1963.68C1144.34 1939.46 1113 1907.03 1089.65 1866.38C1066.74 1825.3 1055.28 1779.68 1055.28 1729.52L1056.58 1315.04C1056.58 1265.75 1067.82 1221.2 1090.3 1181.42C1112.78 1141.21 1143.69 1108.99 1183.03 1084.78C1222.8 1060.13 1266.9 1047.8 1315.32 1047.8C1364.6 1047.8 1408.48 1059.69 1446.96 1083.48C1485.86 1107.26 1516.77 1139.48 1539.69 1180.13C1563.03 1220.34 1574.7 1265.31 1574.7 1315.04V1376.01C1574.7 1379.47 1572.97 1381.2 1569.52 1381.2H1420.37C1416.91 1381.2 1415.18 1379.47 1415.18 1376.01V1315.04C1415.18 1285.64 1405.67 1260.34 1386.65 1239.15C1367.63 1217.96 1343.85 1207.37 1315.32 1207.37C1283.76 1207.37 1259.55 1218.18 1242.69 1239.8C1225.83 1261.42 1217.4 1286.5 1217.4 1315.04V1729.52C1217.4 1761.95 1226.91 1788.54 1245.93 1809.3C1264.95 1829.62 1288.08 1839.79 1315.32 1839.79C1343.85 1839.79 1367.63 1828.54 1386.65 1806.06C1405.67 1783.14 1415.18 1757.63 1415.18 1729.52V1667.9C1415.18 1664.44 1416.91 1662.71 1420.37 1662.71H1570.81C1574.27 1662.71 1576 1664.44 1576 1667.9V1729.52C1576 1779.25 1564.33 1824.65 1540.98 1865.73C1517.21 1906.38 1485.86 1939.03 1446.96 1963.68C1408.05 1987.89 1364.17 2000 1315.32 2000Z" fill="#1A1A1A"/>
</svg>
