<svg width="329" height="222" viewBox="0 0 329 222" fill="none" xmlns="http://www.w3.org/2000/svg">
<path d="M39.0756 3.43721L24.0759 48.2459H14.936L0 3.43721H10.3819L19.49 33.3409L28.63 3.43721H39.0756Z" fill="#292E27"/>
<path d="M52.8014 5.68702C52.8014 6.47862 52.6422 7.21814 52.3237 7.90558C52.0265 8.59302 51.6125 9.19714 51.0817 9.71793C50.551 10.2179 49.9246 10.6241 49.2028 10.9366C48.5022 11.2282 47.7485 11.374 46.9417 11.374C46.1349 11.374 45.3706 11.2282 44.6487 10.9366C43.9481 10.6241 43.3324 10.2179 42.8017 9.71793C42.2921 9.19714 41.8781 8.59302 41.5596 7.90558C41.2624 7.21814 41.1138 6.47862 41.1138 5.68702C41.1138 4.91625 41.2624 4.18715 41.5596 3.4997C41.8781 2.79143 42.2921 2.18732 42.8017 1.68736C43.3324 1.16657 43.9481 0.760352 44.6487 0.46871C45.3706 0.156237 46.1349 0 46.9417 0C47.7485 0 48.5022 0.156237 49.2028 0.46871C49.9246 0.760352 50.551 1.16657 51.0817 1.68736C51.6125 2.18732 52.0265 2.79143 52.3237 3.4997C52.6422 4.18715 52.8014 4.91625 52.8014 5.68702ZM51.3047 48.2459H42.5469V14.78H51.3047V48.2459Z" fill="#292E27"/>
<path d="M87.7689 21.4357L81.3996 27.7164C81.0811 26.8415 80.6459 26.0603 80.0939 25.3729C79.5419 24.6646 78.9155 24.0709 78.2149 23.5918C77.5355 23.1126 76.7924 22.7481 75.9857 22.4981C75.1789 22.2481 74.3509 22.1231 73.5016 22.1231C72.3127 22.1231 71.1875 22.3627 70.1259 22.8418C69.0856 23.3209 68.1727 23.998 67.3871 24.8729C66.6228 25.727 66.0177 26.7477 65.5719 27.9351C65.126 29.1225 64.9031 30.4349 64.9031 31.8723C64.9031 33.0389 65.126 34.1325 65.5719 35.1533C66.0177 36.174 66.6228 37.0698 67.3871 37.8406C68.1727 38.6113 69.0856 39.2154 70.1259 39.6529C71.1875 40.0904 72.3127 40.3091 73.5016 40.3091C74.3509 40.3091 75.1683 40.1945 75.9538 39.9654C76.7394 39.7362 77.4718 39.4133 78.1512 38.9967C78.8518 38.5592 79.4675 38.0385 79.9983 37.4343C80.5503 36.8094 80.9962 36.1219 81.3359 35.372L87.7052 41.6527C86.8984 42.7776 85.9642 43.788 84.9027 44.6837C83.8624 45.5795 82.7265 46.3398 81.4951 46.9648C80.2849 47.5897 79.0005 48.0584 77.6417 48.3709C76.3041 48.7042 74.9241 48.8709 73.5016 48.8709C71.1025 48.8709 68.8414 48.4334 66.7183 47.5585C64.6165 46.6627 62.7694 45.4441 61.1771 43.9025C59.606 42.361 58.364 40.5591 57.451 38.4967C56.5381 36.4344 56.0816 34.2263 56.0816 31.8723C56.0816 29.31 56.5381 26.9144 57.451 24.6854C58.364 22.4564 59.606 20.5191 61.1771 18.8734C62.7694 17.2069 64.6165 15.8945 66.7183 14.9362C68.8414 13.978 71.1025 13.4989 73.5016 13.4989C74.9241 13.4989 76.3147 13.6759 77.6735 14.0301C79.0535 14.3842 80.3592 14.905 81.5906 15.5924C82.8433 16.259 83.9897 17.0819 85.0301 18.061C86.0916 19.0401 87.0045 20.165 87.7689 21.4357Z" fill="#292E27"/>
<path d="M109.138 48.2459C107.036 48.2459 105.061 47.8605 103.214 47.0898C101.367 46.2982 99.7431 45.2253 98.3419 43.8713C96.9619 42.4964 95.8685 40.9028 95.0617 39.0904C94.2762 37.2781 93.8834 35.3408 93.8834 33.2784V23.3418H89.6478V14.8425H93.8834V1.46863H102.546V14.8425H115.73V23.3418H102.546V33.2784C102.546 34.1742 102.715 35.0179 103.055 35.8095C103.395 36.5802 103.862 37.2573 104.456 37.8406C105.051 38.4238 105.751 38.8925 106.558 39.2467C107.365 39.58 108.225 39.7466 109.138 39.7466H115.73V48.2459H109.138Z" fill="#292E27"/>
<path d="M153.596 31.2161C153.596 33.7159 153.139 36.049 152.226 38.2155C151.313 40.3612 150.071 42.2256 148.5 43.8088C146.929 45.3712 145.082 46.6106 142.959 47.5272C140.857 48.423 138.596 48.8709 136.175 48.8709C133.776 48.8709 131.515 48.423 129.392 47.5272C127.29 46.6106 125.443 45.3712 123.851 43.8088C122.28 42.2256 121.038 40.3612 120.125 38.2155C119.212 36.049 118.755 33.7159 118.755 31.2161C118.755 28.6747 119.212 26.3207 120.125 24.1542C121.038 21.9877 122.28 20.1233 123.851 18.5609C125.443 16.9777 127.29 15.7383 129.392 14.8425C131.515 13.9467 133.776 13.4989 136.175 13.4989C138.596 13.4989 140.857 13.9259 142.959 14.78C145.082 15.6133 146.929 16.8111 148.5 18.3734C150.071 19.915 151.313 21.7794 152.226 23.9667C153.139 26.1332 153.596 28.5497 153.596 31.2161ZM144.838 31.2161C144.838 29.8412 144.604 28.6018 144.137 27.4977C143.691 26.3728 143.076 25.4145 142.29 24.6229C141.504 23.8105 140.581 23.196 139.519 22.7793C138.479 22.3419 137.364 22.1231 136.175 22.1231C134.987 22.1231 133.861 22.3419 132.8 22.7793C131.759 23.196 130.847 23.8105 130.061 24.6229C129.297 25.4145 128.692 26.3728 128.246 27.4977C127.8 28.6018 127.577 29.8412 127.577 31.2161C127.577 32.5077 127.8 33.7055 128.246 34.8096C128.692 35.9136 129.297 36.8719 130.061 37.6843C130.847 38.4967 131.759 39.1425 132.8 39.6217C133.861 40.0799 134.987 40.3091 136.175 40.3091C137.364 40.3091 138.479 40.0904 139.519 39.6529C140.581 39.2154 141.504 38.6009 142.29 37.8093C143.076 37.0177 143.691 36.0595 144.137 34.9345C144.604 33.8096 144.838 32.5702 144.838 31.2161Z" fill="#292E27"/>
<path d="M167.098 48.2459H158.404V14.78H160.506L163.372 18.7484C164.774 17.4985 166.366 16.5403 168.149 15.8737C169.933 15.1862 171.78 14.8425 173.691 14.8425H181.366V23.3418H173.691C172.778 23.3418 171.918 23.5084 171.111 23.8417C170.304 24.175 169.604 24.6333 169.009 25.2166C168.415 25.7999 167.948 26.4873 167.608 27.2789C167.268 28.0705 167.098 28.9142 167.098 29.81V48.2459Z" fill="#292E27"/>
<path d="M195.665 5.68702C195.665 6.47862 195.505 7.21814 195.187 7.90558C194.89 8.59302 194.476 9.19714 193.945 9.71793C193.414 10.2179 192.788 10.6241 192.066 10.9366C191.365 11.2282 190.612 11.374 189.805 11.374C188.998 11.374 188.234 11.2282 187.512 10.9366C186.811 10.6241 186.196 10.2179 185.665 9.71793C185.155 9.19714 184.741 8.59302 184.423 7.90558C184.126 7.21814 183.977 6.47862 183.977 5.68702C183.977 4.91625 184.126 4.18715 184.423 3.4997C184.741 2.79143 185.155 2.18732 185.665 1.68736C186.196 1.16657 186.811 0.760352 187.512 0.46871C188.234 0.156237 188.998 0 189.805 0C190.612 0 191.365 0.156237 192.066 0.46871C192.788 0.760352 193.414 1.16657 193.945 1.68736C194.476 2.18732 194.89 2.79143 195.187 3.4997C195.505 4.18715 195.665 4.91625 195.665 5.68702ZM194.168 48.2459H185.41V14.78H194.168V48.2459Z" fill="#292E27"/>
<path d="M233.849 48.2459H231.747L228.371 43.6526C227.543 44.3817 226.662 45.0691 225.728 45.7149C224.815 46.3398 223.849 46.8919 222.83 47.371C221.811 47.8293 220.76 48.1938 219.677 48.4647C218.615 48.7355 217.533 48.8709 216.429 48.8709C214.029 48.8709 211.768 48.4751 209.645 47.6835C207.543 46.8919 205.696 45.7461 204.104 44.2463C202.533 42.7256 201.291 40.8715 200.378 38.6842C199.465 36.4969 199.009 34.0075 199.009 31.2161C199.009 28.6122 199.465 26.227 200.378 24.0605C201.291 21.8732 202.533 19.9983 204.104 18.4359C205.696 16.8736 207.543 15.6653 209.645 14.8112C211.768 13.9363 214.029 13.4989 216.429 13.4989C217.533 13.4989 218.626 13.6343 219.709 13.9051C220.792 14.1759 221.842 14.5509 222.862 15.03C223.881 15.5091 224.847 16.0716 225.76 16.7173C226.694 17.3631 227.564 18.061 228.371 18.8109L231.747 14.8425H233.849V48.2459ZM225.091 31.2161C225.091 30.0495 224.857 28.9246 224.39 27.8414C223.944 26.7373 223.329 25.7687 222.543 24.9354C221.758 24.0813 220.834 23.4043 219.772 22.9043C218.732 22.3835 217.618 22.1231 216.429 22.1231C215.24 22.1231 214.114 22.321 213.053 22.7168C212.013 23.1126 211.1 23.6959 210.314 24.4667C209.55 25.2375 208.945 26.1957 208.499 27.3414C208.053 28.4663 207.83 29.7579 207.83 31.2161C207.83 32.6743 208.053 33.9763 208.499 35.122C208.945 36.2469 209.55 37.1948 210.314 37.9655C211.1 38.7363 212.013 39.3196 213.053 39.7154C214.114 40.1112 215.24 40.3091 216.429 40.3091C217.618 40.3091 218.732 40.0591 219.772 39.5592C220.834 39.0384 221.758 38.3613 222.543 37.5281C223.329 36.674 223.944 35.7053 224.39 34.6221C224.857 33.518 225.091 32.3827 225.091 31.2161Z" fill="#292E27"/>
<path d="M13.3118 70.0003V87.9363H22.4518C23.7044 87.9363 24.8827 87.7072 25.9867 87.2489C27.0907 86.7698 28.0567 86.124 28.8847 85.3115C29.7128 84.4991 30.3603 83.5513 30.8274 82.468C31.3157 81.364 31.5598 80.1974 31.5598 78.9683C31.5598 77.7393 31.3157 76.5831 30.8274 75.4999C30.3603 74.3958 29.7128 73.4375 28.8847 72.6251C28.0567 71.8127 27.0907 71.1773 25.9867 70.719C24.8827 70.2399 23.7044 70.0003 22.4518 70.0003H13.3118ZM13.3118 105.841H4.17189V61.0323H22.4518C24.129 61.0323 25.7426 61.2511 27.2924 61.6885C28.8423 62.1052 30.286 62.7093 31.6235 63.5009C32.9823 64.2717 34.2137 65.2091 35.3177 66.3131C36.443 67.3964 37.3984 68.6046 38.1839 69.9378C38.9907 71.2711 39.6064 72.698 40.031 74.2187C40.4769 75.7394 40.6998 77.3226 40.6998 78.9683C40.6998 81.4265 40.2221 83.7492 39.2667 85.9365C38.3113 88.103 37.0056 89.9986 35.3496 91.6235C33.6936 93.2484 31.7509 94.5295 29.5217 95.4669C27.3137 96.4044 24.957 96.8731 22.4518 96.8731H13.3118V105.841Z" fill="#292E27"/>
<path d="M78.1831 105.841H76.0812L72.7055 101.248C71.8775 101.977 70.9964 102.664 70.0622 103.31C69.1493 103.935 68.1833 104.487 67.1642 104.966C66.1451 105.424 65.0942 105.789 64.0114 106.06C62.9498 106.331 61.8671 106.466 60.7631 106.466C58.364 106.466 56.1029 106.07 53.9798 105.279C51.8779 104.487 50.0308 103.341 48.4385 101.841C46.8674 100.321 45.6254 98.4667 44.7124 96.2794C43.7995 94.0921 43.343 91.6027 43.343 88.8112C43.343 86.2073 43.7995 83.8221 44.7124 81.6556C45.6254 79.4683 46.8674 77.5934 48.4385 76.0311C50.0308 74.4687 51.8779 73.2605 53.9798 72.4064C56.1029 71.5315 58.364 71.094 60.7631 71.094C61.8671 71.094 62.9605 71.2294 64.0432 71.5002C65.126 71.771 66.177 72.146 67.196 72.6251C68.2151 73.1042 69.1811 73.6667 70.0941 74.3125C71.0282 74.9583 71.8987 75.6561 72.7055 76.406L76.0812 72.4376H78.1831V105.841ZM69.4253 88.8112C69.4253 87.6447 69.1918 86.5198 68.7247 85.4365C68.2788 84.3325 67.6631 83.3638 66.8776 82.5305C66.092 81.6764 65.1685 80.9994 64.1069 80.4994C63.0666 79.9787 61.952 79.7183 60.7631 79.7183C59.5741 79.7183 58.4489 79.9162 57.3873 80.312C56.347 80.7078 55.4341 81.291 54.6485 82.0618C53.8842 82.8326 53.2791 83.7908 52.8333 84.9366C52.3874 86.0615 52.1645 87.353 52.1645 88.8112C52.1645 90.2695 52.3874 91.5714 52.8333 92.7172C53.2791 93.8421 53.8842 94.7899 54.6485 95.5607C55.4341 96.3314 56.347 96.9147 57.3873 97.3105C58.4489 97.7063 59.5741 97.9042 60.7631 97.9042C61.952 97.9042 63.0666 97.6542 64.1069 97.1543C65.1685 96.6335 66.092 95.9565 66.8776 95.1232C67.6631 94.2691 68.2788 93.3005 68.7247 92.2172C69.1918 91.1131 69.4253 89.9778 69.4253 88.8112Z" fill="#292E27"/>
<path d="M93.5331 105.841H84.839V72.3751H86.9409L89.807 76.3436C91.2083 75.0937 92.8006 74.1354 94.584 73.4688C96.3674 72.7814 98.2145 72.4376 100.125 72.4376H107.8V80.9369H100.125C99.2124 80.9369 98.3525 81.1036 97.5457 81.4369C96.7389 81.7702 96.0383 82.2285 95.4439 82.8118C94.8494 83.395 94.3823 84.0825 94.0426 84.8741C93.7029 85.6657 93.5331 86.5094 93.5331 87.4051V105.841Z" fill="#292E27"/>
<path d="M120.603 105.841H111.845V59.0638H120.603V88.5613L133.564 72.4376H143.564L132.258 86.374L143.564 105.841H133.564L126.653 93.6858L120.603 101.56V105.841Z" fill="#292E27"/>
<path d="M40.6361 158.843C38.513 160.634 36.1351 162.009 33.5025 162.967C30.8698 163.926 28.1417 164.405 25.3179 164.405C23.1524 164.405 21.0611 164.124 19.0442 163.561C17.0485 163.02 15.1695 162.249 13.4074 161.249C11.6664 160.228 10.0741 159.009 8.63039 157.593C7.18669 156.176 5.94467 154.614 4.90436 152.906C3.88527 151.177 3.08911 149.333 2.51587 147.375C1.96387 145.396 1.68786 143.344 1.68786 141.219C1.68786 139.094 1.96387 137.043 2.51587 135.064C3.08911 133.085 3.88527 131.241 4.90436 129.533C5.94467 127.804 7.18669 126.231 8.63039 124.814C10.0741 123.398 11.6664 122.19 13.4074 121.19C15.1695 120.169 17.0485 119.388 19.0442 118.846C21.0611 118.284 23.1524 118.003 25.3179 118.003C28.1417 118.003 30.8698 118.482 33.5025 119.44C36.1351 120.377 38.513 121.752 40.6361 123.565L35.7954 131.376C34.4579 129.96 32.8762 128.877 31.0503 128.127C29.2244 127.356 27.3137 126.971 25.3179 126.971C23.301 126.971 21.4114 127.345 19.6493 128.095C17.8871 128.845 16.3479 129.866 15.0315 131.158C13.7152 132.428 12.6749 133.939 11.9106 135.689C11.1463 137.418 10.7641 139.261 10.7641 141.219C10.7641 143.177 11.1463 145.021 11.9106 146.75C12.6749 148.458 13.7152 149.958 15.0315 151.25C16.3479 152.541 17.8871 153.562 19.6493 154.312C21.4114 155.062 23.301 155.437 25.3179 155.437C27.3137 155.437 29.2244 155.062 31.0503 154.312C32.8762 153.541 34.4579 152.448 35.7954 151.031L40.6361 158.843Z" fill="#292E27"/>
<path d="M76.7818 146.406C76.7818 148.906 76.3254 151.239 75.4124 153.406C74.4995 155.551 73.2575 157.416 71.6864 158.999C70.1153 160.561 68.2682 161.801 66.1451 162.718C64.0432 163.613 61.7821 164.061 59.3618 164.061C56.9627 164.061 54.7016 163.613 52.5785 162.718C50.4766 161.801 48.6296 160.561 47.0372 158.999C45.4661 157.416 44.2241 155.551 43.3112 153.406C42.3983 151.239 41.9418 148.906 41.9418 146.406C41.9418 143.865 42.3983 141.511 43.3112 139.344C44.2241 137.178 45.4661 135.314 47.0372 133.751C48.6296 132.168 50.4766 130.929 52.5785 130.033C54.7016 129.137 56.9627 128.689 59.3618 128.689C61.7821 128.689 64.0432 129.116 66.1451 129.97C68.2682 130.804 70.1153 132.001 71.6864 133.564C73.2575 135.105 74.4995 136.97 75.4124 139.157C76.3254 141.323 76.7818 143.74 76.7818 146.406ZM68.0241 146.406C68.0241 145.031 67.7905 143.792 67.3234 142.688C66.8776 141.563 66.2619 140.605 65.4763 139.813C64.6908 139.001 63.7672 138.386 62.7057 137.97C61.6654 137.532 60.5507 137.313 59.3618 137.313C58.1729 137.313 57.0476 137.532 55.9861 137.97C54.9458 138.386 54.0328 139.001 53.2473 139.813C52.483 140.605 51.8779 141.563 51.432 142.688C50.9862 143.792 50.7633 145.031 50.7633 146.406C50.7633 147.698 50.9862 148.896 51.432 150C51.8779 151.104 52.483 152.062 53.2473 152.875C54.0328 153.687 54.9458 154.333 55.9861 154.812C57.0476 155.27 58.1729 155.499 59.3618 155.499C60.5507 155.499 61.6654 155.281 62.7057 154.843C63.7672 154.406 64.6908 153.791 65.4763 153C66.2619 152.208 66.8776 151.25 67.3234 150.125C67.7905 149 68.0241 147.76 68.0241 146.406Z" fill="#292E27"/>
<path d="M124.966 163.436H116.303V142.188C116.303 141.605 116.187 141.053 115.953 140.532C115.741 140.011 115.433 139.553 115.029 139.157C114.626 138.761 114.159 138.459 113.628 138.251C113.097 138.022 112.535 137.907 111.94 137.907C111.346 137.907 110.783 138.022 110.252 138.251C109.743 138.459 109.286 138.761 108.883 139.157C108.501 139.553 108.193 140.011 107.96 140.532C107.747 141.053 107.641 141.605 107.641 142.188V163.436H98.947V142.188C98.947 141.605 98.8302 141.053 98.5967 140.532C98.3843 140.011 98.0765 139.553 97.6731 139.157C97.2697 138.761 96.8026 138.459 96.2719 138.251C95.7411 138.022 95.1785 137.907 94.584 137.907C93.9895 137.907 93.4269 138.022 92.8961 138.251C92.3866 138.459 91.9301 138.761 91.5267 139.157C91.1446 139.553 90.8367 140.011 90.6032 140.532C90.3909 141.053 90.2847 141.605 90.2847 142.188V163.436H81.5906V129.97H83.6925L86.0492 132.533C87.2593 131.533 88.5863 130.762 90.03 130.22C91.4949 129.658 93.0129 129.377 94.584 129.377C96.1763 129.377 97.7262 129.668 99.2336 130.251C100.762 130.835 102.1 131.845 103.246 133.282C103.777 132.574 104.382 131.97 105.061 131.47C105.741 130.97 106.452 130.564 107.195 130.251C107.96 129.939 108.745 129.72 109.552 129.595C110.359 129.449 111.155 129.377 111.94 129.377C113.745 129.377 115.433 129.71 117.004 130.376C118.596 131.043 119.976 131.96 121.144 133.126C122.333 134.272 123.267 135.626 123.946 137.188C124.626 138.751 124.966 140.417 124.966 142.188V163.436Z" fill="#292E27"/>
<path d="M174.71 163.436H166.047V142.188C166.047 141.605 165.931 141.053 165.697 140.532C165.485 140.011 165.177 139.553 164.774 139.157C164.37 138.761 163.903 138.459 163.372 138.251C162.842 138.022 162.279 137.907 161.685 137.907C161.09 137.907 160.527 138.022 159.997 138.251C159.487 138.459 159.031 138.761 158.627 139.157C158.245 139.553 157.937 140.011 157.704 140.532C157.491 141.053 157.385 141.605 157.385 142.188V163.436H148.691V142.188C148.691 141.605 148.574 141.053 148.341 140.532C148.129 140.011 147.821 139.553 147.417 139.157C147.014 138.761 146.547 138.459 146.016 138.251C145.485 138.022 144.923 137.907 144.328 137.907C143.734 137.907 143.171 138.022 142.64 138.251C142.131 138.459 141.674 138.761 141.271 139.157C140.889 139.553 140.581 140.011 140.347 140.532C140.135 141.053 140.029 141.605 140.029 142.188V163.436H131.335V129.97H133.437L135.793 132.533C137.003 131.533 138.33 130.762 139.774 130.22C141.239 129.658 142.757 129.377 144.328 129.377C145.921 129.377 147.47 129.668 148.978 130.251C150.506 130.835 151.844 131.845 152.99 133.282C153.521 132.574 154.126 131.97 154.806 131.47C155.485 130.97 156.196 130.564 156.939 130.251C157.704 129.939 158.489 129.72 159.296 129.595C160.103 129.449 160.899 129.377 161.685 129.377C163.489 129.377 165.177 129.71 166.748 130.376C168.34 131.043 169.72 131.96 170.888 133.126C172.077 134.272 173.011 135.626 173.691 137.188C174.37 138.751 174.71 140.417 174.71 142.188V163.436Z" fill="#292E27"/>
<path d="M206.142 159.53C205.442 160.155 204.688 160.749 203.881 161.311C203.096 161.853 202.268 162.332 201.397 162.749C200.527 163.145 199.624 163.457 198.69 163.686C197.777 163.936 196.843 164.061 195.888 164.061C193.786 164.061 191.811 163.697 189.964 162.967C188.117 162.238 186.493 161.207 185.092 159.874C183.712 158.52 182.618 156.885 181.811 154.968C181.026 153.031 180.633 150.864 180.633 148.469V129.97H189.295V148.469C189.295 149.594 189.465 150.604 189.805 151.5C190.166 152.375 190.644 153.114 191.238 153.718C191.832 154.322 192.523 154.781 193.308 155.093C194.115 155.406 194.975 155.562 195.888 155.562C196.779 155.562 197.618 155.364 198.403 154.968C199.21 154.552 199.911 154.01 200.505 153.343C201.1 152.677 201.567 151.927 201.907 151.093C202.246 150.239 202.416 149.364 202.416 148.469V129.97H211.11V163.436H209.008L206.142 159.53Z" fill="#292E27"/>
<path d="M226.46 163.436H217.766V129.97H219.868L222.734 133.22C224.135 131.97 225.717 131.012 227.479 130.345C229.263 129.658 231.12 129.314 233.052 129.314C235.133 129.314 237.097 129.71 238.944 130.501C240.791 131.272 242.405 132.345 243.785 133.72C245.165 135.074 246.247 136.668 247.033 138.501C247.84 140.313 248.243 142.25 248.243 144.313V163.436H239.549V144.313C239.549 143.438 239.379 142.615 239.04 141.844C238.7 141.053 238.233 140.365 237.638 139.782C237.044 139.199 236.354 138.74 235.568 138.407C234.783 138.074 233.944 137.907 233.052 137.907C232.14 137.907 231.28 138.074 230.473 138.407C229.666 138.74 228.965 139.199 228.371 139.782C227.777 140.365 227.309 141.053 226.97 141.844C226.63 142.615 226.46 143.438 226.46 144.313V163.436Z" fill="#292E27"/>
<path d="M264.708 120.877C264.708 121.669 264.549 122.408 264.23 123.096C263.933 123.783 263.519 124.387 262.988 124.908C262.457 125.408 261.831 125.814 261.109 126.127C260.409 126.418 259.655 126.564 258.848 126.564C258.041 126.564 257.277 126.418 256.555 126.127C255.855 125.814 255.239 125.408 254.708 124.908C254.198 124.387 253.784 123.783 253.466 123.096C253.169 122.408 253.02 121.669 253.02 120.877C253.02 120.107 253.169 119.377 253.466 118.69C253.784 117.982 254.198 117.378 254.708 116.878C255.239 116.357 255.855 115.951 256.555 115.659C257.277 115.347 258.041 115.19 258.848 115.19C259.655 115.19 260.409 115.347 261.109 115.659C261.831 115.951 262.457 116.357 262.988 116.878C263.519 117.378 263.933 117.982 264.23 118.69C264.549 119.377 264.708 120.107 264.708 120.877ZM263.211 163.436H254.453V129.97H263.211V163.436Z" fill="#292E27"/>
<path d="M286.969 163.436C284.867 163.436 282.892 163.051 281.045 162.28C279.198 161.488 277.574 160.416 276.173 159.062C274.793 157.687 273.699 156.093 272.892 154.281C272.107 152.468 271.714 150.531 271.714 148.469V138.532H267.478V130.033H271.714V116.659H280.376V130.033H293.561V138.532H280.376V148.469C280.376 149.364 280.546 150.208 280.886 151C281.226 151.771 281.693 152.448 282.287 153.031C282.882 153.614 283.582 154.083 284.389 154.437C285.196 154.77 286.056 154.937 286.969 154.937H293.561V163.436H286.969Z" fill="#292E27"/>
<path d="M306.681 176.185V167.592L311.522 167.655C312.371 167.655 313.189 167.519 313.974 167.248C314.76 166.978 315.482 166.603 316.14 166.123C316.819 165.644 317.414 165.071 317.923 164.405C318.433 163.759 318.847 163.051 319.165 162.28C318.21 162.676 317.233 163.072 316.235 163.467C315.259 163.863 314.272 164.061 313.274 164.061C311.172 164.061 309.197 163.697 307.35 162.967C305.503 162.238 303.879 161.207 302.478 159.874C301.098 158.52 300.004 156.885 299.198 154.968C298.412 153.031 298.019 150.864 298.019 148.469V129.97H306.681V148.469C306.681 149.656 306.851 150.698 307.191 151.593C307.552 152.468 308.03 153.208 308.624 153.812C309.219 154.395 309.909 154.833 310.694 155.124C311.501 155.416 312.361 155.562 313.274 155.562C314.165 155.562 315.004 155.364 315.79 154.968C316.596 154.552 317.297 154.01 317.891 153.343C318.486 152.677 318.953 151.927 319.293 151.093C319.632 150.239 319.802 149.364 319.802 148.469V129.97H328.56V159.218C328.539 161.572 328.072 163.78 327.159 165.842C326.246 167.905 324.993 169.706 323.401 171.248C321.83 172.79 319.993 174.008 317.891 174.904C315.79 175.8 313.539 176.248 311.14 176.248L306.681 176.185Z" fill="#292E27"/>
<path d="M40.6361 216.438C38.513 218.229 36.1351 219.604 33.5025 220.563C30.8698 221.521 28.1417 222 25.3179 222C23.1524 222 21.0611 221.719 19.0442 221.156C17.0485 220.615 15.1695 219.844 13.4074 218.844C11.6664 217.823 10.0741 216.605 8.63039 215.188C7.18669 213.772 5.94467 212.209 4.90436 210.501C3.88527 208.772 3.08911 206.928 2.51587 204.97C1.96387 202.991 1.68786 200.939 1.68786 198.814C1.68786 196.69 1.96387 194.638 2.51587 192.659C3.08911 190.68 3.88527 188.836 4.90436 187.128C5.94467 185.399 7.18669 183.826 8.63039 182.41C10.0741 180.993 11.6664 179.785 13.4074 178.785C15.1695 177.764 17.0485 176.983 19.0442 176.441C21.0611 175.879 23.1524 175.598 25.3179 175.598C28.1417 175.598 30.8698 176.077 33.5025 177.035C36.1351 177.972 38.513 179.347 40.6361 181.16L35.7954 188.972C34.4579 187.555 32.8762 186.472 31.0503 185.722C29.2244 184.951 27.3137 184.566 25.3179 184.566C23.301 184.566 21.4114 184.941 19.6493 185.691C17.8871 186.44 16.3479 187.461 15.0315 188.753C13.7152 190.024 12.6749 191.534 11.9106 193.284C11.1463 195.013 10.7641 196.856 10.7641 198.814C10.7641 200.773 11.1463 202.616 11.9106 204.345C12.6749 206.053 13.7152 207.553 15.0315 208.845C16.3479 210.136 17.8871 211.157 19.6493 211.907C21.4114 212.657 23.301 213.032 25.3179 213.032C27.3137 213.032 29.2244 212.657 31.0503 211.907C32.8762 211.136 34.4579 210.043 35.7954 208.626L40.6361 216.438Z" fill="#292E27"/>
<path d="M53.725 221.031H45.0309V174.254H53.725V189.034C54.7653 188.263 55.8375 187.722 56.9415 187.409C58.0455 187.076 59.1707 186.909 60.3172 186.909C62.4191 186.909 64.3936 187.305 66.2406 188.097C68.0877 188.867 69.6907 189.94 71.0495 191.315C72.4295 192.669 73.5123 194.263 74.2978 196.096C75.1046 197.908 75.508 199.846 75.508 201.908V221.031H66.7502V201.908H66.8139C66.8139 201.033 66.644 200.21 66.3043 199.439C65.9646 198.648 65.4976 197.96 64.9031 197.377C64.3086 196.794 63.6186 196.335 62.8331 196.002C62.0475 195.669 61.2089 195.502 60.3172 195.502C59.4043 195.502 58.5444 195.669 57.7376 196.002C56.9309 196.335 56.2302 196.794 55.6358 197.377C55.0413 197.96 54.5742 198.648 54.2345 199.439C53.8948 200.21 53.725 201.033 53.725 201.908V221.031Z" fill="#292E27"/>
<path d="M106.526 217.125C105.826 217.75 105.072 218.344 104.265 218.907C103.48 219.448 102.652 219.927 101.781 220.344C100.911 220.74 100.009 221.052 99.0744 221.281C98.1614 221.531 97.2273 221.656 96.2719 221.656C94.17 221.656 92.1955 221.292 90.3484 220.563C88.5013 219.834 86.8772 218.802 85.4759 217.469C84.0959 216.115 83.0025 214.48 82.1957 212.563C81.4102 210.626 81.0174 208.459 81.0174 206.064V187.565H89.6796V206.064C89.6796 207.189 89.8495 208.199 90.1892 209.095C90.5501 209.97 91.0278 210.709 91.6223 211.313C92.2168 211.918 92.9068 212.376 93.6923 212.688C94.4991 213.001 95.3589 213.157 96.2719 213.157C97.1636 213.157 98.0022 212.959 98.7877 212.563C99.5945 212.147 100.295 211.605 100.89 210.938C101.484 210.272 101.951 209.522 102.291 208.689C102.631 207.835 102.8 206.96 102.8 206.064V187.565H111.494V221.031H109.393L106.526 217.125Z" fill="#292E27"/>
<path d="M126.844 221.031H118.15V187.565H120.252L123.118 191.534C124.52 190.284 126.112 189.326 127.895 188.659C129.679 187.972 131.526 187.628 133.437 187.628H141.112V196.127H133.437C132.524 196.127 131.664 196.294 130.857 196.627C130.05 196.96 129.35 197.419 128.755 198.002C128.161 198.585 127.694 199.273 127.354 200.064C127.014 200.856 126.844 201.7 126.844 202.595V221.031Z" fill="#292E27"/>
<path d="M174.328 194.221L167.958 200.502C167.64 199.627 167.205 198.846 166.653 198.158C166.101 197.45 165.474 196.856 164.774 196.377C164.094 195.898 163.351 195.533 162.544 195.284C161.738 195.034 160.91 194.909 160.06 194.909C158.871 194.909 157.746 195.148 156.685 195.627C155.644 196.106 154.731 196.783 153.946 197.658C153.182 198.512 152.576 199.533 152.131 200.721C151.685 201.908 151.462 203.22 151.462 204.658C151.462 205.824 151.685 206.918 152.131 207.939C152.576 208.959 153.182 209.855 153.946 210.626C154.731 211.397 155.644 212.001 156.685 212.438C157.746 212.876 158.871 213.094 160.06 213.094C160.91 213.094 161.727 212.98 162.513 212.751C163.298 212.522 164.031 212.199 164.71 211.782C165.411 211.345 166.026 210.824 166.557 210.22C167.109 209.595 167.555 208.907 167.895 208.157L174.264 214.438C173.457 215.563 172.523 216.573 171.461 217.469C170.421 218.365 169.285 219.125 168.054 219.75C166.844 220.375 165.559 220.844 164.2 221.156C162.863 221.49 161.483 221.656 160.06 221.656C157.661 221.656 155.4 221.219 153.277 220.344C151.175 219.448 149.328 218.229 147.736 216.688C146.165 215.146 144.923 213.344 144.01 211.282C143.097 209.22 142.64 207.012 142.64 204.658C142.64 202.095 143.097 199.7 144.01 197.471C144.923 195.242 146.165 193.305 147.736 191.659C149.328 189.992 151.175 188.68 153.277 187.722C155.4 186.763 157.661 186.284 160.06 186.284C161.483 186.284 162.873 186.461 164.232 186.815C165.612 187.17 166.918 187.69 168.149 188.378C169.402 189.044 170.548 189.867 171.589 190.846C172.65 191.825 173.563 192.95 174.328 194.221Z" fill="#292E27"/>
<path d="M187.289 221.031H178.595V174.254H187.289V189.034C188.329 188.263 189.402 187.722 190.506 187.409C191.61 187.076 192.735 186.909 193.881 186.909C195.983 186.909 197.958 187.305 199.805 188.097C201.652 188.867 203.255 189.94 204.614 191.315C205.994 192.669 207.076 194.263 207.862 196.096C208.669 197.908 209.072 199.846 209.072 201.908V221.031H200.314V201.908H200.378C200.378 201.033 200.208 200.21 199.868 199.439C199.529 198.648 199.062 197.96 198.467 197.377C197.873 196.794 197.183 196.335 196.397 196.002C195.612 195.669 194.773 195.502 193.881 195.502C192.968 195.502 192.108 195.669 191.302 196.002C190.495 196.335 189.794 196.794 189.2 197.377C188.605 197.96 188.138 198.648 187.799 199.439C187.459 200.21 187.289 201.033 187.289 201.908V221.031Z" fill="#292E27"/>
</svg>
