<svg width="1728" height="1117" viewBox="0 0 1728 1117" fill="none" xmlns="http://www.w3.org/2000/svg">
<rect width="1728" height="1117" fill="white"/>
<path d="M761.605 272.715L768.402 289.551L775.551 272.715H780.004L787.191 289.609L793.969 272.715H799.359L788.129 300.352H786.352L777.758 280.117L769.125 300.352H767.406L756.156 272.715H761.605ZM807.66 281.406C810.342 281.406 812.465 282.266 814.027 283.984C815.59 285.703 816.371 288.079 816.371 291.113V291.836H803.461C803.656 293.464 804.262 294.72 805.277 295.605C806.306 296.478 807.712 296.914 809.496 296.914C810.642 296.914 811.742 296.719 812.797 296.328C813.865 295.924 814.965 295.319 816.098 294.512V298.086C813.962 299.596 811.371 300.352 808.324 300.352C805.447 300.352 803.096 299.486 801.273 297.754C799.451 296.022 798.539 293.717 798.539 290.84C798.539 288.066 799.379 285.801 801.059 284.043C802.751 282.285 804.952 281.406 807.66 281.406ZM811.859 288.926C811.729 287.598 811.326 286.562 810.648 285.82C809.971 285.065 809.04 284.688 807.855 284.688C806.645 284.688 805.668 285.046 804.926 285.762C804.197 286.478 803.734 287.533 803.539 288.926H811.859ZM825.121 272.715V300H820.316V272.715H825.121ZM838.832 281.406C840.954 281.406 842.875 281.816 844.594 282.637V286.719C842.888 285.729 841.273 285.234 839.75 285.234C838.109 285.234 836.768 285.749 835.727 286.777C834.685 287.793 834.164 289.173 834.164 290.918C834.164 292.624 834.685 293.997 835.727 295.039C836.781 296.081 838.181 296.602 839.926 296.602C841.228 296.602 842.895 296.172 844.926 295.312V299.199C843.038 299.967 841.091 300.352 839.086 300.352C836.13 300.352 833.728 299.505 831.879 297.812C830.043 296.12 829.125 293.874 829.125 291.074C829.125 288.171 830.023 285.833 831.82 284.062C833.63 282.292 835.967 281.406 838.832 281.406ZM857.562 281.406C859.464 281.406 861.189 281.803 862.738 282.598C864.288 283.392 865.486 284.505 866.332 285.938C867.178 287.37 867.602 288.991 867.602 290.801C867.602 292.689 867.191 294.342 866.371 295.762C865.564 297.181 864.366 298.301 862.777 299.121C861.202 299.941 859.464 300.352 857.562 300.352C855.648 300.352 853.91 299.941 852.348 299.121C850.785 298.301 849.594 297.181 848.773 295.762C847.966 294.342 847.562 292.689 847.562 290.801C847.562 288.965 847.992 287.337 848.852 285.918C849.711 284.486 850.909 283.379 852.445 282.598C853.982 281.803 855.688 281.406 857.562 281.406ZM852.602 290.801C852.602 292.624 853.044 294.082 853.93 295.176C854.828 296.257 856.026 296.797 857.523 296.797C859.086 296.797 860.316 296.276 861.215 295.234C862.113 294.193 862.562 292.702 862.562 290.762C862.562 288.913 862.107 287.487 861.195 286.484C860.297 285.469 859.073 284.961 857.523 284.961C856.065 284.961 854.88 285.495 853.969 286.562C853.057 287.63 852.602 289.043 852.602 290.801ZM882.016 281.406C883.422 281.406 884.607 281.738 885.57 282.402C886.547 283.053 887.276 283.932 887.758 285.039C888.786 283.776 889.809 282.858 890.824 282.285C891.853 281.699 892.979 281.406 894.203 281.406C896.13 281.406 897.686 282.038 898.871 283.301C900.056 284.551 900.648 286.224 900.648 288.32V300H895.844V289.121C895.844 287.858 895.57 286.862 895.023 286.133C894.49 285.404 893.708 285.039 892.68 285.039C891.208 285.039 889.796 285.983 888.441 287.871V300H883.656V289.043C883.656 287.793 883.37 286.816 882.797 286.113C882.224 285.397 881.456 285.039 880.492 285.039C879.711 285.039 878.995 285.267 878.344 285.723C877.693 286.165 876.996 286.882 876.254 287.871V300H871.449V281.758H876.254V284.316C877.126 283.327 878.012 282.598 878.91 282.129C879.809 281.647 880.844 281.406 882.016 281.406ZM913.48 281.406C916.163 281.406 918.285 282.266 919.848 283.984C921.41 285.703 922.191 288.079 922.191 291.113V291.836H909.281C909.477 293.464 910.082 294.72 911.098 295.605C912.126 296.478 913.533 296.914 915.316 296.914C916.462 296.914 917.562 296.719 918.617 296.328C919.685 295.924 920.785 295.319 921.918 294.512V298.086C919.783 299.596 917.191 300.352 914.145 300.352C911.267 300.352 908.917 299.486 907.094 297.754C905.271 296.022 904.359 293.717 904.359 290.84C904.359 288.066 905.199 285.801 906.879 284.043C908.572 282.285 910.772 281.406 913.48 281.406ZM917.68 288.926C917.549 287.598 917.146 286.562 916.469 285.82C915.792 285.065 914.861 284.688 913.676 284.688C912.465 284.688 911.488 285.046 910.746 285.762C910.017 286.478 909.555 287.533 909.359 288.926H917.68ZM942.113 276.914H942.504V281.758H948.754V285.391H942.504V293.809C942.504 294.629 942.751 295.293 943.246 295.801C943.741 296.309 944.418 296.562 945.277 296.562C946.397 296.562 947.686 296.159 949.145 295.352V299.199C947.413 299.967 945.785 300.352 944.262 300.352C942.204 300.352 940.596 299.792 939.438 298.672C938.292 297.552 937.719 296.035 937.719 294.121V285.391H934.867V284.609L942.113 276.914ZM960.922 281.406C962.823 281.406 964.548 281.803 966.098 282.598C967.647 283.392 968.845 284.505 969.691 285.938C970.538 287.37 970.961 288.991 970.961 290.801C970.961 292.689 970.551 294.342 969.73 295.762C968.923 297.181 967.725 298.301 966.137 299.121C964.561 299.941 962.823 300.352 960.922 300.352C959.008 300.352 957.27 299.941 955.707 299.121C954.145 298.301 952.953 297.181 952.133 295.762C951.326 294.342 950.922 292.689 950.922 290.801C950.922 288.965 951.352 287.337 952.211 285.918C953.07 284.486 954.268 283.379 955.805 282.598C957.341 281.803 959.047 281.406 960.922 281.406ZM955.961 290.801C955.961 292.624 956.404 294.082 957.289 295.176C958.188 296.257 959.385 296.797 960.883 296.797C962.445 296.797 963.676 296.276 964.574 295.234C965.473 294.193 965.922 292.702 965.922 290.762C965.922 288.913 965.466 287.487 964.555 286.484C963.656 285.469 962.432 284.961 960.883 284.961C959.424 284.961 958.24 285.495 957.328 286.562C956.417 287.63 955.961 289.043 955.961 290.801Z" fill="black"/>
<path d="M502.84 678.715L509.637 695.551L516.785 678.715H521.238L528.426 695.609L535.203 678.715H540.594L529.363 706.352H527.586L518.992 686.117L510.359 706.352H508.641L497.391 678.715H502.84ZM548.895 687.406C551.577 687.406 553.699 688.266 555.262 689.984C556.824 691.703 557.605 694.079 557.605 697.113V697.836H544.695C544.891 699.464 545.496 700.72 546.512 701.605C547.54 702.478 548.947 702.914 550.73 702.914C551.876 702.914 552.977 702.719 554.031 702.328C555.099 701.924 556.199 701.319 557.332 700.512V704.086C555.197 705.596 552.605 706.352 549.559 706.352C546.681 706.352 544.331 705.486 542.508 703.754C540.685 702.022 539.773 699.717 539.773 696.84C539.773 694.066 540.613 691.801 542.293 690.043C543.986 688.285 546.186 687.406 548.895 687.406ZM553.094 694.926C552.964 693.598 552.56 692.562 551.883 691.82C551.206 691.065 550.275 690.688 549.09 690.688C547.879 690.688 546.902 691.046 546.16 691.762C545.431 692.478 544.969 693.533 544.773 694.926H553.094ZM562.977 678.363C564.018 678.363 564.852 678.754 565.477 679.535C566.102 680.303 566.414 681.326 566.414 682.602C566.414 684.32 565.835 685.85 564.676 687.191C563.53 688.52 562.124 689.307 560.457 689.555V688.52C561.707 687.465 562.332 686.091 562.332 684.398L562.293 683.793C560.822 683.52 560.086 682.628 560.086 681.117C560.086 680.349 560.359 679.698 560.906 679.164C561.466 678.63 562.156 678.363 562.977 678.363ZM580.848 687.406C581.486 687.406 582.111 687.549 582.723 687.836C583.348 688.122 584.07 688.604 584.891 689.281L583.172 693.48C581.779 692.439 580.659 691.918 579.812 691.918C579.07 691.918 578.335 692.198 577.605 692.758C576.889 693.305 576.31 694.034 575.867 694.945C575.438 695.857 575.223 696.768 575.223 697.68V706H570.418V687.758H575.223V692.406H575.301C576.173 690.648 577.052 689.379 577.938 688.598C578.823 687.803 579.793 687.406 580.848 687.406ZM594.48 687.406C597.163 687.406 599.285 688.266 600.848 689.984C602.41 691.703 603.191 694.079 603.191 697.113V697.836H590.281C590.477 699.464 591.082 700.72 592.098 701.605C593.126 702.478 594.533 702.914 596.316 702.914C597.462 702.914 598.562 702.719 599.617 702.328C600.685 701.924 601.785 701.319 602.918 700.512V704.086C600.783 705.596 598.191 706.352 595.145 706.352C592.267 706.352 589.917 705.486 588.094 703.754C586.271 702.022 585.359 699.717 585.359 696.84C585.359 694.066 586.199 691.801 587.879 690.043C589.572 688.285 591.772 687.406 594.48 687.406ZM598.68 694.926C598.549 693.598 598.146 692.562 597.469 691.82C596.792 691.065 595.861 690.688 594.676 690.688C593.465 690.688 592.488 691.046 591.746 691.762C591.017 692.478 590.555 693.533 590.359 694.926H598.68ZM620.711 687.758L624.949 698.285L629.266 687.758H632.391L636.668 698.285L640.906 687.758H645.906L637.781 706.352H635.75L630.828 695.199L625.906 706.352H623.914L615.711 687.758H620.711ZM657.352 687.406C659.253 687.406 660.978 687.803 662.527 688.598C664.077 689.392 665.275 690.505 666.121 691.938C666.967 693.37 667.391 694.991 667.391 696.801C667.391 698.689 666.98 700.342 666.16 701.762C665.353 703.181 664.155 704.301 662.566 705.121C660.991 705.941 659.253 706.352 657.352 706.352C655.438 706.352 653.699 705.941 652.137 705.121C650.574 704.301 649.383 703.181 648.562 701.762C647.755 700.342 647.352 698.689 647.352 696.801C647.352 694.965 647.781 693.337 648.641 691.918C649.5 690.486 650.698 689.379 652.234 688.598C653.771 687.803 655.477 687.406 657.352 687.406ZM652.391 696.801C652.391 698.624 652.833 700.082 653.719 701.176C654.617 702.257 655.815 702.797 657.312 702.797C658.875 702.797 660.105 702.276 661.004 701.234C661.902 700.193 662.352 698.702 662.352 696.762C662.352 694.913 661.896 693.487 660.984 692.484C660.086 691.469 658.862 690.961 657.312 690.961C655.854 690.961 654.669 691.495 653.758 692.562C652.846 693.63 652.391 695.043 652.391 696.801ZM681.668 687.406C682.306 687.406 682.931 687.549 683.543 687.836C684.168 688.122 684.891 688.604 685.711 689.281L683.992 693.48C682.599 692.439 681.479 691.918 680.633 691.918C679.891 691.918 679.155 692.198 678.426 692.758C677.71 693.305 677.13 694.034 676.688 694.945C676.258 695.857 676.043 696.768 676.043 697.68V706H671.238V687.758H676.043V692.406H676.121C676.993 690.648 677.872 689.379 678.758 688.598C679.643 687.803 680.613 687.406 681.668 687.406ZM692.762 678.715V706H687.957V678.715H692.762ZM706.004 687.758L698.602 696.762L706.922 706H700.828L692.84 696.762L700.359 687.758H706.004ZM711.258 679.32C712 679.32 712.638 679.587 713.172 680.121C713.706 680.655 713.973 681.293 713.973 682.035C713.973 682.751 713.706 683.389 713.172 683.949C712.651 684.496 712.013 684.77 711.258 684.77C710.529 684.77 709.891 684.496 709.344 683.949C708.81 683.389 708.543 682.751 708.543 682.035C708.543 681.28 708.816 680.642 709.363 680.121C709.91 679.587 710.542 679.32 711.258 679.32ZM713.66 687.758V706H708.855V687.758H713.66ZM729.188 687.406C731.141 687.406 732.697 688.051 733.855 689.34C735.027 690.616 735.613 692.302 735.613 694.398V706H730.828V694.887C730.828 693.702 730.542 692.764 729.969 692.074C729.409 691.384 728.641 691.039 727.664 691.039C726.922 691.039 726.225 691.26 725.574 691.703C724.923 692.133 724.207 692.855 723.426 693.871V706H718.621V687.758H723.426V690.316C724.311 689.275 725.216 688.533 726.141 688.09C727.078 687.634 728.094 687.406 729.188 687.406ZM757.098 687.758V691.156H753.973C754.48 691.781 754.832 692.361 755.027 692.895C755.236 693.415 755.34 693.982 755.34 694.594C755.34 696.052 754.793 697.387 753.699 698.598C752.736 699.652 751.082 700.336 748.738 700.648C747.475 700.805 746.635 700.987 746.219 701.195C745.815 701.391 745.613 701.697 745.613 702.113C745.613 702.491 745.861 702.784 746.355 702.992C746.863 703.188 747.671 703.376 748.777 703.559C751.525 704.001 753.543 704.678 754.832 705.59C756.134 706.501 756.785 707.706 756.785 709.203C756.785 711.13 755.997 712.608 754.422 713.637C752.846 714.678 750.581 715.199 747.625 715.199C744.826 715.199 742.599 714.711 740.945 713.734C739.292 712.758 738.465 711.449 738.465 709.809C738.465 707.491 740.06 705.889 743.25 705.004C741.87 704.405 741.18 703.617 741.18 702.641C741.18 701.365 742.221 700.486 744.305 700.004V699.926C742.885 699.535 741.753 698.839 740.906 697.836C740.073 696.833 739.656 695.661 739.656 694.32C739.656 692.354 740.398 690.772 741.883 689.574C743.367 688.363 745.307 687.758 747.703 687.758H757.098ZM744.09 694.359C744.09 695.31 744.422 696.104 745.086 696.742C745.763 697.367 746.583 697.68 747.547 697.68C748.536 697.68 749.35 697.354 749.988 696.703C750.626 696.039 750.945 695.206 750.945 694.203C750.945 693.305 750.613 692.556 749.949 691.957C749.285 691.345 748.484 691.039 747.547 691.039C746.583 691.039 745.763 691.371 745.086 692.035C744.422 692.686 744.09 693.461 744.09 694.359ZM742.938 709.594C742.938 711.221 744.565 712.035 747.82 712.035C749.227 712.035 750.327 711.807 751.121 711.352C751.928 710.909 752.332 710.323 752.332 709.594C752.332 708.786 751.876 708.174 750.965 707.758C750.066 707.354 748.79 707.152 747.137 707.152C745.9 707.152 744.891 707.38 744.109 707.836C743.328 708.305 742.938 708.891 742.938 709.594ZM780.047 687.406C781.948 687.406 783.673 687.803 785.223 688.598C786.772 689.392 787.97 690.505 788.816 691.938C789.663 693.37 790.086 694.991 790.086 696.801C790.086 698.689 789.676 700.342 788.855 701.762C788.048 703.181 786.85 704.301 785.262 705.121C783.686 705.941 781.948 706.352 780.047 706.352C778.133 706.352 776.395 705.941 774.832 705.121C773.27 704.301 772.078 703.181 771.258 701.762C770.451 700.342 770.047 698.689 770.047 696.801C770.047 694.965 770.477 693.337 771.336 691.918C772.195 690.486 773.393 689.379 774.93 688.598C776.466 687.803 778.172 687.406 780.047 687.406ZM775.086 696.801C775.086 698.624 775.529 700.082 776.414 701.176C777.312 702.257 778.51 702.797 780.008 702.797C781.57 702.797 782.801 702.276 783.699 701.234C784.598 700.193 785.047 698.702 785.047 696.762C785.047 694.913 784.591 693.487 783.68 692.484C782.781 691.469 781.557 690.961 780.008 690.961C778.549 690.961 777.365 691.495 776.453 692.562C775.542 693.63 775.086 695.043 775.086 696.801ZM804.5 687.406C806.453 687.406 808.009 688.051 809.168 689.34C810.34 690.616 810.926 692.302 810.926 694.398V706H806.141V694.887C806.141 693.702 805.854 692.764 805.281 692.074C804.721 691.384 803.953 691.039 802.977 691.039C802.234 691.039 801.538 691.26 800.887 691.703C800.236 692.133 799.52 692.855 798.738 693.871V706H793.934V687.758H798.738V690.316C799.624 689.275 800.529 688.533 801.453 688.09C802.391 687.634 803.406 687.406 804.5 687.406ZM831.707 682.914H832.098V687.758H838.348V691.391H832.098V699.809C832.098 700.629 832.345 701.293 832.84 701.801C833.335 702.309 834.012 702.562 834.871 702.562C835.991 702.562 837.28 702.159 838.738 701.352V705.199C837.007 705.967 835.379 706.352 833.855 706.352C831.798 706.352 830.19 705.792 829.031 704.672C827.885 703.552 827.312 702.035 827.312 700.121V691.391H824.461V690.609L831.707 682.914ZM846.277 678.715V690.316H846.395C847.944 688.376 849.812 687.406 852 687.406C853.94 687.406 855.503 688.044 856.688 689.32C857.872 690.596 858.465 692.263 858.465 694.32V706H853.68V695.238C853.68 694.014 853.387 693.044 852.801 692.328C852.228 691.599 851.44 691.234 850.438 691.234C849.708 691.234 849.018 691.443 848.367 691.859C847.729 692.276 847.033 692.966 846.277 693.93V706H841.473V678.715H846.277ZM865.672 679.32C866.414 679.32 867.052 679.587 867.586 680.121C868.12 680.655 868.387 681.293 868.387 682.035C868.387 682.751 868.12 683.389 867.586 683.949C867.065 684.496 866.427 684.77 865.672 684.77C864.943 684.77 864.305 684.496 863.758 683.949C863.224 683.389 862.957 682.751 862.957 682.035C862.957 681.28 863.23 680.642 863.777 680.121C864.324 679.587 864.956 679.32 865.672 679.32ZM868.074 687.758V706H863.27V687.758H868.074ZM878.953 687.406C879.956 687.406 880.9 687.523 881.785 687.758C882.671 687.979 883.608 688.337 884.598 688.832V692.68C883.686 692.094 882.71 691.625 881.668 691.273C880.626 690.909 879.695 690.727 878.875 690.727C878.185 690.727 877.645 690.857 877.254 691.117C876.863 691.378 876.668 691.749 876.668 692.23C876.668 692.504 876.831 692.777 877.156 693.051C877.482 693.324 878.374 693.826 879.832 694.555C881.915 695.609 883.374 696.586 884.207 697.484C885.053 698.37 885.477 699.438 885.477 700.688C885.477 702.445 884.865 703.832 883.641 704.848C882.417 705.85 880.763 706.352 878.68 706.352C877.378 706.352 876.16 706.208 875.027 705.922C873.908 705.635 872.977 705.29 872.234 704.887V700.883C874.578 702.185 876.551 702.836 878.152 702.836C878.973 702.836 879.637 702.693 880.145 702.406C880.652 702.107 880.906 701.716 880.906 701.234C880.906 700.948 880.815 700.688 880.633 700.453C880.451 700.219 880.177 699.978 879.812 699.73C879.448 699.483 878.309 698.891 876.395 697.953C874.923 697.25 873.836 696.488 873.133 695.668C872.43 694.835 872.078 693.852 872.078 692.719C872.078 691.104 872.71 689.815 873.973 688.852C875.236 687.888 876.896 687.406 878.953 687.406ZM906.258 687.406C907.26 687.406 908.204 687.523 909.09 687.758C909.975 687.979 910.913 688.337 911.902 688.832V692.68C910.991 692.094 910.014 691.625 908.973 691.273C907.931 690.909 907 690.727 906.18 690.727C905.49 690.727 904.949 690.857 904.559 691.117C904.168 691.378 903.973 691.749 903.973 692.23C903.973 692.504 904.135 692.777 904.461 693.051C904.786 693.324 905.678 693.826 907.137 694.555C909.22 695.609 910.678 696.586 911.512 697.484C912.358 698.37 912.781 699.438 912.781 700.688C912.781 702.445 912.169 703.832 910.945 704.848C909.721 705.85 908.068 706.352 905.984 706.352C904.682 706.352 903.465 706.208 902.332 705.922C901.212 705.635 900.281 705.29 899.539 704.887V700.883C901.883 702.185 903.855 702.836 905.457 702.836C906.277 702.836 906.941 702.693 907.449 702.406C907.957 702.107 908.211 701.716 908.211 701.234C908.211 700.948 908.12 700.688 907.938 700.453C907.755 700.219 907.482 699.978 907.117 699.73C906.753 699.483 905.613 698.891 903.699 697.953C902.228 697.25 901.141 696.488 900.438 695.668C899.734 694.835 899.383 693.852 899.383 692.719C899.383 691.104 900.014 689.815 901.277 688.852C902.54 687.888 904.201 687.406 906.258 687.406ZM919.07 679.32C919.812 679.32 920.451 679.587 920.984 680.121C921.518 680.655 921.785 681.293 921.785 682.035C921.785 682.751 921.518 683.389 920.984 683.949C920.464 684.496 919.826 684.77 919.07 684.77C918.341 684.77 917.703 684.496 917.156 683.949C916.622 683.389 916.355 682.751 916.355 682.035C916.355 681.28 916.629 680.642 917.176 680.121C917.723 679.587 918.354 679.32 919.07 679.32ZM921.473 687.758V706H916.668V687.758H921.473ZM931.434 682.914H931.824V687.758H938.074V691.391H931.824V699.809C931.824 700.629 932.072 701.293 932.566 701.801C933.061 702.309 933.738 702.562 934.598 702.562C935.717 702.562 937.007 702.159 938.465 701.352V705.199C936.733 705.967 935.105 706.352 933.582 706.352C931.525 706.352 929.917 705.792 928.758 704.672C927.612 703.552 927.039 702.035 927.039 700.121V691.391H924.188V690.609L931.434 682.914ZM949.363 687.406C952.046 687.406 954.168 688.266 955.73 689.984C957.293 691.703 958.074 694.079 958.074 697.113V697.836H945.164C945.359 699.464 945.965 700.72 946.98 701.605C948.009 702.478 949.415 702.914 951.199 702.914C952.345 702.914 953.445 702.719 954.5 702.328C955.568 701.924 956.668 701.319 957.801 700.512V704.086C955.665 705.596 953.074 706.352 950.027 706.352C947.15 706.352 944.799 705.486 942.977 703.754C941.154 702.022 940.242 699.717 940.242 696.84C940.242 694.066 941.082 691.801 942.762 690.043C944.454 688.285 946.655 687.406 949.363 687.406ZM953.562 694.926C953.432 693.598 953.029 692.562 952.352 691.82C951.674 691.065 950.743 690.688 949.559 690.688C948.348 690.688 947.371 691.046 946.629 691.762C945.9 692.478 945.438 693.533 945.242 694.926H953.562ZM979.559 687.406C981.902 687.406 983.693 687.908 984.93 688.91C986.167 689.9 986.785 691.286 986.785 693.07V701.996C986.785 702.686 987.065 703.031 987.625 703.031C987.859 703.031 988.185 702.934 988.602 702.738C989.031 702.53 989.389 702.296 989.676 702.035V704.809C987.996 705.837 986.46 706.352 985.066 706.352C984.207 706.352 983.543 706.208 983.074 705.922C982.618 705.635 982.299 705.128 982.117 704.398C980.281 705.701 978.439 706.352 976.59 706.352C975.275 706.352 974.142 705.909 973.191 705.023C972.254 704.138 971.785 703.077 971.785 701.84C971.785 700.264 972.254 699.021 973.191 698.109C974.129 697.198 975.77 696.404 978.113 695.727L982 694.594V693.754C982 691.97 980.919 691.078 978.758 691.078C977.651 691.078 976.551 691.332 975.457 691.84C974.363 692.348 973.367 693.096 972.469 694.086V689.77C974.461 688.194 976.824 687.406 979.559 687.406ZM976.629 701.117C976.629 701.781 976.837 702.315 977.254 702.719C977.684 703.122 978.211 703.324 978.836 703.324C979.891 703.324 980.945 702.842 982 701.879V697.074C980.659 697.53 979.604 697.96 978.836 698.363C978.081 698.767 977.521 699.177 977.156 699.594C976.805 700.01 976.629 700.518 976.629 701.117ZM997.332 682.914H997.723V687.758H1003.97V691.391H997.723V699.809C997.723 700.629 997.97 701.293 998.465 701.801C998.96 702.309 999.637 702.562 1000.5 702.562C1001.62 702.562 1002.9 702.159 1004.36 701.352V705.199C1002.63 705.967 1001 706.352 999.48 706.352C997.423 706.352 995.815 705.792 994.656 704.672C993.51 703.552 992.938 702.035 992.938 700.121V691.391H990.086V690.609L997.332 682.914ZM1023.23 682.914H1023.62V687.758H1029.87V691.391H1023.62V699.809C1023.62 700.629 1023.87 701.293 1024.36 701.801C1024.86 702.309 1025.54 702.562 1026.39 702.562C1027.51 702.562 1028.8 702.159 1030.26 701.352V705.199C1028.53 705.967 1026.9 706.352 1025.38 706.352C1023.32 706.352 1021.71 705.792 1020.55 704.672C1019.41 703.552 1018.84 702.035 1018.84 700.121V691.391H1015.98V690.609L1023.23 682.914ZM1037.8 678.715V690.316H1037.92C1039.47 688.376 1041.34 687.406 1043.52 687.406C1045.46 687.406 1047.03 688.044 1048.21 689.32C1049.4 690.596 1049.99 692.263 1049.99 694.32V706H1045.2V695.238C1045.2 694.014 1044.91 693.044 1044.32 692.328C1043.75 691.599 1042.96 691.234 1041.96 691.234C1041.23 691.234 1040.54 691.443 1039.89 691.859C1039.25 692.276 1038.56 692.966 1037.8 693.93V706H1033V678.715H1037.8ZM1062.8 687.406C1065.48 687.406 1067.61 688.266 1069.17 689.984C1070.73 691.703 1071.51 694.079 1071.51 697.113V697.836H1058.6C1058.8 699.464 1059.4 700.72 1060.42 701.605C1061.45 702.478 1062.85 702.914 1064.64 702.914C1065.78 702.914 1066.88 702.719 1067.94 702.328C1069.01 701.924 1070.11 701.319 1071.24 700.512V704.086C1069.1 705.596 1066.51 706.352 1063.46 706.352C1060.59 706.352 1058.24 705.486 1056.41 703.754C1054.59 702.022 1053.68 699.717 1053.68 696.84C1053.68 694.066 1054.52 691.801 1056.2 690.043C1057.89 688.285 1060.09 687.406 1062.8 687.406ZM1067 694.926C1066.87 693.598 1066.47 692.562 1065.79 691.82C1065.11 691.065 1064.18 690.688 1063 690.688C1061.79 690.688 1060.81 691.046 1060.07 691.762C1059.34 692.478 1058.88 693.533 1058.68 694.926H1067ZM1097 687.406C1098.41 687.406 1099.59 687.738 1100.55 688.402C1101.53 689.053 1102.26 689.932 1102.74 691.039C1103.77 689.776 1104.79 688.858 1105.81 688.285C1106.84 687.699 1107.96 687.406 1109.19 687.406C1111.11 687.406 1112.67 688.038 1113.86 689.301C1115.04 690.551 1115.63 692.224 1115.63 694.32V706H1110.83V695.121C1110.83 693.858 1110.55 692.862 1110.01 692.133C1109.47 691.404 1108.69 691.039 1107.66 691.039C1106.19 691.039 1104.78 691.983 1103.43 693.871V706H1098.64V695.043C1098.64 693.793 1098.35 692.816 1097.78 692.113C1097.21 691.397 1096.44 691.039 1095.48 691.039C1094.7 691.039 1093.98 691.267 1093.33 691.723C1092.68 692.165 1091.98 692.882 1091.24 693.871V706H1086.43V687.758H1091.24V690.316C1092.11 689.327 1093 688.598 1093.89 688.129C1094.79 687.647 1095.83 687.406 1097 687.406ZM1129.34 687.406C1131.24 687.406 1132.97 687.803 1134.52 688.598C1136.07 689.392 1137.27 690.505 1138.11 691.938C1138.96 693.37 1139.38 694.991 1139.38 696.801C1139.38 698.689 1138.97 700.342 1138.15 701.762C1137.35 703.181 1136.15 704.301 1134.56 705.121C1132.98 705.941 1131.24 706.352 1129.34 706.352C1127.43 706.352 1125.69 705.941 1124.13 705.121C1122.57 704.301 1121.38 703.181 1120.55 701.762C1119.75 700.342 1119.34 698.689 1119.34 696.801C1119.34 694.965 1119.77 693.337 1120.63 691.918C1121.49 690.486 1122.69 689.379 1124.23 688.598C1125.76 687.803 1127.47 687.406 1129.34 687.406ZM1124.38 696.801C1124.38 698.624 1124.83 700.082 1125.71 701.176C1126.61 702.257 1127.81 702.797 1129.3 702.797C1130.87 702.797 1132.1 702.276 1133 701.234C1133.89 700.193 1134.34 698.702 1134.34 696.762C1134.34 694.913 1133.89 693.487 1132.98 692.484C1132.08 691.469 1130.85 690.961 1129.3 690.961C1127.85 690.961 1126.66 691.495 1125.75 692.562C1124.84 693.63 1124.38 695.043 1124.38 696.801ZM1153.8 687.406C1155.2 687.406 1156.39 687.738 1157.35 688.402C1158.33 689.053 1159.06 689.932 1159.54 691.039C1160.57 689.776 1161.59 688.858 1162.61 688.285C1163.63 687.699 1164.76 687.406 1165.98 687.406C1167.91 687.406 1169.47 688.038 1170.65 689.301C1171.84 690.551 1172.43 692.224 1172.43 694.32V706H1167.62V695.121C1167.62 693.858 1167.35 692.862 1166.8 692.133C1166.27 691.404 1165.49 691.039 1164.46 691.039C1162.99 691.039 1161.58 691.983 1160.22 693.871V706H1155.44V695.043C1155.44 693.793 1155.15 692.816 1154.58 692.113C1154.01 691.397 1153.24 691.039 1152.27 691.039C1151.49 691.039 1150.78 691.267 1150.12 691.723C1149.47 692.165 1148.78 692.882 1148.04 693.871V706H1143.23V687.758H1148.04V690.316C1148.91 689.327 1149.79 688.598 1150.69 688.129C1151.59 687.647 1152.62 687.406 1153.8 687.406ZM1185.26 687.406C1187.94 687.406 1190.07 688.266 1191.63 689.984C1193.19 691.703 1193.97 694.079 1193.97 697.113V697.836H1181.06C1181.26 699.464 1181.86 700.72 1182.88 701.605C1183.91 702.478 1185.31 702.914 1187.1 702.914C1188.24 702.914 1189.34 702.719 1190.4 702.328C1191.47 701.924 1192.57 701.319 1193.7 700.512V704.086C1191.56 705.596 1188.97 706.352 1185.93 706.352C1183.05 706.352 1180.7 705.486 1178.88 703.754C1177.05 702.022 1176.14 699.717 1176.14 696.84C1176.14 694.066 1176.98 691.801 1178.66 690.043C1180.35 688.285 1182.55 687.406 1185.26 687.406ZM1189.46 694.926C1189.33 693.598 1188.93 692.562 1188.25 691.82C1187.57 691.065 1186.64 690.688 1185.46 690.688C1184.25 690.688 1183.27 691.046 1182.53 691.762C1181.8 692.478 1181.34 693.533 1181.14 694.926H1189.46ZM1208.33 687.406C1210.28 687.406 1211.84 688.051 1213 689.34C1214.17 690.616 1214.75 692.302 1214.75 694.398V706H1209.97V694.887C1209.97 693.702 1209.68 692.764 1209.11 692.074C1208.55 691.384 1207.78 691.039 1206.8 691.039C1206.06 691.039 1205.37 691.26 1204.71 691.703C1204.06 692.133 1203.35 692.855 1202.57 693.871V706H1197.76V687.758H1202.57V690.316C1203.45 689.275 1204.36 688.533 1205.28 688.09C1206.22 687.634 1207.23 687.406 1208.33 687.406ZM1224.4 682.914H1224.79V687.758H1231.04V691.391H1224.79V699.809C1224.79 700.629 1225.04 701.293 1225.54 701.801C1226.03 702.309 1226.71 702.562 1227.57 702.562C1228.69 702.562 1229.98 702.159 1231.43 701.352V705.199C1229.7 705.967 1228.07 706.352 1226.55 706.352C1224.49 706.352 1222.89 705.792 1221.73 704.672C1220.58 703.552 1220.01 702.035 1220.01 700.121V691.391H1217.16V690.609L1224.4 682.914ZM553.934 771.715V799H551.824V771.715H553.934ZM570.301 772.125V773.922C569.012 773.466 567.931 773.238 567.059 773.238C564.155 773.238 562.703 775.094 562.703 778.805V781.031H566.18V782.594H562.703V799H560.789V782.594H557.469V781.031H560.789V778.082C560.789 776.012 561.388 774.378 562.586 773.18C563.797 771.969 565.275 771.363 567.02 771.363C567.97 771.363 569.064 771.617 570.301 772.125ZM594.676 781.031L581.238 808.199H579.285L585.555 795.523L577.996 781.031H580.008L586.531 793.609L592.723 781.031H594.676ZM604.461 780.68C607.065 780.68 609.233 781.572 610.965 783.355C612.71 785.139 613.582 787.366 613.582 790.035C613.582 792.691 612.71 794.911 610.965 796.695C609.233 798.466 607.065 799.352 604.461 799.352C601.857 799.352 599.676 798.466 597.918 796.695C596.173 794.911 595.301 792.691 595.301 790.035C595.301 787.366 596.173 785.139 597.918 783.355C599.676 781.572 601.857 780.68 604.461 780.68ZM604.461 797.477C606.479 797.477 608.165 796.773 609.52 795.367C610.874 793.948 611.551 792.171 611.551 790.035C611.551 787.913 610.867 786.135 609.5 784.703C608.146 783.271 606.466 782.555 604.461 782.555C602.43 782.555 600.73 783.264 599.363 784.684C598.009 786.103 597.332 787.887 597.332 790.035C597.332 792.171 598.009 793.948 599.363 795.367C600.73 796.773 602.43 797.477 604.461 797.477ZM630.457 799V796.031H630.379C629.546 797.229 628.686 798.082 627.801 798.59C626.928 799.098 625.815 799.352 624.461 799.352C622.534 799.352 620.939 798.727 619.676 797.477C618.413 796.227 617.781 794.456 617.781 792.164V781.031H619.695V792.125C619.695 793.792 620.151 795.1 621.062 796.051C621.974 797.001 623.159 797.477 624.617 797.477C625.867 797.477 626.928 797.19 627.801 796.617C628.686 796.044 629.572 795.055 630.457 793.648V781.031H632.371V799H630.457ZM650.438 771.715V784.156H650.516C652.013 781.839 653.986 780.68 656.434 780.68C658.465 780.68 660.086 781.331 661.297 782.633C662.508 783.935 663.113 785.725 663.113 788.004V799H661.199V788.766C661.199 784.625 659.572 782.555 656.316 782.555C653.986 782.555 652.026 783.837 650.438 786.402V799H648.523V771.715H650.438ZM682.488 795.875V797.477C680.835 798.727 679.624 799.352 678.855 799.352C678.413 799.352 678.107 799.208 677.938 798.922C677.768 798.622 677.645 798.023 677.566 797.125C675.678 798.609 673.803 799.352 671.941 799.352C670.587 799.352 669.441 798.909 668.504 798.023C667.566 797.138 667.098 796.064 667.098 794.801C667.098 792.848 668.003 791.311 669.812 790.191C671.622 789.059 674.207 788.408 677.566 788.238V785.953C677.566 783.505 676.238 782.281 673.582 782.281C671.889 782.281 670.06 783.043 668.094 784.566V782.594C670.125 781.318 672.059 780.68 673.895 780.68C675.522 780.68 676.863 781.083 677.918 781.891C678.973 782.685 679.5 783.844 679.5 785.367V796.559C679.5 797.171 679.643 797.477 679.93 797.477C680.294 797.477 681.147 796.943 682.488 795.875ZM677.566 795.445V789.84C675.105 789.749 673.061 790.185 671.434 791.148C669.819 792.099 669.012 793.316 669.012 794.801C669.012 795.634 669.35 796.337 670.027 796.91C670.704 797.483 671.551 797.77 672.566 797.77C674.207 797.77 675.874 796.995 677.566 795.445ZM698.777 781.031L691.062 799.352H689.871L681.707 781.031H683.66L690.418 796.168L696.902 781.031H698.777ZM715.945 789.352H701.785C701.746 789.664 701.727 789.977 701.727 790.289C701.727 792.294 702.443 793.993 703.875 795.387C705.307 796.78 707 797.477 708.953 797.477C711.232 797.477 713.458 796.585 715.633 794.801V796.969C713.576 798.557 711.271 799.352 708.719 799.352C706.128 799.352 703.986 798.453 702.293 796.656C700.6 794.859 699.754 792.574 699.754 789.801C699.754 787.171 700.535 784.996 702.098 783.277C703.66 781.546 705.626 780.68 707.996 780.68C710.223 780.68 712.104 781.461 713.641 783.023C715.177 784.573 715.945 786.682 715.945 789.352ZM702.039 787.809H713.68C713.003 784.306 711.108 782.555 707.996 782.555C706.525 782.555 705.249 783.017 704.168 783.941C703.1 784.853 702.391 786.142 702.039 787.809ZM745.301 795.875V797.477C743.647 798.727 742.436 799.352 741.668 799.352C741.225 799.352 740.919 799.208 740.75 798.922C740.581 798.622 740.457 798.023 740.379 797.125C738.491 798.609 736.616 799.352 734.754 799.352C733.4 799.352 732.254 798.909 731.316 798.023C730.379 797.138 729.91 796.064 729.91 794.801C729.91 792.848 730.815 791.311 732.625 790.191C734.435 789.059 737.02 788.408 740.379 788.238V785.953C740.379 783.505 739.051 782.281 736.395 782.281C734.702 782.281 732.872 783.043 730.906 784.566V782.594C732.938 781.318 734.871 780.68 736.707 780.68C738.335 780.68 739.676 781.083 740.73 781.891C741.785 782.685 742.312 783.844 742.312 785.367V796.559C742.312 797.171 742.456 797.477 742.742 797.477C743.107 797.477 743.96 796.943 745.301 795.875ZM740.379 795.445V789.84C737.918 789.749 735.874 790.185 734.246 791.148C732.632 792.099 731.824 793.316 731.824 794.801C731.824 795.634 732.163 796.337 732.84 796.91C733.517 797.483 734.363 797.77 735.379 797.77C737.02 797.77 738.686 796.995 740.379 795.445ZM749.93 781.031V784.156H750.008C751.505 781.839 753.478 780.68 755.926 780.68C757.957 780.68 759.578 781.331 760.789 782.633C762 783.935 762.605 785.738 762.605 788.043V799H760.691V788.766C760.691 784.625 759.064 782.555 755.809 782.555C753.426 782.555 751.466 783.837 749.93 786.402V799H748.016V781.031H749.93ZM781.434 781.031L767.996 808.199H766.043L772.312 795.523L764.754 781.031H766.766L773.289 793.609L779.48 781.031H781.434ZM810.203 781.031V808.199H808.289V797.965C806.284 798.889 804.324 799.352 802.41 799.352C799.897 799.352 797.833 798.512 796.219 796.832C794.617 795.152 793.816 792.997 793.816 790.367C793.816 787.594 794.663 785.289 796.355 783.453C798.048 781.604 800.158 780.68 802.684 780.68C804.52 780.68 806.388 781.214 808.289 782.281V781.031H810.203ZM808.289 796.031V784.156C806.57 783.089 804.839 782.555 803.094 782.555C801.036 782.555 799.311 783.316 797.918 784.84C796.538 786.363 795.848 788.258 795.848 790.523C795.848 792.659 796.486 794.371 797.762 795.66C799.038 796.949 800.724 797.594 802.82 797.594C804.656 797.594 806.479 797.073 808.289 796.031ZM827.879 799V796.031H827.801C826.967 797.229 826.108 798.082 825.223 798.59C824.35 799.098 823.237 799.352 821.883 799.352C819.956 799.352 818.361 798.727 817.098 797.477C815.835 796.227 815.203 794.456 815.203 792.164V781.031H817.117V792.125C817.117 793.792 817.573 795.1 818.484 796.051C819.396 797.001 820.581 797.477 822.039 797.477C823.289 797.477 824.35 797.19 825.223 796.617C826.108 796.044 826.993 795.055 827.879 793.648V781.031H829.793V799H827.879ZM850.125 789.352H835.965C835.926 789.664 835.906 789.977 835.906 790.289C835.906 792.294 836.622 793.993 838.055 795.387C839.487 796.78 841.18 797.477 843.133 797.477C845.411 797.477 847.638 796.585 849.812 794.801V796.969C847.755 798.557 845.451 799.352 842.898 799.352C840.307 799.352 838.165 798.453 836.473 796.656C834.78 794.859 833.934 792.574 833.934 789.801C833.934 787.171 834.715 784.996 836.277 783.277C837.84 781.546 839.806 780.68 842.176 780.68C844.402 780.68 846.284 781.461 847.82 783.023C849.357 784.573 850.125 786.682 850.125 789.352ZM836.219 787.809H847.859C847.182 784.306 845.288 782.555 842.176 782.555C840.704 782.555 839.428 783.017 838.348 783.941C837.28 784.853 836.57 786.142 836.219 787.809ZM863.875 782.203V784.273C862.052 783.049 860.411 782.438 858.953 782.438C857.872 782.438 856.961 782.73 856.219 783.316C855.477 783.902 855.105 784.625 855.105 785.484C855.105 786.096 855.327 786.663 855.77 787.184C856.225 787.691 857.469 788.336 859.5 789.117C861.544 789.898 862.879 790.712 863.504 791.559C864.129 792.405 864.441 793.349 864.441 794.391C864.441 795.784 863.875 796.962 862.742 797.926C861.609 798.876 860.21 799.352 858.543 799.352C856.733 799.352 854.936 798.805 853.152 797.711V795.836C855.275 796.93 857.156 797.477 858.797 797.477C859.904 797.477 860.809 797.184 861.512 796.598C862.228 796.012 862.586 795.263 862.586 794.352C862.586 793.727 862.352 793.154 861.883 792.633C861.427 792.099 860.177 791.428 858.133 790.621C856.102 789.814 854.78 789.02 854.168 788.238C853.569 787.444 853.27 786.565 853.27 785.602C853.27 784.234 853.829 783.076 854.949 782.125C856.082 781.161 857.456 780.68 859.07 780.68C860.542 780.68 862.143 781.188 863.875 782.203ZM871.688 775.074V781.031H876.727V782.594H871.688V793.277C871.688 794.996 871.824 796.129 872.098 796.676C872.384 797.21 873.139 797.477 874.363 797.477C875.301 797.477 876.395 797.184 877.645 796.598V798.434C876.382 799.046 875.145 799.352 873.934 799.352C872.749 799.352 871.759 799.013 870.965 798.336C870.171 797.659 869.773 796.721 869.773 795.523V782.594H864.93V781.031H869.773V776.754L871.082 775.074H871.688ZM882.488 771.715V774.996H880.555V771.715H882.488ZM882.488 781.031V799H880.555V781.031H882.488ZM896.141 780.68C898.745 780.68 900.913 781.572 902.645 783.355C904.389 785.139 905.262 787.366 905.262 790.035C905.262 792.691 904.389 794.911 902.645 796.695C900.913 798.466 898.745 799.352 896.141 799.352C893.536 799.352 891.355 798.466 889.598 796.695C887.853 794.911 886.98 792.691 886.98 790.035C886.98 787.366 887.853 785.139 889.598 783.355C891.355 781.572 893.536 780.68 896.141 780.68ZM896.141 797.477C898.159 797.477 899.845 796.773 901.199 795.367C902.553 793.948 903.23 792.171 903.23 790.035C903.23 787.913 902.547 786.135 901.18 784.703C899.826 783.271 898.146 782.555 896.141 782.555C894.109 782.555 892.41 783.264 891.043 784.684C889.689 786.103 889.012 787.887 889.012 790.035C889.012 792.171 889.689 793.948 891.043 795.367C892.41 796.773 894.109 797.477 896.141 797.477ZM911.375 781.031V784.156H911.453C912.951 781.839 914.923 780.68 917.371 780.68C919.402 780.68 921.023 781.331 922.234 782.633C923.445 783.935 924.051 785.738 924.051 788.043V799H922.137V788.766C922.137 784.625 920.509 782.555 917.254 782.555C914.871 782.555 912.911 783.837 911.375 786.402V799H909.461V781.031H911.375ZM938.953 782.203V784.273C937.13 783.049 935.49 782.438 934.031 782.438C932.951 782.438 932.039 782.73 931.297 783.316C930.555 783.902 930.184 784.625 930.184 785.484C930.184 786.096 930.405 786.663 930.848 787.184C931.303 787.691 932.547 788.336 934.578 789.117C936.622 789.898 937.957 790.712 938.582 791.559C939.207 792.405 939.52 793.349 939.52 794.391C939.52 795.784 938.953 796.962 937.82 797.926C936.688 798.876 935.288 799.352 933.621 799.352C931.811 799.352 930.014 798.805 928.23 797.711V795.836C930.353 796.93 932.234 797.477 933.875 797.477C934.982 797.477 935.887 797.184 936.59 796.598C937.306 796.012 937.664 795.263 937.664 794.352C937.664 793.727 937.43 793.154 936.961 792.633C936.505 792.099 935.255 791.428 933.211 790.621C931.18 789.814 929.858 789.02 929.246 788.238C928.647 787.444 928.348 786.565 928.348 785.602C928.348 784.234 928.908 783.076 930.027 782.125C931.16 781.161 932.534 780.68 934.148 780.68C935.62 780.68 937.221 781.188 938.953 782.203ZM945.613 795.113V798.16C945.613 800.53 944.747 802.372 943.016 803.688V802.281C943.576 801.5 943.855 800.406 943.855 799H943.016V795.113H945.613ZM960.203 781.031V782.047C962.013 781.135 963.816 780.68 965.613 780.68C968.165 780.68 970.281 781.559 971.961 783.316C973.641 785.074 974.48 787.288 974.48 789.957C974.48 792.587 973.615 794.814 971.883 796.637C970.151 798.447 968.035 799.352 965.535 799.352C963.803 799.352 962.026 798.902 960.203 798.004V808.199H958.289V781.031H960.203ZM960.203 783.883V796.129C961.831 797.027 963.484 797.477 965.164 797.477C967.312 797.477 969.051 796.799 970.379 795.445C971.707 794.091 972.371 792.314 972.371 790.113C972.371 787.926 971.668 786.122 970.262 784.703C968.855 783.271 967.078 782.555 964.93 782.555C963.393 782.555 961.818 782.997 960.203 783.883ZM980.887 771.715V799H978.953V771.715H980.887ZM1001.49 789.352H987.332C987.293 789.664 987.273 789.977 987.273 790.289C987.273 792.294 987.99 793.993 989.422 795.387C990.854 796.78 992.547 797.477 994.5 797.477C996.779 797.477 999.005 796.585 1001.18 794.801V796.969C999.122 798.557 996.818 799.352 994.266 799.352C991.674 799.352 989.533 798.453 987.84 796.656C986.147 794.859 985.301 792.574 985.301 789.801C985.301 787.171 986.082 784.996 987.645 783.277C989.207 781.546 991.173 780.68 993.543 780.68C995.77 780.68 997.651 781.461 999.188 783.023C1000.72 784.573 1001.49 786.682 1001.49 789.352ZM987.586 787.809H999.227C998.549 784.306 996.655 782.555 993.543 782.555C992.072 782.555 990.796 783.017 989.715 783.941C988.647 784.853 987.938 786.142 987.586 787.809ZM1019.71 795.875V797.477C1018.06 798.727 1016.85 799.352 1016.08 799.352C1015.64 799.352 1015.33 799.208 1015.16 798.922C1014.99 798.622 1014.87 798.023 1014.79 797.125C1012.9 798.609 1011.03 799.352 1009.17 799.352C1007.81 799.352 1006.67 798.909 1005.73 798.023C1004.79 797.138 1004.32 796.064 1004.32 794.801C1004.32 792.848 1005.23 791.311 1007.04 790.191C1008.85 789.059 1011.43 788.408 1014.79 788.238V785.953C1014.79 783.505 1013.46 782.281 1010.81 782.281C1009.12 782.281 1007.29 783.043 1005.32 784.566V782.594C1007.35 781.318 1009.29 780.68 1011.12 780.68C1012.75 780.68 1014.09 781.083 1015.14 781.891C1016.2 782.685 1016.73 783.844 1016.73 785.367V796.559C1016.73 797.171 1016.87 797.477 1017.16 797.477C1017.52 797.477 1018.37 796.943 1019.71 795.875ZM1014.79 795.445V789.84C1012.33 789.749 1010.29 790.185 1008.66 791.148C1007.05 792.099 1006.24 793.316 1006.24 794.801C1006.24 795.634 1006.58 796.337 1007.25 796.91C1007.93 797.483 1008.78 797.77 1009.79 797.77C1011.43 797.77 1013.1 796.995 1014.79 795.445ZM1032.31 782.203V784.273C1030.49 783.049 1028.85 782.438 1027.39 782.438C1026.31 782.438 1025.4 782.73 1024.66 783.316C1023.91 783.902 1023.54 784.625 1023.54 785.484C1023.54 786.096 1023.76 786.663 1024.21 787.184C1024.66 787.691 1025.91 788.336 1027.94 789.117C1029.98 789.898 1031.32 790.712 1031.94 791.559C1032.57 792.405 1032.88 793.349 1032.88 794.391C1032.88 795.784 1032.31 796.962 1031.18 797.926C1030.05 798.876 1028.65 799.352 1026.98 799.352C1025.17 799.352 1023.37 798.805 1021.59 797.711V795.836C1023.71 796.93 1025.59 797.477 1027.23 797.477C1028.34 797.477 1029.25 797.184 1029.95 796.598C1030.67 796.012 1031.02 795.263 1031.02 794.352C1031.02 793.727 1030.79 793.154 1030.32 792.633C1029.86 792.099 1028.61 791.428 1026.57 790.621C1024.54 789.814 1023.22 789.02 1022.61 788.238C1022.01 787.444 1021.71 786.565 1021.71 785.602C1021.71 784.234 1022.27 783.076 1023.39 782.125C1024.52 781.161 1025.89 780.68 1027.51 780.68C1028.98 780.68 1030.58 781.188 1032.31 782.203ZM1051.92 789.352H1037.76C1037.72 789.664 1037.7 789.977 1037.7 790.289C1037.7 792.294 1038.42 793.993 1039.85 795.387C1041.28 796.78 1042.98 797.477 1044.93 797.477C1047.21 797.477 1049.43 796.585 1051.61 794.801V796.969C1049.55 798.557 1047.25 799.352 1044.7 799.352C1042.1 799.352 1039.96 798.453 1038.27 796.656C1036.58 794.859 1035.73 792.574 1035.73 789.801C1035.73 787.171 1036.51 784.996 1038.07 783.277C1039.64 781.546 1041.6 780.68 1043.97 780.68C1046.2 780.68 1048.08 781.461 1049.62 783.023C1051.15 784.573 1051.92 786.682 1051.92 789.352ZM1038.02 787.809H1049.66C1048.98 784.306 1047.08 782.555 1043.97 782.555C1042.5 782.555 1041.23 783.017 1040.14 783.941C1039.08 784.853 1038.37 786.142 1038.02 787.809ZM1079.6 781.559V783.688C1077.88 782.932 1076.32 782.555 1074.93 782.555C1072.92 782.555 1071.29 783.251 1070.03 784.645C1068.78 786.038 1068.15 787.848 1068.15 790.074C1068.15 792.34 1068.78 794.143 1070.03 795.484C1071.29 796.812 1072.98 797.477 1075.09 797.477C1076.62 797.477 1078.24 797.132 1079.93 796.441V798.434C1078.13 799.046 1076.47 799.352 1074.93 799.352C1072.3 799.352 1070.17 798.518 1068.54 796.852C1066.93 795.185 1066.12 792.997 1066.12 790.289C1066.12 787.464 1066.93 785.159 1068.56 783.375C1070.2 781.578 1072.29 780.68 1074.83 780.68C1076.23 780.68 1077.81 780.973 1079.6 781.559ZM1091.96 780.68C1094.57 780.68 1096.73 781.572 1098.46 783.355C1100.21 785.139 1101.08 787.366 1101.08 790.035C1101.08 792.691 1100.21 794.911 1098.46 796.695C1096.73 798.466 1094.57 799.352 1091.96 799.352C1089.36 799.352 1087.18 798.466 1085.42 796.695C1083.67 794.911 1082.8 792.691 1082.8 790.035C1082.8 787.366 1083.67 785.139 1085.42 783.355C1087.18 781.572 1089.36 780.68 1091.96 780.68ZM1091.96 797.477C1093.98 797.477 1095.67 796.773 1097.02 795.367C1098.37 793.948 1099.05 792.171 1099.05 790.035C1099.05 787.913 1098.37 786.135 1097 784.703C1095.65 783.271 1093.97 782.555 1091.96 782.555C1089.93 782.555 1088.23 783.264 1086.86 784.684C1085.51 786.103 1084.83 787.887 1084.83 790.035C1084.83 792.171 1085.51 793.948 1086.86 795.367C1088.23 796.773 1089.93 797.477 1091.96 797.477ZM1107.2 781.031V784.156H1107.27C1108.77 781.839 1110.74 780.68 1113.19 780.68C1115.22 780.68 1116.84 781.331 1118.05 782.633C1119.27 783.935 1119.87 785.738 1119.87 788.043V799H1117.96V788.766C1117.96 784.625 1116.33 782.555 1113.07 782.555C1110.69 782.555 1108.73 783.837 1107.2 786.402V799H1105.28V781.031H1107.2ZM1128.41 775.074V781.031H1133.45V782.594H1128.41V793.277C1128.41 794.996 1128.54 796.129 1128.82 796.676C1129.1 797.21 1129.86 797.477 1131.08 797.477C1132.02 797.477 1133.11 797.184 1134.36 796.598V798.434C1133.1 799.046 1131.86 799.352 1130.65 799.352C1129.47 799.352 1128.48 799.013 1127.68 798.336C1126.89 797.659 1126.49 796.721 1126.49 795.523V782.594H1121.65V781.031H1126.49V776.754L1127.8 775.074H1128.41ZM1151.32 795.875V797.477C1149.66 798.727 1148.45 799.352 1147.68 799.352C1147.24 799.352 1146.93 799.208 1146.77 798.922C1146.6 798.622 1146.47 798.023 1146.39 797.125C1144.51 798.609 1142.63 799.352 1140.77 799.352C1139.42 799.352 1138.27 798.909 1137.33 798.023C1136.39 797.138 1135.93 796.064 1135.93 794.801C1135.93 792.848 1136.83 791.311 1138.64 790.191C1140.45 789.059 1143.04 788.408 1146.39 788.238V785.953C1146.39 783.505 1145.07 782.281 1142.41 782.281C1140.72 782.281 1138.89 783.043 1136.92 784.566V782.594C1138.95 781.318 1140.89 780.68 1142.72 780.68C1144.35 780.68 1145.69 781.083 1146.75 781.891C1147.8 782.685 1148.33 783.844 1148.33 785.367V796.559C1148.33 797.171 1148.47 797.477 1148.76 797.477C1149.12 797.477 1149.98 796.943 1151.32 795.875ZM1146.39 795.445V789.84C1143.93 789.749 1141.89 790.185 1140.26 791.148C1138.65 792.099 1137.84 793.316 1137.84 794.801C1137.84 795.634 1138.18 796.337 1138.86 796.91C1139.53 797.483 1140.38 797.77 1141.39 797.77C1143.04 797.77 1144.7 796.995 1146.39 795.445ZM1166.71 781.559V783.688C1164.99 782.932 1163.43 782.555 1162.04 782.555C1160.03 782.555 1158.4 783.251 1157.14 784.645C1155.89 786.038 1155.26 787.848 1155.26 790.074C1155.26 792.34 1155.89 794.143 1157.14 795.484C1158.4 796.812 1160.09 797.477 1162.2 797.477C1163.73 797.477 1165.35 797.132 1167.04 796.441V798.434C1165.24 799.046 1163.58 799.352 1162.04 799.352C1159.41 799.352 1157.28 798.518 1155.65 796.852C1154.04 795.185 1153.23 792.997 1153.23 790.289C1153.23 787.464 1154.04 785.159 1155.67 783.375C1157.31 781.578 1159.4 780.68 1161.94 780.68C1163.33 780.68 1164.92 780.973 1166.71 781.559ZM1174.23 775.074V781.031H1179.27V782.594H1174.23V793.277C1174.23 794.996 1174.36 796.129 1174.64 796.676C1174.92 797.21 1175.68 797.477 1176.9 797.477C1177.84 797.477 1178.93 797.184 1180.18 796.598V798.434C1178.92 799.046 1177.68 799.352 1176.47 799.352C1175.29 799.352 1174.3 799.013 1173.5 798.336C1172.71 797.659 1172.31 796.721 1172.31 795.523V782.594H1167.47V781.031H1172.31V776.754L1173.62 775.074H1174.23ZM732 816.715V819.996H730.066V816.715H732ZM732 826.031V844H730.066V826.031H732ZM739.207 826.031V829.156H739.285C740.783 826.839 742.755 825.68 745.203 825.68C747.234 825.68 748.855 826.331 750.066 827.633C751.277 828.935 751.883 830.738 751.883 833.043V844H749.969V833.766C749.969 829.625 748.341 827.555 745.086 827.555C742.703 827.555 740.743 828.837 739.207 831.402V844H737.293V826.031H739.207ZM767.703 817.125V818.922C766.414 818.466 765.333 818.238 764.461 818.238C761.557 818.238 760.105 820.094 760.105 823.805V826.031H763.582V827.594H760.105V844H758.191V827.594H754.871V826.031H758.191V823.082C758.191 821.012 758.79 819.378 759.988 818.18C761.199 816.969 762.677 816.363 764.422 816.363C765.372 816.363 766.466 816.617 767.703 817.125ZM774.48 825.68C777.085 825.68 779.253 826.572 780.984 828.355C782.729 830.139 783.602 832.366 783.602 835.035C783.602 837.691 782.729 839.911 780.984 841.695C779.253 843.466 777.085 844.352 774.48 844.352C771.876 844.352 769.695 843.466 767.938 841.695C766.193 839.911 765.32 837.691 765.32 835.035C765.32 832.366 766.193 830.139 767.938 828.355C769.695 826.572 771.876 825.68 774.48 825.68ZM774.48 842.477C776.499 842.477 778.185 841.773 779.539 840.367C780.893 838.948 781.57 837.171 781.57 835.035C781.57 832.913 780.887 831.135 779.52 829.703C778.165 828.271 776.486 827.555 774.48 827.555C772.449 827.555 770.75 828.264 769.383 829.684C768.029 831.103 767.352 832.887 767.352 835.035C767.352 837.171 768.029 838.948 769.383 840.367C770.75 841.773 772.449 842.477 774.48 842.477ZM807.645 823.805H810.086L806.766 839.488C806.609 840.165 806.531 840.654 806.531 840.953C806.531 841.539 806.85 841.832 807.488 841.832C809.051 841.832 810.711 840.764 812.469 838.629C814.24 836.48 815.125 833.792 815.125 830.562C815.125 826.969 814.012 823.974 811.785 821.578C809.559 819.169 806.323 817.965 802.078 817.965C797.651 817.965 794.012 819.43 791.16 822.359C788.309 825.289 786.883 829.039 786.883 833.609C786.883 838.115 788.302 841.767 791.141 844.566C793.979 847.366 797.69 848.766 802.273 848.766C807.99 848.766 812.365 846.734 815.398 842.672H817.391C815.919 845.159 813.836 847.06 811.141 848.375C808.445 849.703 805.477 850.367 802.234 850.367C797.169 850.367 793.068 848.818 789.93 845.719C786.805 842.62 785.242 838.564 785.242 833.551C785.242 828.694 786.759 824.618 789.793 821.324C792.84 818.017 797.013 816.363 802.312 816.363C806.844 816.363 810.385 817.73 812.938 820.465C815.49 823.186 816.766 826.552 816.766 830.562C816.766 834.221 815.672 837.314 813.484 839.84C811.31 842.353 809.044 843.609 806.688 843.609C805.112 843.609 804.324 842.88 804.324 841.422C804.324 841.031 804.376 840.582 804.48 840.074L804.402 839.996C802.397 842.405 800.197 843.609 797.801 843.609C795.874 843.609 794.266 842.828 792.977 841.266C791.688 839.703 791.043 837.737 791.043 835.367C791.043 832.177 792.026 829.371 793.992 826.949C795.958 824.527 798.322 823.316 801.082 823.316C803.777 823.316 805.724 824.573 806.922 827.086H807L807.645 823.805ZM798.523 841.715C800.555 841.715 802.312 840.484 803.797 838.023C805.294 835.549 806.043 833.062 806.043 830.562C806.043 828.961 805.568 827.639 804.617 826.598C803.68 825.556 802.488 825.035 801.043 825.035C798.829 825.035 797.02 826.155 795.613 828.395C794.22 830.634 793.523 832.997 793.523 835.484C793.523 837.281 793.999 838.772 794.949 839.957C795.9 841.129 797.091 841.715 798.523 841.715ZM834.383 826.031L826.668 844.352H825.477L817.312 826.031H819.266L826.023 841.168L832.508 826.031H834.383ZM838.816 826.031V827.047C840.626 826.135 842.43 825.68 844.227 825.68C846.779 825.68 848.895 826.559 850.574 828.316C852.254 830.074 853.094 832.288 853.094 834.957C853.094 837.587 852.228 839.814 850.496 841.637C848.764 843.447 846.648 844.352 844.148 844.352C842.417 844.352 840.639 843.902 838.816 843.004V853.199H836.902V826.031H838.816ZM838.816 828.883V841.129C840.444 842.027 842.098 842.477 843.777 842.477C845.926 842.477 847.664 841.799 848.992 840.445C850.32 839.091 850.984 837.314 850.984 835.113C850.984 832.926 850.281 831.122 848.875 829.703C847.469 828.271 845.691 827.555 843.543 827.555C842.007 827.555 840.431 827.997 838.816 828.883ZM869.93 826.559V828.688C868.211 827.932 866.655 827.555 865.262 827.555C863.257 827.555 861.622 828.251 860.359 829.645C859.109 831.038 858.484 832.848 858.484 835.074C858.484 837.34 859.109 839.143 860.359 840.484C861.622 841.812 863.309 842.477 865.418 842.477C866.954 842.477 868.569 842.132 870.262 841.441V843.434C868.465 844.046 866.798 844.352 865.262 844.352C862.632 844.352 860.503 843.518 858.875 841.852C857.26 840.185 856.453 837.997 856.453 835.289C856.453 832.464 857.267 830.159 858.895 828.375C860.535 826.578 862.625 825.68 865.164 825.68C866.557 825.68 868.146 825.973 869.93 826.559ZM886.609 826.559V828.688C884.891 827.932 883.335 827.555 881.941 827.555C879.936 827.555 878.302 828.251 877.039 829.645C875.789 831.038 875.164 832.848 875.164 835.074C875.164 837.34 875.789 839.143 877.039 840.484C878.302 841.812 879.988 842.477 882.098 842.477C883.634 842.477 885.249 842.132 886.941 841.441V843.434C885.145 844.046 883.478 844.352 881.941 844.352C879.311 844.352 877.182 843.518 875.555 841.852C873.94 840.185 873.133 837.997 873.133 835.289C873.133 832.464 873.947 830.159 875.574 828.375C877.215 826.578 879.305 825.68 881.844 825.68C883.237 825.68 884.826 825.973 886.609 826.559ZM893.992 840.113V844H891.395V840.113H893.992ZM911.375 826.559V828.688C909.656 827.932 908.1 827.555 906.707 827.555C904.702 827.555 903.068 828.251 901.805 829.645C900.555 831.038 899.93 832.848 899.93 835.074C899.93 837.34 900.555 839.143 901.805 840.484C903.068 841.812 904.754 842.477 906.863 842.477C908.4 842.477 910.014 842.132 911.707 841.441V843.434C909.91 844.046 908.243 844.352 906.707 844.352C904.077 844.352 901.948 843.518 900.32 841.852C898.706 840.185 897.898 837.997 897.898 835.289C897.898 832.464 898.712 830.159 900.34 828.375C901.98 826.578 904.07 825.68 906.609 825.68C908.003 825.68 909.591 825.973 911.375 826.559ZM917.293 816.715V829.156H917.371C918.868 826.839 920.841 825.68 923.289 825.68C925.32 825.68 926.941 826.331 928.152 827.633C929.363 828.935 929.969 830.725 929.969 833.004V844H928.055V833.766C928.055 829.625 926.427 827.555 923.172 827.555C920.841 827.555 918.882 828.837 917.293 831.402V844H915.379V816.715H917.293ZM947.664 844V841.031H947.586C946.753 842.229 945.893 843.082 945.008 843.59C944.135 844.098 943.022 844.352 941.668 844.352C939.741 844.352 938.146 843.727 936.883 842.477C935.62 841.227 934.988 839.456 934.988 837.164V826.031H936.902V837.125C936.902 838.792 937.358 840.1 938.27 841.051C939.181 842.001 940.366 842.477 941.824 842.477C943.074 842.477 944.135 842.19 945.008 841.617C945.893 841.044 946.779 840.055 947.664 838.648V826.031H949.578V844H947.664ZM967.039 827.809L965.926 829.605C964.428 828.238 963.224 827.555 962.312 827.555C960.516 827.555 958.595 829.273 956.551 832.711V844H954.637V826.031H956.551V830.758H956.629C958.777 827.372 960.874 825.68 962.918 825.68C964.09 825.68 965.464 826.389 967.039 827.809ZM980.594 826.559V828.688C978.875 827.932 977.319 827.555 975.926 827.555C973.921 827.555 972.286 828.251 971.023 829.645C969.773 831.038 969.148 832.848 969.148 835.074C969.148 837.34 969.773 839.143 971.023 840.484C972.286 841.812 973.973 842.477 976.082 842.477C977.618 842.477 979.233 842.132 980.926 841.441V843.434C979.129 844.046 977.462 844.352 975.926 844.352C973.296 844.352 971.167 843.518 969.539 841.852C967.924 840.185 967.117 837.997 967.117 835.289C967.117 832.464 967.931 830.159 969.559 828.375C971.199 826.578 973.289 825.68 975.828 825.68C977.221 825.68 978.81 825.973 980.594 826.559ZM986.512 816.715V829.156H986.59C988.087 826.839 990.06 825.68 992.508 825.68C994.539 825.68 996.16 826.331 997.371 827.633C998.582 828.935 999.188 830.725 999.188 833.004V844H997.273V833.766C997.273 829.625 995.646 827.555 992.391 827.555C990.06 827.555 988.1 828.837 986.512 831.402V844H984.598V816.715H986.512Z" fill="black"/>
<path d="M680.156 346.516L652.734 412.656H651.281L623.719 346.516H628.828L652.031 401.922L675.094 346.516H680.156ZM691.875 346.516V354.391H687.234V346.516H691.875ZM691.875 368.875V412H687.234V368.875H691.875ZM735 370.141V375.25C730.875 373.438 727.141 372.531 723.797 372.531C718.984 372.531 715.062 374.203 712.031 377.547C709.031 380.891 707.531 385.234 707.531 390.578C707.531 396.016 709.031 400.344 712.031 403.562C715.062 406.75 719.109 408.344 724.172 408.344C727.859 408.344 731.734 407.516 735.797 405.859V410.641C731.484 412.109 727.484 412.844 723.797 412.844C717.484 412.844 712.375 410.844 708.469 406.844C704.594 402.844 702.656 397.594 702.656 391.094C702.656 384.312 704.609 378.781 708.516 374.5C712.453 370.188 717.469 368.031 723.562 368.031C726.906 368.031 730.719 368.734 735 370.141ZM753.047 354.578V368.875H765.141V372.625H753.047V398.266C753.047 402.391 753.375 405.109 754.031 406.422C754.719 407.703 756.531 408.344 759.469 408.344C761.719 408.344 764.344 407.641 767.344 406.234V410.641C764.312 412.109 761.344 412.844 758.438 412.844C755.594 412.844 753.219 412.031 751.312 410.406C749.406 408.781 748.453 406.531 748.453 403.656V372.625H736.828V368.875H748.453V358.609L751.594 354.578H753.047ZM793.641 368.031C799.891 368.031 805.094 370.172 809.25 374.453C813.438 378.734 815.531 384.078 815.531 390.484C815.531 396.859 813.438 402.188 809.25 406.469C805.094 410.719 799.891 412.844 793.641 412.844C787.391 412.844 782.156 410.719 777.938 406.469C773.75 402.188 771.656 396.859 771.656 390.484C771.656 384.078 773.75 378.734 777.938 374.453C782.156 370.172 787.391 368.031 793.641 368.031ZM793.641 408.344C798.484 408.344 802.531 406.656 805.781 403.281C809.031 399.875 810.656 395.609 810.656 390.484C810.656 385.391 809.016 381.125 805.734 377.688C802.484 374.25 798.453 372.531 793.641 372.531C788.766 372.531 784.688 374.234 781.406 377.641C778.156 381.047 776.531 385.328 776.531 390.484C776.531 395.609 778.156 399.875 781.406 403.281C784.688 406.656 788.766 408.344 793.641 408.344ZM855.469 373.141L852.797 377.453C849.203 374.172 846.312 372.531 844.125 372.531C839.812 372.531 835.203 376.656 830.297 384.906V412H825.703V368.875H830.297V380.219H830.484C835.641 372.094 840.672 368.031 845.578 368.031C848.391 368.031 851.688 369.734 855.469 373.141ZM865.406 346.516V354.391H860.766V346.516H865.406ZM865.406 368.875V412H860.766V368.875H865.406ZM912.562 404.5V408.344C908.594 411.344 905.688 412.844 903.844 412.844C902.781 412.844 902.047 412.5 901.641 411.812C901.234 411.094 900.938 409.656 900.75 407.5C896.219 411.062 891.719 412.844 887.25 412.844C884 412.844 881.25 411.781 879 409.656C876.75 407.531 875.625 404.953 875.625 401.922C875.625 397.234 877.797 393.547 882.141 390.859C886.484 388.141 892.688 386.578 900.75 386.172V380.688C900.75 374.812 897.562 371.875 891.188 371.875C887.125 371.875 882.734 373.703 878.016 377.359V372.625C882.891 369.562 887.531 368.031 891.938 368.031C895.844 368.031 899.062 369 901.594 370.938C904.125 372.844 905.391 375.625 905.391 379.281V406.141C905.391 407.609 905.734 408.344 906.422 408.344C907.297 408.344 909.344 407.062 912.562 404.5ZM900.75 403.469V390.016C894.844 389.797 889.938 390.844 886.031 393.156C882.156 395.438 880.219 398.359 880.219 401.922C880.219 403.922 881.031 405.609 882.656 406.984C884.281 408.359 886.312 409.047 888.75 409.047C892.688 409.047 896.688 407.188 900.75 403.469ZM947.344 346.516H965.391C972.297 346.516 977.578 348.062 981.234 351.156C984.922 354.25 986.766 358.469 986.766 363.812C986.766 369.219 984.906 373.5 981.188 376.656C977.5 379.812 972.078 381.391 964.922 381.391H952.406V412H947.344V346.516ZM952.406 350.734V377.172H964.594C970.062 377.172 974.219 376.016 977.062 373.703C979.906 371.391 981.328 368.125 981.328 363.906C981.328 359.875 979.938 356.672 977.156 354.297C974.375 351.922 970.391 350.734 965.203 350.734H952.406ZM1027.22 404.5V408.344C1023.25 411.344 1020.34 412.844 1018.5 412.844C1017.44 412.844 1016.7 412.5 1016.3 411.812C1015.89 411.094 1015.59 409.656 1015.41 407.5C1010.88 411.062 1006.38 412.844 1001.91 412.844C998.656 412.844 995.906 411.781 993.656 409.656C991.406 407.531 990.281 404.953 990.281 401.922C990.281 397.234 992.453 393.547 996.797 390.859C1001.14 388.141 1007.34 386.578 1015.41 386.172V380.688C1015.41 374.812 1012.22 371.875 1005.84 371.875C1001.78 371.875 997.391 373.703 992.672 377.359V372.625C997.547 369.562 1002.19 368.031 1006.59 368.031C1010.5 368.031 1013.72 369 1016.25 370.938C1018.78 372.844 1020.05 375.625 1020.05 379.281V406.141C1020.05 407.609 1020.39 408.344 1021.08 408.344C1021.95 408.344 1024 407.062 1027.22 404.5ZM1015.41 403.469V390.016C1009.5 389.797 1004.59 390.844 1000.69 393.156C996.812 395.438 994.875 398.359 994.875 401.922C994.875 403.922 995.688 405.609 997.312 406.984C998.938 408.359 1000.97 409.047 1003.41 409.047C1007.34 409.047 1011.34 407.188 1015.41 403.469ZM1063.59 373.141L1060.92 377.453C1057.33 374.172 1054.44 372.531 1052.25 372.531C1047.94 372.531 1043.33 376.656 1038.42 384.906V412H1033.83V368.875H1038.42V380.219H1038.61C1043.77 372.094 1048.8 368.031 1053.7 368.031C1056.52 368.031 1059.81 369.734 1063.59 373.141ZM1073.86 346.516V412H1069.27V346.516H1073.86ZM1104.38 368.875L1080.8 389.359L1108.03 412H1101.7L1074.52 389.359L1098.33 368.875H1104.38ZM551.25 460.156V465.688C543.312 461.469 535.531 459.359 527.906 459.359C519.781 459.359 512.984 462.125 507.516 467.656C502.047 473.188 499.312 480.094 499.312 488.375C499.312 496.75 502.062 503.641 507.562 509.047C513.062 514.453 520.078 517.156 528.609 517.156C535.734 517.156 543.5 514.922 551.906 510.453V515.703C544.156 519.797 536.422 521.844 528.703 521.844C518.734 521.844 510.422 518.656 503.766 512.281C497.141 505.875 493.828 497.906 493.828 488.375C493.828 478.781 497.219 470.766 504 464.328C510.781 457.891 518.859 454.672 528.234 454.672C535.609 454.672 543.281 456.5 551.25 460.156ZM580.125 477.031C586.375 477.031 591.578 479.172 595.734 483.453C599.922 487.734 602.016 493.078 602.016 499.484C602.016 505.859 599.922 511.188 595.734 515.469C591.578 519.719 586.375 521.844 580.125 521.844C573.875 521.844 568.641 519.719 564.422 515.469C560.234 511.188 558.141 505.859 558.141 499.484C558.141 493.078 560.234 487.734 564.422 483.453C568.641 479.172 573.875 477.031 580.125 477.031ZM580.125 517.344C584.969 517.344 589.016 515.656 592.266 512.281C595.516 508.875 597.141 504.609 597.141 499.484C597.141 494.391 595.5 490.125 592.219 486.688C588.969 483.25 584.938 481.531 580.125 481.531C575.25 481.531 571.172 483.234 567.891 486.641C564.641 490.047 563.016 494.328 563.016 499.484C563.016 504.609 564.641 508.875 567.891 512.281C571.172 515.656 575.25 517.344 580.125 517.344ZM616.5 477.875V485.469H616.688C620.188 479.844 624.766 477.031 630.422 477.031C637.016 477.031 641.656 480.484 644.344 487.391C648.406 480.484 653.406 477.031 659.344 477.031C663.812 477.031 667.422 478.625 670.172 481.812C672.922 485 674.297 489.234 674.297 494.516V521H669.703V496.531C669.703 491.875 668.719 488.219 666.75 485.562C664.781 482.875 662.016 481.531 658.453 481.531C655.797 481.531 653.484 482.328 651.516 483.922C649.547 485.516 647.516 488.078 645.422 491.609V521H640.781V496.438C640.781 491.656 639.75 487.984 637.688 485.422C635.656 482.828 632.922 481.531 629.484 481.531C624.484 481.531 620.156 484.609 616.5 490.766V521H611.906V477.875H616.5ZM690.562 477.875V485.469H690.75C694.25 479.844 698.828 477.031 704.484 477.031C711.078 477.031 715.719 480.484 718.406 487.391C722.469 480.484 727.469 477.031 733.406 477.031C737.875 477.031 741.484 478.625 744.234 481.812C746.984 485 748.359 489.234 748.359 494.516V521H743.766V496.531C743.766 491.875 742.781 488.219 740.812 485.562C738.844 482.875 736.078 481.531 732.516 481.531C729.859 481.531 727.547 482.328 725.578 483.922C723.609 485.516 721.578 488.078 719.484 491.609V521H714.844V496.438C714.844 491.656 713.812 487.984 711.75 485.422C709.719 482.828 706.984 481.531 703.547 481.531C698.547 481.531 694.219 484.609 690.562 490.766V521H685.969V477.875H690.562ZM789.141 521V513.875H788.953C786.953 516.75 784.891 518.797 782.766 520.016C780.672 521.234 778 521.844 774.75 521.844C770.125 521.844 766.297 520.344 763.266 517.344C760.234 514.344 758.719 510.094 758.719 504.594V477.875H763.312V504.5C763.312 508.5 764.406 511.641 766.594 513.922C768.781 516.203 771.625 517.344 775.125 517.344C778.125 517.344 780.672 516.656 782.766 515.281C784.891 513.906 787.016 511.531 789.141 508.156V477.875H793.734V521H789.141ZM810.375 477.875V485.375H810.562C814.156 479.812 818.891 477.031 824.766 477.031C829.641 477.031 833.531 478.594 836.438 481.719C839.344 484.844 840.797 489.172 840.797 494.703V521H836.203V496.438C836.203 486.5 832.297 481.531 824.484 481.531C818.766 481.531 814.062 484.609 810.375 490.766V521H805.781V477.875H810.375ZM858.234 455.516V463.391H853.594V455.516H858.234ZM858.234 477.875V521H853.594V477.875H858.234ZM879.375 463.578V477.875H891.469V481.625H879.375V507.266C879.375 511.391 879.703 514.109 880.359 515.422C881.047 516.703 882.859 517.344 885.797 517.344C888.047 517.344 890.672 516.641 893.672 515.234V519.641C890.641 521.109 887.672 521.844 884.766 521.844C881.922 521.844 879.547 521.031 877.641 519.406C875.734 517.781 874.781 515.531 874.781 512.656V481.625H863.156V477.875H874.781V467.609L877.922 463.578H879.375ZM934.547 477.875L902.297 543.078H897.609L912.656 512.656L894.516 477.875H899.344L915 508.062L929.859 477.875H934.547ZM1022.81 460.156V465.688C1014.88 461.469 1007.09 459.359 999.469 459.359C991.344 459.359 984.547 462.125 979.078 467.656C973.609 473.188 970.875 480.094 970.875 488.375C970.875 496.75 973.625 503.641 979.125 509.047C984.625 514.453 991.641 517.156 1000.17 517.156C1007.3 517.156 1015.06 514.922 1023.47 510.453V515.703C1015.72 519.797 1007.98 521.844 1000.27 521.844C990.297 521.844 981.984 518.656 975.328 512.281C968.703 505.875 965.391 497.906 965.391 488.375C965.391 478.781 968.781 470.766 975.562 464.328C982.344 457.891 990.422 454.672 999.797 454.672C1007.17 454.672 1014.84 456.5 1022.81 460.156ZM1036.22 455.516V485.375H1036.41C1040 479.812 1044.73 477.031 1050.61 477.031C1055.48 477.031 1059.38 478.594 1062.28 481.719C1065.19 484.844 1066.64 489.141 1066.64 494.609V521H1062.05V496.438C1062.05 486.5 1058.14 481.531 1050.33 481.531C1044.73 481.531 1040.03 484.609 1036.22 490.766V521H1031.62V455.516H1036.22ZM1109.11 521V513.875H1108.92C1106.92 516.75 1104.86 518.797 1102.73 520.016C1100.64 521.234 1097.97 521.844 1094.72 521.844C1090.09 521.844 1086.27 520.344 1083.23 517.344C1080.2 514.344 1078.69 510.094 1078.69 504.594V477.875H1083.28V504.5C1083.28 508.5 1084.38 511.641 1086.56 513.922C1088.75 516.203 1091.59 517.344 1095.09 517.344C1098.09 517.344 1100.64 516.656 1102.73 515.281C1104.86 513.906 1106.98 511.531 1109.11 508.156V477.875H1113.7V521H1109.11ZM1155.61 482.141L1152.94 486.453C1149.34 483.172 1146.45 481.531 1144.27 481.531C1139.95 481.531 1135.34 485.656 1130.44 493.906V521H1125.84V477.875H1130.44V489.219H1130.62C1135.78 481.094 1140.81 477.031 1145.72 477.031C1148.53 477.031 1151.83 478.734 1155.61 482.141ZM1188.14 479.141V484.25C1184.02 482.438 1180.28 481.531 1176.94 481.531C1172.12 481.531 1168.2 483.203 1165.17 486.547C1162.17 489.891 1160.67 494.234 1160.67 499.578C1160.67 505.016 1162.17 509.344 1165.17 512.562C1168.2 515.75 1172.25 517.344 1177.31 517.344C1181 517.344 1184.88 516.516 1188.94 514.859V519.641C1184.62 521.109 1180.62 521.844 1176.94 521.844C1170.62 521.844 1165.52 519.844 1161.61 515.844C1157.73 511.844 1155.8 506.594 1155.8 500.094C1155.8 493.312 1157.75 487.781 1161.66 483.5C1165.59 479.188 1170.61 477.031 1176.7 477.031C1180.05 477.031 1183.86 477.734 1188.14 479.141ZM1202.34 455.516V485.375H1202.53C1206.12 479.812 1210.86 477.031 1216.73 477.031C1221.61 477.031 1225.5 478.594 1228.41 481.719C1231.31 484.844 1232.77 489.141 1232.77 494.609V521H1228.17V496.438C1228.17 486.5 1224.27 481.531 1216.45 481.531C1210.86 481.531 1206.16 484.609 1202.34 490.766V521H1197.75V455.516H1202.34Z" fill="#40AB2F"/>
</svg>
