<svg width="750" height="592" viewBox="0 0 750 592" fill="none" xmlns="http://www.w3.org/2000/svg">
<path d="M272.605 10.7148L279.402 27.5508L286.551 10.7148H291.004L298.191 27.6094L304.969 10.7148H310.359L299.129 38.3516H297.352L288.758 18.1172L280.125 38.3516H278.406L267.156 10.7148H272.605ZM318.66 19.4062C321.342 19.4062 323.465 20.2656 325.027 21.9844C326.59 23.7031 327.371 26.0794 327.371 29.1133V29.8359H314.461C314.656 31.4635 315.262 32.7201 316.277 33.6055C317.306 34.4779 318.712 34.9141 320.496 34.9141C321.642 34.9141 322.742 34.7188 323.797 34.3281C324.865 33.9245 325.965 33.319 327.098 32.5117V36.0859C324.962 37.5964 322.371 38.3516 319.324 38.3516C316.447 38.3516 314.096 37.4857 312.273 35.7539C310.451 34.0221 309.539 31.7174 309.539 28.8398C309.539 26.0664 310.379 23.8008 312.059 22.043C313.751 20.2852 315.952 19.4062 318.66 19.4062ZM322.859 26.9258C322.729 25.5977 322.326 24.5625 321.648 23.8203C320.971 23.0651 320.04 22.6875 318.855 22.6875C317.645 22.6875 316.668 23.0456 315.926 23.7617C315.197 24.4779 314.734 25.5326 314.539 26.9258H322.859ZM336.121 10.7148V38H331.316V10.7148H336.121ZM349.832 19.4062C351.954 19.4062 353.875 19.8164 355.594 20.6367V24.7188C353.888 23.7292 352.273 23.2344 350.75 23.2344C349.109 23.2344 347.768 23.7487 346.727 24.7773C345.685 25.793 345.164 27.1732 345.164 28.918C345.164 30.6237 345.685 31.9974 346.727 33.0391C347.781 34.0807 349.181 34.6016 350.926 34.6016C352.228 34.6016 353.895 34.1719 355.926 33.3125V37.1992C354.038 37.9674 352.091 38.3516 350.086 38.3516C347.13 38.3516 344.728 37.5052 342.879 35.8125C341.043 34.1198 340.125 31.8737 340.125 29.0742C340.125 26.1706 341.023 23.8333 342.82 22.0625C344.63 20.2917 346.967 19.4062 349.832 19.4062ZM368.562 19.4062C370.464 19.4062 372.189 19.8034 373.738 20.5977C375.288 21.3919 376.486 22.5052 377.332 23.9375C378.178 25.3698 378.602 26.9909 378.602 28.8008C378.602 30.6888 378.191 32.3424 377.371 33.7617C376.564 35.181 375.366 36.3008 373.777 37.1211C372.202 37.9414 370.464 38.3516 368.562 38.3516C366.648 38.3516 364.91 37.9414 363.348 37.1211C361.785 36.3008 360.594 35.181 359.773 33.7617C358.966 32.3424 358.562 30.6888 358.562 28.8008C358.562 26.9648 358.992 25.3372 359.852 23.918C360.711 22.4857 361.909 21.3789 363.445 20.5977C364.982 19.8034 366.688 19.4062 368.562 19.4062ZM363.602 28.8008C363.602 30.6237 364.044 32.082 364.93 33.1758C365.828 34.2565 367.026 34.7969 368.523 34.7969C370.086 34.7969 371.316 34.276 372.215 33.2344C373.113 32.1927 373.562 30.7018 373.562 28.7617C373.562 26.9128 373.107 25.487 372.195 24.4844C371.297 23.4688 370.073 22.9609 368.523 22.9609C367.065 22.9609 365.88 23.4948 364.969 24.5625C364.057 25.6302 363.602 27.043 363.602 28.8008ZM393.016 19.4062C394.422 19.4062 395.607 19.7383 396.57 20.4023C397.547 21.0534 398.276 21.9323 398.758 23.0391C399.786 21.776 400.809 20.8581 401.824 20.2852C402.853 19.6992 403.979 19.4062 405.203 19.4062C407.13 19.4062 408.686 20.0378 409.871 21.3008C411.056 22.5508 411.648 24.224 411.648 26.3203V38H406.844V27.1211C406.844 25.8581 406.57 24.862 406.023 24.1328C405.49 23.4036 404.708 23.0391 403.68 23.0391C402.208 23.0391 400.796 23.9831 399.441 25.8711V38H394.656V27.043C394.656 25.793 394.37 24.8164 393.797 24.1133C393.224 23.3971 392.456 23.0391 391.492 23.0391C390.711 23.0391 389.995 23.2669 389.344 23.7227C388.693 24.1654 387.996 24.8815 387.254 25.8711V38H382.449V19.7578H387.254V22.3164C388.126 21.3268 389.012 20.5977 389.91 20.1289C390.809 19.6471 391.844 19.4062 393.016 19.4062ZM424.48 19.4062C427.163 19.4062 429.285 20.2656 430.848 21.9844C432.41 23.7031 433.191 26.0794 433.191 29.1133V29.8359H420.281C420.477 31.4635 421.082 32.7201 422.098 33.6055C423.126 34.4779 424.533 34.9141 426.316 34.9141C427.462 34.9141 428.562 34.7188 429.617 34.3281C430.685 33.9245 431.785 33.319 432.918 32.5117V36.0859C430.783 37.5964 428.191 38.3516 425.145 38.3516C422.267 38.3516 419.917 37.4857 418.094 35.7539C416.271 34.0221 415.359 31.7174 415.359 28.8398C415.359 26.0664 416.199 23.8008 417.879 22.043C419.572 20.2852 421.772 19.4062 424.48 19.4062ZM428.68 26.9258C428.549 25.5977 428.146 24.5625 427.469 23.8203C426.792 23.0651 425.861 22.6875 424.676 22.6875C423.465 22.6875 422.488 23.0456 421.746 23.7617C421.017 24.4779 420.555 25.5326 420.359 26.9258H428.68ZM453.113 14.9141H453.504V19.7578H459.754V23.3906H453.504V31.8086C453.504 32.6289 453.751 33.293 454.246 33.8008C454.741 34.3086 455.418 34.5625 456.277 34.5625C457.397 34.5625 458.686 34.1589 460.145 33.3516V37.1992C458.413 37.9674 456.785 38.3516 455.262 38.3516C453.204 38.3516 451.596 37.7917 450.438 36.6719C449.292 35.5521 448.719 34.0352 448.719 32.1211V23.3906H445.867V22.6094L453.113 14.9141ZM471.922 19.4062C473.823 19.4062 475.548 19.8034 477.098 20.5977C478.647 21.3919 479.845 22.5052 480.691 23.9375C481.538 25.3698 481.961 26.9909 481.961 28.8008C481.961 30.6888 481.551 32.3424 480.73 33.7617C479.923 35.181 478.725 36.3008 477.137 37.1211C475.561 37.9414 473.823 38.3516 471.922 38.3516C470.008 38.3516 468.27 37.9414 466.707 37.1211C465.145 36.3008 463.953 35.181 463.133 33.7617C462.326 32.3424 461.922 30.6888 461.922 28.8008C461.922 26.9648 462.352 25.3372 463.211 23.918C464.07 22.4857 465.268 21.3789 466.805 20.5977C468.341 19.8034 470.047 19.4062 471.922 19.4062ZM466.961 28.8008C466.961 30.6237 467.404 32.082 468.289 33.1758C469.188 34.2565 470.385 34.7969 471.883 34.7969C473.445 34.7969 474.676 34.276 475.574 33.2344C476.473 32.1927 476.922 30.7018 476.922 28.7617C476.922 26.9128 476.466 25.487 475.555 24.4844C474.656 23.4688 473.432 22.9609 471.883 22.9609C470.424 22.9609 469.24 23.4948 468.328 24.5625C467.417 25.6302 466.961 27.043 466.961 28.8008Z" fill="black"/>
<path d="M13.8398 416.715L20.6367 433.551L27.7852 416.715H32.2383L39.4258 433.609L46.2031 416.715H51.5938L40.3633 444.352H38.5859L29.9922 424.117L21.3594 444.352H19.6406L8.39062 416.715H13.8398ZM59.8945 425.406C62.5768 425.406 64.6992 426.266 66.2617 427.984C67.8242 429.703 68.6055 432.079 68.6055 435.113V435.836H55.6953C55.8906 437.464 56.4961 438.72 57.5117 439.605C58.5404 440.478 59.9466 440.914 61.7305 440.914C62.8763 440.914 63.9766 440.719 65.0312 440.328C66.099 439.924 67.1992 439.319 68.332 438.512V442.086C66.1966 443.596 63.6055 444.352 60.5586 444.352C57.681 444.352 55.3307 443.486 53.5078 441.754C51.6849 440.022 50.7734 437.717 50.7734 434.84C50.7734 432.066 51.6133 429.801 53.293 428.043C54.9857 426.285 57.1862 425.406 59.8945 425.406ZM64.0938 432.926C63.9635 431.598 63.5599 430.562 62.8828 429.82C62.2057 429.065 61.2747 428.688 60.0898 428.688C58.8789 428.688 57.9023 429.046 57.1602 429.762C56.431 430.478 55.9688 431.533 55.7734 432.926H64.0938ZM73.9766 416.363C75.0182 416.363 75.8516 416.754 76.4766 417.535C77.1016 418.303 77.4141 419.326 77.4141 420.602C77.4141 422.32 76.8346 423.85 75.6758 425.191C74.5299 426.52 73.1237 427.307 71.457 427.555V426.52C72.707 425.465 73.332 424.091 73.332 422.398L73.293 421.793C71.8216 421.52 71.0859 420.628 71.0859 419.117C71.0859 418.349 71.3594 417.698 71.9062 417.164C72.4661 416.63 73.1562 416.363 73.9766 416.363ZM91.8477 425.406C92.4857 425.406 93.1107 425.549 93.7227 425.836C94.3477 426.122 95.0703 426.604 95.8906 427.281L94.1719 431.48C92.7786 430.439 91.6589 429.918 90.8125 429.918C90.0703 429.918 89.3346 430.198 88.6055 430.758C87.8893 431.305 87.3099 432.034 86.8672 432.945C86.4375 433.857 86.2227 434.768 86.2227 435.68V444H81.418V425.758H86.2227V430.406H86.3008C87.1732 428.648 88.0521 427.379 88.9375 426.598C89.8229 425.803 90.793 425.406 91.8477 425.406ZM105.48 425.406C108.163 425.406 110.285 426.266 111.848 427.984C113.41 429.703 114.191 432.079 114.191 435.113V435.836H101.281C101.477 437.464 102.082 438.72 103.098 439.605C104.126 440.478 105.533 440.914 107.316 440.914C108.462 440.914 109.562 440.719 110.617 440.328C111.685 439.924 112.785 439.319 113.918 438.512V442.086C111.783 443.596 109.191 444.352 106.145 444.352C103.267 444.352 100.917 443.486 99.0938 441.754C97.2708 440.022 96.3594 437.717 96.3594 434.84C96.3594 432.066 97.1992 429.801 98.8789 428.043C100.572 426.285 102.772 425.406 105.48 425.406ZM109.68 432.926C109.549 431.598 109.146 430.562 108.469 429.82C107.792 429.065 106.861 428.688 105.676 428.688C104.465 428.688 103.488 429.046 102.746 429.762C102.017 430.478 101.555 431.533 101.359 432.926H109.68ZM131.711 425.758L135.949 436.285L140.266 425.758H143.391L147.668 436.285L151.906 425.758H156.906L148.781 444.352H146.75L141.828 433.199L136.906 444.352H134.914L126.711 425.758H131.711ZM168.352 425.406C170.253 425.406 171.978 425.803 173.527 426.598C175.077 427.392 176.275 428.505 177.121 429.938C177.967 431.37 178.391 432.991 178.391 434.801C178.391 436.689 177.98 438.342 177.16 439.762C176.353 441.181 175.155 442.301 173.566 443.121C171.991 443.941 170.253 444.352 168.352 444.352C166.438 444.352 164.699 443.941 163.137 443.121C161.574 442.301 160.383 441.181 159.562 439.762C158.755 438.342 158.352 436.689 158.352 434.801C158.352 432.965 158.781 431.337 159.641 429.918C160.5 428.486 161.698 427.379 163.234 426.598C164.771 425.803 166.477 425.406 168.352 425.406ZM163.391 434.801C163.391 436.624 163.833 438.082 164.719 439.176C165.617 440.257 166.815 440.797 168.312 440.797C169.875 440.797 171.105 440.276 172.004 439.234C172.902 438.193 173.352 436.702 173.352 434.762C173.352 432.913 172.896 431.487 171.984 430.484C171.086 429.469 169.862 428.961 168.312 428.961C166.854 428.961 165.669 429.495 164.758 430.562C163.846 431.63 163.391 433.043 163.391 434.801ZM192.668 425.406C193.306 425.406 193.931 425.549 194.543 425.836C195.168 426.122 195.891 426.604 196.711 427.281L194.992 431.48C193.599 430.439 192.479 429.918 191.633 429.918C190.891 429.918 190.155 430.198 189.426 430.758C188.71 431.305 188.13 432.034 187.688 432.945C187.258 433.857 187.043 434.768 187.043 435.68V444H182.238V425.758H187.043V430.406H187.121C187.993 428.648 188.872 427.379 189.758 426.598C190.643 425.803 191.613 425.406 192.668 425.406ZM203.762 416.715V444H198.957V416.715H203.762ZM217.004 425.758L209.602 434.762L217.922 444H211.828L203.84 434.762L211.359 425.758H217.004ZM222.258 417.32C223 417.32 223.638 417.587 224.172 418.121C224.706 418.655 224.973 419.293 224.973 420.035C224.973 420.751 224.706 421.389 224.172 421.949C223.651 422.496 223.013 422.77 222.258 422.77C221.529 422.77 220.891 422.496 220.344 421.949C219.81 421.389 219.543 420.751 219.543 420.035C219.543 419.28 219.816 418.642 220.363 418.121C220.91 417.587 221.542 417.32 222.258 417.32ZM224.66 425.758V444H219.855V425.758H224.66ZM240.188 425.406C242.141 425.406 243.697 426.051 244.855 427.34C246.027 428.616 246.613 430.302 246.613 432.398V444H241.828V432.887C241.828 431.702 241.542 430.764 240.969 430.074C240.409 429.384 239.641 429.039 238.664 429.039C237.922 429.039 237.225 429.26 236.574 429.703C235.923 430.133 235.207 430.855 234.426 431.871V444H229.621V425.758H234.426V428.316C235.311 427.275 236.216 426.533 237.141 426.09C238.078 425.634 239.094 425.406 240.188 425.406ZM268.098 425.758V429.156H264.973C265.48 429.781 265.832 430.361 266.027 430.895C266.236 431.415 266.34 431.982 266.34 432.594C266.34 434.052 265.793 435.387 264.699 436.598C263.736 437.652 262.082 438.336 259.738 438.648C258.475 438.805 257.635 438.987 257.219 439.195C256.815 439.391 256.613 439.697 256.613 440.113C256.613 440.491 256.861 440.784 257.355 440.992C257.863 441.188 258.671 441.376 259.777 441.559C262.525 442.001 264.543 442.678 265.832 443.59C267.134 444.501 267.785 445.706 267.785 447.203C267.785 449.13 266.997 450.608 265.422 451.637C263.846 452.678 261.581 453.199 258.625 453.199C255.826 453.199 253.599 452.711 251.945 451.734C250.292 450.758 249.465 449.449 249.465 447.809C249.465 445.491 251.06 443.889 254.25 443.004C252.87 442.405 252.18 441.617 252.18 440.641C252.18 439.365 253.221 438.486 255.305 438.004V437.926C253.885 437.535 252.753 436.839 251.906 435.836C251.073 434.833 250.656 433.661 250.656 432.32C250.656 430.354 251.398 428.772 252.883 427.574C254.367 426.363 256.307 425.758 258.703 425.758H268.098ZM255.09 432.359C255.09 433.31 255.422 434.104 256.086 434.742C256.763 435.367 257.583 435.68 258.547 435.68C259.536 435.68 260.35 435.354 260.988 434.703C261.626 434.039 261.945 433.206 261.945 432.203C261.945 431.305 261.613 430.556 260.949 429.957C260.285 429.345 259.484 429.039 258.547 429.039C257.583 429.039 256.763 429.371 256.086 430.035C255.422 430.686 255.09 431.461 255.09 432.359ZM253.938 447.594C253.938 449.221 255.565 450.035 258.82 450.035C260.227 450.035 261.327 449.807 262.121 449.352C262.928 448.909 263.332 448.323 263.332 447.594C263.332 446.786 262.876 446.174 261.965 445.758C261.066 445.354 259.79 445.152 258.137 445.152C256.9 445.152 255.891 445.38 255.109 445.836C254.328 446.305 253.938 446.891 253.938 447.594ZM291.047 425.406C292.948 425.406 294.673 425.803 296.223 426.598C297.772 427.392 298.97 428.505 299.816 429.938C300.663 431.37 301.086 432.991 301.086 434.801C301.086 436.689 300.676 438.342 299.855 439.762C299.048 441.181 297.85 442.301 296.262 443.121C294.686 443.941 292.948 444.352 291.047 444.352C289.133 444.352 287.395 443.941 285.832 443.121C284.27 442.301 283.078 441.181 282.258 439.762C281.451 438.342 281.047 436.689 281.047 434.801C281.047 432.965 281.477 431.337 282.336 429.918C283.195 428.486 284.393 427.379 285.93 426.598C287.466 425.803 289.172 425.406 291.047 425.406ZM286.086 434.801C286.086 436.624 286.529 438.082 287.414 439.176C288.312 440.257 289.51 440.797 291.008 440.797C292.57 440.797 293.801 440.276 294.699 439.234C295.598 438.193 296.047 436.702 296.047 434.762C296.047 432.913 295.591 431.487 294.68 430.484C293.781 429.469 292.557 428.961 291.008 428.961C289.549 428.961 288.365 429.495 287.453 430.562C286.542 431.63 286.086 433.043 286.086 434.801ZM315.5 425.406C317.453 425.406 319.009 426.051 320.168 427.34C321.34 428.616 321.926 430.302 321.926 432.398V444H317.141V432.887C317.141 431.702 316.854 430.764 316.281 430.074C315.721 429.384 314.953 429.039 313.977 429.039C313.234 429.039 312.538 429.26 311.887 429.703C311.236 430.133 310.52 430.855 309.738 431.871V444H304.934V425.758H309.738V428.316C310.624 427.275 311.529 426.533 312.453 426.09C313.391 425.634 314.406 425.406 315.5 425.406ZM342.707 420.914H343.098V425.758H349.348V429.391H343.098V437.809C343.098 438.629 343.345 439.293 343.84 439.801C344.335 440.309 345.012 440.562 345.871 440.562C346.991 440.562 348.28 440.159 349.738 439.352V443.199C348.007 443.967 346.379 444.352 344.855 444.352C342.798 444.352 341.19 443.792 340.031 442.672C338.885 441.552 338.312 440.035 338.312 438.121V429.391H335.461V428.609L342.707 420.914ZM357.277 416.715V428.316H357.395C358.944 426.376 360.812 425.406 363 425.406C364.94 425.406 366.503 426.044 367.688 427.32C368.872 428.596 369.465 430.263 369.465 432.32V444H364.68V433.238C364.68 432.014 364.387 431.044 363.801 430.328C363.228 429.599 362.44 429.234 361.438 429.234C360.708 429.234 360.018 429.443 359.367 429.859C358.729 430.276 358.033 430.966 357.277 431.93V444H352.473V416.715H357.277ZM376.672 417.32C377.414 417.32 378.052 417.587 378.586 418.121C379.12 418.655 379.387 419.293 379.387 420.035C379.387 420.751 379.12 421.389 378.586 421.949C378.065 422.496 377.427 422.77 376.672 422.77C375.943 422.77 375.305 422.496 374.758 421.949C374.224 421.389 373.957 420.751 373.957 420.035C373.957 419.28 374.23 418.642 374.777 418.121C375.324 417.587 375.956 417.32 376.672 417.32ZM379.074 425.758V444H374.27V425.758H379.074ZM389.953 425.406C390.956 425.406 391.9 425.523 392.785 425.758C393.671 425.979 394.608 426.337 395.598 426.832V430.68C394.686 430.094 393.71 429.625 392.668 429.273C391.626 428.909 390.695 428.727 389.875 428.727C389.185 428.727 388.645 428.857 388.254 429.117C387.863 429.378 387.668 429.749 387.668 430.23C387.668 430.504 387.831 430.777 388.156 431.051C388.482 431.324 389.374 431.826 390.832 432.555C392.915 433.609 394.374 434.586 395.207 435.484C396.053 436.37 396.477 437.438 396.477 438.688C396.477 440.445 395.865 441.832 394.641 442.848C393.417 443.85 391.763 444.352 389.68 444.352C388.378 444.352 387.16 444.208 386.027 443.922C384.908 443.635 383.977 443.29 383.234 442.887V438.883C385.578 440.185 387.551 440.836 389.152 440.836C389.973 440.836 390.637 440.693 391.145 440.406C391.652 440.107 391.906 439.716 391.906 439.234C391.906 438.948 391.815 438.688 391.633 438.453C391.451 438.219 391.177 437.978 390.812 437.73C390.448 437.483 389.309 436.891 387.395 435.953C385.923 435.25 384.836 434.488 384.133 433.668C383.43 432.835 383.078 431.852 383.078 430.719C383.078 429.104 383.71 427.815 384.973 426.852C386.236 425.888 387.896 425.406 389.953 425.406ZM417.258 425.406C418.26 425.406 419.204 425.523 420.09 425.758C420.975 425.979 421.913 426.337 422.902 426.832V430.68C421.991 430.094 421.014 429.625 419.973 429.273C418.931 428.909 418 428.727 417.18 428.727C416.49 428.727 415.949 428.857 415.559 429.117C415.168 429.378 414.973 429.749 414.973 430.23C414.973 430.504 415.135 430.777 415.461 431.051C415.786 431.324 416.678 431.826 418.137 432.555C420.22 433.609 421.678 434.586 422.512 435.484C423.358 436.37 423.781 437.438 423.781 438.688C423.781 440.445 423.169 441.832 421.945 442.848C420.721 443.85 419.068 444.352 416.984 444.352C415.682 444.352 414.465 444.208 413.332 443.922C412.212 443.635 411.281 443.29 410.539 442.887V438.883C412.883 440.185 414.855 440.836 416.457 440.836C417.277 440.836 417.941 440.693 418.449 440.406C418.957 440.107 419.211 439.716 419.211 439.234C419.211 438.948 419.12 438.688 418.938 438.453C418.755 438.219 418.482 437.978 418.117 437.73C417.753 437.483 416.613 436.891 414.699 435.953C413.228 435.25 412.141 434.488 411.438 433.668C410.734 432.835 410.383 431.852 410.383 430.719C410.383 429.104 411.014 427.815 412.277 426.852C413.54 425.888 415.201 425.406 417.258 425.406ZM430.07 417.32C430.812 417.32 431.451 417.587 431.984 418.121C432.518 418.655 432.785 419.293 432.785 420.035C432.785 420.751 432.518 421.389 431.984 421.949C431.464 422.496 430.826 422.77 430.07 422.77C429.341 422.77 428.703 422.496 428.156 421.949C427.622 421.389 427.355 420.751 427.355 420.035C427.355 419.28 427.629 418.642 428.176 418.121C428.723 417.587 429.354 417.32 430.07 417.32ZM432.473 425.758V444H427.668V425.758H432.473ZM442.434 420.914H442.824V425.758H449.074V429.391H442.824V437.809C442.824 438.629 443.072 439.293 443.566 439.801C444.061 440.309 444.738 440.562 445.598 440.562C446.717 440.562 448.007 440.159 449.465 439.352V443.199C447.733 443.967 446.105 444.352 444.582 444.352C442.525 444.352 440.917 443.792 439.758 442.672C438.612 441.552 438.039 440.035 438.039 438.121V429.391H435.188V428.609L442.434 420.914ZM460.363 425.406C463.046 425.406 465.168 426.266 466.73 427.984C468.293 429.703 469.074 432.079 469.074 435.113V435.836H456.164C456.359 437.464 456.965 438.72 457.98 439.605C459.009 440.478 460.415 440.914 462.199 440.914C463.345 440.914 464.445 440.719 465.5 440.328C466.568 439.924 467.668 439.319 468.801 438.512V442.086C466.665 443.596 464.074 444.352 461.027 444.352C458.15 444.352 455.799 443.486 453.977 441.754C452.154 440.022 451.242 437.717 451.242 434.84C451.242 432.066 452.082 429.801 453.762 428.043C455.454 426.285 457.655 425.406 460.363 425.406ZM464.562 432.926C464.432 431.598 464.029 430.562 463.352 429.82C462.674 429.065 461.743 428.688 460.559 428.688C459.348 428.688 458.371 429.046 457.629 429.762C456.9 430.478 456.438 431.533 456.242 432.926H464.562ZM490.559 425.406C492.902 425.406 494.693 425.908 495.93 426.91C497.167 427.9 497.785 429.286 497.785 431.07V439.996C497.785 440.686 498.065 441.031 498.625 441.031C498.859 441.031 499.185 440.934 499.602 440.738C500.031 440.53 500.389 440.296 500.676 440.035V442.809C498.996 443.837 497.46 444.352 496.066 444.352C495.207 444.352 494.543 444.208 494.074 443.922C493.618 443.635 493.299 443.128 493.117 442.398C491.281 443.701 489.439 444.352 487.59 444.352C486.275 444.352 485.142 443.909 484.191 443.023C483.254 442.138 482.785 441.077 482.785 439.84C482.785 438.264 483.254 437.021 484.191 436.109C485.129 435.198 486.77 434.404 489.113 433.727L493 432.594V431.754C493 429.97 491.919 429.078 489.758 429.078C488.651 429.078 487.551 429.332 486.457 429.84C485.363 430.348 484.367 431.096 483.469 432.086V427.77C485.461 426.194 487.824 425.406 490.559 425.406ZM487.629 439.117C487.629 439.781 487.837 440.315 488.254 440.719C488.684 441.122 489.211 441.324 489.836 441.324C490.891 441.324 491.945 440.842 493 439.879V435.074C491.659 435.53 490.604 435.96 489.836 436.363C489.081 436.767 488.521 437.177 488.156 437.594C487.805 438.01 487.629 438.518 487.629 439.117ZM508.332 420.914H508.723V425.758H514.973V429.391H508.723V437.809C508.723 438.629 508.97 439.293 509.465 439.801C509.96 440.309 510.637 440.562 511.496 440.562C512.616 440.562 513.905 440.159 515.363 439.352V443.199C513.632 443.967 512.004 444.352 510.48 444.352C508.423 444.352 506.815 443.792 505.656 442.672C504.51 441.552 503.938 440.035 503.938 438.121V429.391H501.086V428.609L508.332 420.914ZM534.23 420.914H534.621V425.758H540.871V429.391H534.621V437.809C534.621 438.629 534.868 439.293 535.363 439.801C535.858 440.309 536.535 440.562 537.395 440.562C538.514 440.562 539.803 440.159 541.262 439.352V443.199C539.53 443.967 537.902 444.352 536.379 444.352C534.322 444.352 532.714 443.792 531.555 442.672C530.409 441.552 529.836 440.035 529.836 438.121V429.391H526.984V428.609L534.23 420.914ZM548.801 416.715V428.316H548.918C550.467 426.376 552.336 425.406 554.523 425.406C556.464 425.406 558.026 426.044 559.211 427.32C560.396 428.596 560.988 430.263 560.988 432.32V444H556.203V433.238C556.203 432.014 555.91 431.044 555.324 430.328C554.751 429.599 553.964 429.234 552.961 429.234C552.232 429.234 551.542 429.443 550.891 429.859C550.253 430.276 549.556 430.966 548.801 431.93V444H543.996V416.715H548.801ZM573.801 425.406C576.483 425.406 578.605 426.266 580.168 427.984C581.73 429.703 582.512 432.079 582.512 435.113V435.836H569.602C569.797 437.464 570.402 438.72 571.418 439.605C572.447 440.478 573.853 440.914 575.637 440.914C576.783 440.914 577.883 440.719 578.938 440.328C580.005 439.924 581.105 439.319 582.238 438.512V442.086C580.103 443.596 577.512 444.352 574.465 444.352C571.587 444.352 569.237 443.486 567.414 441.754C565.591 440.022 564.68 437.717 564.68 434.84C564.68 432.066 565.52 429.801 567.199 428.043C568.892 426.285 571.092 425.406 573.801 425.406ZM578 432.926C577.87 431.598 577.466 430.562 576.789 429.82C576.112 429.065 575.181 428.688 573.996 428.688C572.785 428.688 571.809 429.046 571.066 429.762C570.337 430.478 569.875 431.533 569.68 432.926H578ZM608 425.406C609.406 425.406 610.591 425.738 611.555 426.402C612.531 427.053 613.26 427.932 613.742 429.039C614.771 427.776 615.793 426.858 616.809 426.285C617.837 425.699 618.964 425.406 620.188 425.406C622.115 425.406 623.671 426.038 624.855 427.301C626.04 428.551 626.633 430.224 626.633 432.32V444H621.828V433.121C621.828 431.858 621.555 430.862 621.008 430.133C620.474 429.404 619.693 429.039 618.664 429.039C617.193 429.039 615.78 429.983 614.426 431.871V444H609.641V433.043C609.641 431.793 609.354 430.816 608.781 430.113C608.208 429.397 607.44 429.039 606.477 429.039C605.695 429.039 604.979 429.267 604.328 429.723C603.677 430.165 602.98 430.882 602.238 431.871V444H597.434V425.758H602.238V428.316C603.111 427.327 603.996 426.598 604.895 426.129C605.793 425.647 606.828 425.406 608 425.406ZM640.344 425.406C642.245 425.406 643.97 425.803 645.52 426.598C647.069 427.392 648.267 428.505 649.113 429.938C649.96 431.37 650.383 432.991 650.383 434.801C650.383 436.689 649.973 438.342 649.152 439.762C648.345 441.181 647.147 442.301 645.559 443.121C643.983 443.941 642.245 444.352 640.344 444.352C638.43 444.352 636.691 443.941 635.129 443.121C633.566 442.301 632.375 441.181 631.555 439.762C630.747 438.342 630.344 436.689 630.344 434.801C630.344 432.965 630.773 431.337 631.633 429.918C632.492 428.486 633.69 427.379 635.227 426.598C636.763 425.803 638.469 425.406 640.344 425.406ZM635.383 434.801C635.383 436.624 635.826 438.082 636.711 439.176C637.609 440.257 638.807 440.797 640.305 440.797C641.867 440.797 643.098 440.276 643.996 439.234C644.895 438.193 645.344 436.702 645.344 434.762C645.344 432.913 644.888 431.487 643.977 430.484C643.078 429.469 641.854 428.961 640.305 428.961C638.846 428.961 637.661 429.495 636.75 430.562C635.839 431.63 635.383 433.043 635.383 434.801ZM664.797 425.406C666.203 425.406 667.388 425.738 668.352 426.402C669.328 427.053 670.057 427.932 670.539 429.039C671.568 427.776 672.59 426.858 673.605 426.285C674.634 425.699 675.76 425.406 676.984 425.406C678.911 425.406 680.467 426.038 681.652 427.301C682.837 428.551 683.43 430.224 683.43 432.32V444H678.625V433.121C678.625 431.858 678.352 430.862 677.805 430.133C677.271 429.404 676.49 429.039 675.461 429.039C673.99 429.039 672.577 429.983 671.223 431.871V444H666.438V433.043C666.438 431.793 666.151 430.816 665.578 430.113C665.005 429.397 664.237 429.039 663.273 429.039C662.492 429.039 661.776 429.267 661.125 429.723C660.474 430.165 659.777 430.882 659.035 431.871V444H654.23V425.758H659.035V428.316C659.908 427.327 660.793 426.598 661.691 426.129C662.59 425.647 663.625 425.406 664.797 425.406ZM696.262 425.406C698.944 425.406 701.066 426.266 702.629 427.984C704.191 429.703 704.973 432.079 704.973 435.113V435.836H692.062C692.258 437.464 692.863 438.72 693.879 439.605C694.908 440.478 696.314 440.914 698.098 440.914C699.243 440.914 700.344 440.719 701.398 440.328C702.466 439.924 703.566 439.319 704.699 438.512V442.086C702.564 443.596 699.973 444.352 696.926 444.352C694.048 444.352 691.698 443.486 689.875 441.754C688.052 440.022 687.141 437.717 687.141 434.84C687.141 432.066 687.98 429.801 689.66 428.043C691.353 426.285 693.553 425.406 696.262 425.406ZM700.461 432.926C700.331 431.598 699.927 430.562 699.25 429.82C698.573 429.065 697.642 428.688 696.457 428.688C695.246 428.688 694.27 429.046 693.527 429.762C692.798 430.478 692.336 431.533 692.141 432.926H700.461ZM719.328 425.406C721.281 425.406 722.837 426.051 723.996 427.34C725.168 428.616 725.754 430.302 725.754 432.398V444H720.969V432.887C720.969 431.702 720.682 430.764 720.109 430.074C719.549 429.384 718.781 429.039 717.805 429.039C717.062 429.039 716.366 429.26 715.715 429.703C715.064 430.133 714.348 430.855 713.566 431.871V444H708.762V425.758H713.566V428.316C714.452 427.275 715.357 426.533 716.281 426.09C717.219 425.634 718.234 425.406 719.328 425.406ZM735.402 420.914H735.793V425.758H742.043V429.391H735.793V437.809C735.793 438.629 736.04 439.293 736.535 439.801C737.03 440.309 737.707 440.562 738.566 440.562C739.686 440.562 740.975 440.159 742.434 439.352V443.199C740.702 443.967 739.074 444.352 737.551 444.352C735.493 444.352 733.885 443.792 732.727 442.672C731.581 441.552 731.008 440.035 731.008 438.121V429.391H728.156V428.609L735.402 420.914ZM64.9336 509.715V537H62.8242V509.715H64.9336ZM81.3008 510.125V511.922C80.0117 511.466 78.931 511.238 78.0586 511.238C75.1549 511.238 73.7031 513.094 73.7031 516.805V519.031H77.1797V520.594H73.7031V537H71.7891V520.594H68.4688V519.031H71.7891V516.082C71.7891 514.012 72.388 512.378 73.5859 511.18C74.7969 509.969 76.2747 509.363 78.0195 509.363C78.9701 509.363 80.0638 509.617 81.3008 510.125ZM105.676 519.031L92.2383 546.199H90.2852L96.5547 533.523L88.9961 519.031H91.0078L97.5312 531.609L103.723 519.031H105.676ZM115.461 518.68C118.065 518.68 120.233 519.572 121.965 521.355C123.71 523.139 124.582 525.366 124.582 528.035C124.582 530.691 123.71 532.911 121.965 534.695C120.233 536.466 118.065 537.352 115.461 537.352C112.857 537.352 110.676 536.466 108.918 534.695C107.173 532.911 106.301 530.691 106.301 528.035C106.301 525.366 107.173 523.139 108.918 521.355C110.676 519.572 112.857 518.68 115.461 518.68ZM115.461 535.477C117.479 535.477 119.165 534.773 120.52 533.367C121.874 531.948 122.551 530.171 122.551 528.035C122.551 525.913 121.867 524.135 120.5 522.703C119.146 521.271 117.466 520.555 115.461 520.555C113.43 520.555 111.73 521.264 110.363 522.684C109.009 524.103 108.332 525.887 108.332 528.035C108.332 530.171 109.009 531.948 110.363 533.367C111.73 534.773 113.43 535.477 115.461 535.477ZM141.457 537V534.031H141.379C140.546 535.229 139.686 536.082 138.801 536.59C137.928 537.098 136.815 537.352 135.461 537.352C133.534 537.352 131.939 536.727 130.676 535.477C129.413 534.227 128.781 532.456 128.781 530.164V519.031H130.695V530.125C130.695 531.792 131.151 533.1 132.062 534.051C132.974 535.001 134.159 535.477 135.617 535.477C136.867 535.477 137.928 535.19 138.801 534.617C139.686 534.044 140.572 533.055 141.457 531.648V519.031H143.371V537H141.457ZM161.438 509.715V522.156H161.516C163.013 519.839 164.986 518.68 167.434 518.68C169.465 518.68 171.086 519.331 172.297 520.633C173.508 521.935 174.113 523.725 174.113 526.004V537H172.199V526.766C172.199 522.625 170.572 520.555 167.316 520.555C164.986 520.555 163.026 521.837 161.438 524.402V537H159.523V509.715H161.438ZM193.488 533.875V535.477C191.835 536.727 190.624 537.352 189.855 537.352C189.413 537.352 189.107 537.208 188.938 536.922C188.768 536.622 188.645 536.023 188.566 535.125C186.678 536.609 184.803 537.352 182.941 537.352C181.587 537.352 180.441 536.909 179.504 536.023C178.566 535.138 178.098 534.064 178.098 532.801C178.098 530.848 179.003 529.311 180.812 528.191C182.622 527.059 185.207 526.408 188.566 526.238V523.953C188.566 521.505 187.238 520.281 184.582 520.281C182.889 520.281 181.06 521.043 179.094 522.566V520.594C181.125 519.318 183.059 518.68 184.895 518.68C186.522 518.68 187.863 519.083 188.918 519.891C189.973 520.685 190.5 521.844 190.5 523.367V534.559C190.5 535.171 190.643 535.477 190.93 535.477C191.294 535.477 192.147 534.943 193.488 533.875ZM188.566 533.445V527.84C186.105 527.749 184.061 528.185 182.434 529.148C180.819 530.099 180.012 531.316 180.012 532.801C180.012 533.634 180.35 534.337 181.027 534.91C181.704 535.483 182.551 535.77 183.566 535.77C185.207 535.77 186.874 534.995 188.566 533.445ZM209.777 519.031L202.062 537.352H200.871L192.707 519.031H194.66L201.418 534.168L207.902 519.031H209.777ZM226.945 527.352H212.785C212.746 527.664 212.727 527.977 212.727 528.289C212.727 530.294 213.443 531.993 214.875 533.387C216.307 534.78 218 535.477 219.953 535.477C222.232 535.477 224.458 534.585 226.633 532.801V534.969C224.576 536.557 222.271 537.352 219.719 537.352C217.128 537.352 214.986 536.453 213.293 534.656C211.6 532.859 210.754 530.574 210.754 527.801C210.754 525.171 211.535 522.996 213.098 521.277C214.66 519.546 216.626 518.68 218.996 518.68C221.223 518.68 223.104 519.461 224.641 521.023C226.177 522.573 226.945 524.682 226.945 527.352ZM213.039 525.809H224.68C224.003 522.306 222.108 520.555 218.996 520.555C217.525 520.555 216.249 521.017 215.168 521.941C214.1 522.853 213.391 524.142 213.039 525.809ZM256.301 533.875V535.477C254.647 536.727 253.436 537.352 252.668 537.352C252.225 537.352 251.919 537.208 251.75 536.922C251.581 536.622 251.457 536.023 251.379 535.125C249.491 536.609 247.616 537.352 245.754 537.352C244.4 537.352 243.254 536.909 242.316 536.023C241.379 535.138 240.91 534.064 240.91 532.801C240.91 530.848 241.815 529.311 243.625 528.191C245.435 527.059 248.02 526.408 251.379 526.238V523.953C251.379 521.505 250.051 520.281 247.395 520.281C245.702 520.281 243.872 521.043 241.906 522.566V520.594C243.938 519.318 245.871 518.68 247.707 518.68C249.335 518.68 250.676 519.083 251.73 519.891C252.785 520.685 253.312 521.844 253.312 523.367V534.559C253.312 535.171 253.456 535.477 253.742 535.477C254.107 535.477 254.96 534.943 256.301 533.875ZM251.379 533.445V527.84C248.918 527.749 246.874 528.185 245.246 529.148C243.632 530.099 242.824 531.316 242.824 532.801C242.824 533.634 243.163 534.337 243.84 534.91C244.517 535.483 245.363 535.77 246.379 535.77C248.02 535.77 249.686 534.995 251.379 533.445ZM260.93 519.031V522.156H261.008C262.505 519.839 264.478 518.68 266.926 518.68C268.957 518.68 270.578 519.331 271.789 520.633C273 521.935 273.605 523.738 273.605 526.043V537H271.691V526.766C271.691 522.625 270.064 520.555 266.809 520.555C264.426 520.555 262.466 521.837 260.93 524.402V537H259.016V519.031H260.93ZM292.434 519.031L278.996 546.199H277.043L283.312 533.523L275.754 519.031H277.766L284.289 531.609L290.48 519.031H292.434ZM321.203 519.031V546.199H319.289V535.965C317.284 536.889 315.324 537.352 313.41 537.352C310.897 537.352 308.833 536.512 307.219 534.832C305.617 533.152 304.816 530.997 304.816 528.367C304.816 525.594 305.663 523.289 307.355 521.453C309.048 519.604 311.158 518.68 313.684 518.68C315.52 518.68 317.388 519.214 319.289 520.281V519.031H321.203ZM319.289 534.031V522.156C317.57 521.089 315.839 520.555 314.094 520.555C312.036 520.555 310.311 521.316 308.918 522.84C307.538 524.363 306.848 526.258 306.848 528.523C306.848 530.659 307.486 532.371 308.762 533.66C310.038 534.949 311.724 535.594 313.82 535.594C315.656 535.594 317.479 535.073 319.289 534.031ZM338.879 537V534.031H338.801C337.967 535.229 337.108 536.082 336.223 536.59C335.35 537.098 334.237 537.352 332.883 537.352C330.956 537.352 329.361 536.727 328.098 535.477C326.835 534.227 326.203 532.456 326.203 530.164V519.031H328.117V530.125C328.117 531.792 328.573 533.1 329.484 534.051C330.396 535.001 331.581 535.477 333.039 535.477C334.289 535.477 335.35 535.19 336.223 534.617C337.108 534.044 337.993 533.055 338.879 531.648V519.031H340.793V537H338.879ZM361.125 527.352H346.965C346.926 527.664 346.906 527.977 346.906 528.289C346.906 530.294 347.622 531.993 349.055 533.387C350.487 534.78 352.18 535.477 354.133 535.477C356.411 535.477 358.638 534.585 360.812 532.801V534.969C358.755 536.557 356.451 537.352 353.898 537.352C351.307 537.352 349.165 536.453 347.473 534.656C345.78 532.859 344.934 530.574 344.934 527.801C344.934 525.171 345.715 522.996 347.277 521.277C348.84 519.546 350.806 518.68 353.176 518.68C355.402 518.68 357.284 519.461 358.82 521.023C360.357 522.573 361.125 524.682 361.125 527.352ZM347.219 525.809H358.859C358.182 522.306 356.288 520.555 353.176 520.555C351.704 520.555 350.428 521.017 349.348 521.941C348.28 522.853 347.57 524.142 347.219 525.809ZM374.875 520.203V522.273C373.052 521.049 371.411 520.438 369.953 520.438C368.872 520.438 367.961 520.73 367.219 521.316C366.477 521.902 366.105 522.625 366.105 523.484C366.105 524.096 366.327 524.663 366.77 525.184C367.225 525.691 368.469 526.336 370.5 527.117C372.544 527.898 373.879 528.712 374.504 529.559C375.129 530.405 375.441 531.349 375.441 532.391C375.441 533.784 374.875 534.962 373.742 535.926C372.609 536.876 371.21 537.352 369.543 537.352C367.733 537.352 365.936 536.805 364.152 535.711V533.836C366.275 534.93 368.156 535.477 369.797 535.477C370.904 535.477 371.809 535.184 372.512 534.598C373.228 534.012 373.586 533.263 373.586 532.352C373.586 531.727 373.352 531.154 372.883 530.633C372.427 530.099 371.177 529.428 369.133 528.621C367.102 527.814 365.78 527.02 365.168 526.238C364.569 525.444 364.27 524.565 364.27 523.602C364.27 522.234 364.829 521.076 365.949 520.125C367.082 519.161 368.456 518.68 370.07 518.68C371.542 518.68 373.143 519.188 374.875 520.203ZM382.688 513.074V519.031H387.727V520.594H382.688V531.277C382.688 532.996 382.824 534.129 383.098 534.676C383.384 535.21 384.139 535.477 385.363 535.477C386.301 535.477 387.395 535.184 388.645 534.598V536.434C387.382 537.046 386.145 537.352 384.934 537.352C383.749 537.352 382.759 537.013 381.965 536.336C381.171 535.659 380.773 534.721 380.773 533.523V520.594H375.93V519.031H380.773V514.754L382.082 513.074H382.688ZM393.488 509.715V512.996H391.555V509.715H393.488ZM393.488 519.031V537H391.555V519.031H393.488ZM407.141 518.68C409.745 518.68 411.913 519.572 413.645 521.355C415.389 523.139 416.262 525.366 416.262 528.035C416.262 530.691 415.389 532.911 413.645 534.695C411.913 536.466 409.745 537.352 407.141 537.352C404.536 537.352 402.355 536.466 400.598 534.695C398.853 532.911 397.98 530.691 397.98 528.035C397.98 525.366 398.853 523.139 400.598 521.355C402.355 519.572 404.536 518.68 407.141 518.68ZM407.141 535.477C409.159 535.477 410.845 534.773 412.199 533.367C413.553 531.948 414.23 530.171 414.23 528.035C414.23 525.913 413.547 524.135 412.18 522.703C410.826 521.271 409.146 520.555 407.141 520.555C405.109 520.555 403.41 521.264 402.043 522.684C400.689 524.103 400.012 525.887 400.012 528.035C400.012 530.171 400.689 531.948 402.043 533.367C403.41 534.773 405.109 535.477 407.141 535.477ZM422.375 519.031V522.156H422.453C423.951 519.839 425.923 518.68 428.371 518.68C430.402 518.68 432.023 519.331 433.234 520.633C434.445 521.935 435.051 523.738 435.051 526.043V537H433.137V526.766C433.137 522.625 431.509 520.555 428.254 520.555C425.871 520.555 423.911 521.837 422.375 524.402V537H420.461V519.031H422.375ZM449.953 520.203V522.273C448.13 521.049 446.49 520.438 445.031 520.438C443.951 520.438 443.039 520.73 442.297 521.316C441.555 521.902 441.184 522.625 441.184 523.484C441.184 524.096 441.405 524.663 441.848 525.184C442.303 525.691 443.547 526.336 445.578 527.117C447.622 527.898 448.957 528.712 449.582 529.559C450.207 530.405 450.52 531.349 450.52 532.391C450.52 533.784 449.953 534.962 448.82 535.926C447.688 536.876 446.288 537.352 444.621 537.352C442.811 537.352 441.014 536.805 439.23 535.711V533.836C441.353 534.93 443.234 535.477 444.875 535.477C445.982 535.477 446.887 535.184 447.59 534.598C448.306 534.012 448.664 533.263 448.664 532.352C448.664 531.727 448.43 531.154 447.961 530.633C447.505 530.099 446.255 529.428 444.211 528.621C442.18 527.814 440.858 527.02 440.246 526.238C439.647 525.444 439.348 524.565 439.348 523.602C439.348 522.234 439.908 521.076 441.027 520.125C442.16 519.161 443.534 518.68 445.148 518.68C446.62 518.68 448.221 519.188 449.953 520.203ZM456.613 533.113V536.16C456.613 538.53 455.747 540.372 454.016 541.688V540.281C454.576 539.5 454.855 538.406 454.855 537H454.016V533.113H456.613ZM471.203 519.031V520.047C473.013 519.135 474.816 518.68 476.613 518.68C479.165 518.68 481.281 519.559 482.961 521.316C484.641 523.074 485.48 525.288 485.48 527.957C485.48 530.587 484.615 532.814 482.883 534.637C481.151 536.447 479.035 537.352 476.535 537.352C474.803 537.352 473.026 536.902 471.203 536.004V546.199H469.289V519.031H471.203ZM471.203 521.883V534.129C472.831 535.027 474.484 535.477 476.164 535.477C478.312 535.477 480.051 534.799 481.379 533.445C482.707 532.091 483.371 530.314 483.371 528.113C483.371 525.926 482.668 524.122 481.262 522.703C479.855 521.271 478.078 520.555 475.93 520.555C474.393 520.555 472.818 520.997 471.203 521.883ZM491.887 509.715V537H489.953V509.715H491.887ZM512.492 527.352H498.332C498.293 527.664 498.273 527.977 498.273 528.289C498.273 530.294 498.99 531.993 500.422 533.387C501.854 534.78 503.547 535.477 505.5 535.477C507.779 535.477 510.005 534.585 512.18 532.801V534.969C510.122 536.557 507.818 537.352 505.266 537.352C502.674 537.352 500.533 536.453 498.84 534.656C497.147 532.859 496.301 530.574 496.301 527.801C496.301 525.171 497.082 522.996 498.645 521.277C500.207 519.546 502.173 518.68 504.543 518.68C506.77 518.68 508.651 519.461 510.188 521.023C511.724 522.573 512.492 524.682 512.492 527.352ZM498.586 525.809H510.227C509.549 522.306 507.655 520.555 504.543 520.555C503.072 520.555 501.796 521.017 500.715 521.941C499.647 522.853 498.938 524.142 498.586 525.809ZM530.715 533.875V535.477C529.061 536.727 527.85 537.352 527.082 537.352C526.639 537.352 526.333 537.208 526.164 536.922C525.995 536.622 525.871 536.023 525.793 535.125C523.905 536.609 522.03 537.352 520.168 537.352C518.814 537.352 517.668 536.909 516.73 536.023C515.793 535.138 515.324 534.064 515.324 532.801C515.324 530.848 516.229 529.311 518.039 528.191C519.849 527.059 522.434 526.408 525.793 526.238V523.953C525.793 521.505 524.465 520.281 521.809 520.281C520.116 520.281 518.286 521.043 516.32 522.566V520.594C518.352 519.318 520.285 518.68 522.121 518.68C523.749 518.68 525.09 519.083 526.145 519.891C527.199 520.685 527.727 521.844 527.727 523.367V534.559C527.727 535.171 527.87 535.477 528.156 535.477C528.521 535.477 529.374 534.943 530.715 533.875ZM525.793 533.445V527.84C523.332 527.749 521.288 528.185 519.66 529.148C518.046 530.099 517.238 531.316 517.238 532.801C517.238 533.634 517.577 534.337 518.254 534.91C518.931 535.483 519.777 535.77 520.793 535.77C522.434 535.77 524.1 534.995 525.793 533.445ZM543.312 520.203V522.273C541.49 521.049 539.849 520.438 538.391 520.438C537.31 520.438 536.398 520.73 535.656 521.316C534.914 521.902 534.543 522.625 534.543 523.484C534.543 524.096 534.764 524.663 535.207 525.184C535.663 525.691 536.906 526.336 538.938 527.117C540.982 527.898 542.316 528.712 542.941 529.559C543.566 530.405 543.879 531.349 543.879 532.391C543.879 533.784 543.312 534.962 542.18 535.926C541.047 536.876 539.647 537.352 537.98 537.352C536.171 537.352 534.374 536.805 532.59 535.711V533.836C534.712 534.93 536.594 535.477 538.234 535.477C539.341 535.477 540.246 535.184 540.949 534.598C541.665 534.012 542.023 533.263 542.023 532.352C542.023 531.727 541.789 531.154 541.32 530.633C540.865 530.099 539.615 529.428 537.57 528.621C535.539 527.814 534.217 527.02 533.605 526.238C533.007 525.444 532.707 524.565 532.707 523.602C532.707 522.234 533.267 521.076 534.387 520.125C535.52 519.161 536.893 518.68 538.508 518.68C539.979 518.68 541.581 519.188 543.312 520.203ZM562.922 527.352H548.762C548.723 527.664 548.703 527.977 548.703 528.289C548.703 530.294 549.419 531.993 550.852 533.387C552.284 534.78 553.977 535.477 555.93 535.477C558.208 535.477 560.435 534.585 562.609 532.801V534.969C560.552 536.557 558.247 537.352 555.695 537.352C553.104 537.352 550.962 536.453 549.27 534.656C547.577 532.859 546.73 530.574 546.73 527.801C546.73 525.171 547.512 522.996 549.074 521.277C550.637 519.546 552.603 518.68 554.973 518.68C557.199 518.68 559.081 519.461 560.617 521.023C562.154 522.573 562.922 524.682 562.922 527.352ZM549.016 525.809H560.656C559.979 522.306 558.085 520.555 554.973 520.555C553.501 520.555 552.225 521.017 551.145 521.941C550.077 522.853 549.367 524.142 549.016 525.809ZM590.598 519.559V521.688C588.879 520.932 587.323 520.555 585.93 520.555C583.924 520.555 582.29 521.251 581.027 522.645C579.777 524.038 579.152 525.848 579.152 528.074C579.152 530.34 579.777 532.143 581.027 533.484C582.29 534.812 583.977 535.477 586.086 535.477C587.622 535.477 589.237 535.132 590.93 534.441V536.434C589.133 537.046 587.466 537.352 585.93 537.352C583.299 537.352 581.171 536.518 579.543 534.852C577.928 533.185 577.121 530.997 577.121 528.289C577.121 525.464 577.935 523.159 579.562 521.375C581.203 519.578 583.293 518.68 585.832 518.68C587.225 518.68 588.814 518.973 590.598 519.559ZM602.961 518.68C605.565 518.68 607.733 519.572 609.465 521.355C611.21 523.139 612.082 525.366 612.082 528.035C612.082 530.691 611.21 532.911 609.465 534.695C607.733 536.466 605.565 537.352 602.961 537.352C600.357 537.352 598.176 536.466 596.418 534.695C594.673 532.911 593.801 530.691 593.801 528.035C593.801 525.366 594.673 523.139 596.418 521.355C598.176 519.572 600.357 518.68 602.961 518.68ZM602.961 535.477C604.979 535.477 606.665 534.773 608.02 533.367C609.374 531.948 610.051 530.171 610.051 528.035C610.051 525.913 609.367 524.135 608 522.703C606.646 521.271 604.966 520.555 602.961 520.555C600.93 520.555 599.23 521.264 597.863 522.684C596.509 524.103 595.832 525.887 595.832 528.035C595.832 530.171 596.509 531.948 597.863 533.367C599.23 534.773 600.93 535.477 602.961 535.477ZM618.195 519.031V522.156H618.273C619.771 519.839 621.743 518.68 624.191 518.68C626.223 518.68 627.844 519.331 629.055 520.633C630.266 521.935 630.871 523.738 630.871 526.043V537H628.957V526.766C628.957 522.625 627.329 520.555 624.074 520.555C621.691 520.555 619.732 521.837 618.195 524.402V537H616.281V519.031H618.195ZM639.406 513.074V519.031H644.445V520.594H639.406V531.277C639.406 532.996 639.543 534.129 639.816 534.676C640.103 535.21 640.858 535.477 642.082 535.477C643.02 535.477 644.113 535.184 645.363 534.598V536.434C644.1 537.046 642.863 537.352 641.652 537.352C640.467 537.352 639.478 537.013 638.684 536.336C637.889 535.659 637.492 534.721 637.492 533.523V520.594H632.648V519.031H637.492V514.754L638.801 513.074H639.406ZM662.316 533.875V535.477C660.663 536.727 659.452 537.352 658.684 537.352C658.241 537.352 657.935 537.208 657.766 536.922C657.596 536.622 657.473 536.023 657.395 535.125C655.507 536.609 653.632 537.352 651.77 537.352C650.415 537.352 649.27 536.909 648.332 536.023C647.395 535.138 646.926 534.064 646.926 532.801C646.926 530.848 647.831 529.311 649.641 528.191C651.451 527.059 654.035 526.408 657.395 526.238V523.953C657.395 521.505 656.066 520.281 653.41 520.281C651.717 520.281 649.888 521.043 647.922 522.566V520.594C649.953 519.318 651.887 518.68 653.723 518.68C655.35 518.68 656.691 519.083 657.746 519.891C658.801 520.685 659.328 521.844 659.328 523.367V534.559C659.328 535.171 659.471 535.477 659.758 535.477C660.122 535.477 660.975 534.943 662.316 533.875ZM657.395 533.445V527.84C654.934 527.749 652.889 528.185 651.262 529.148C649.647 530.099 648.84 531.316 648.84 532.801C648.84 533.634 649.178 534.337 649.855 534.91C650.533 535.483 651.379 535.77 652.395 535.77C654.035 535.77 655.702 534.995 657.395 533.445ZM677.707 519.559V521.688C675.988 520.932 674.432 520.555 673.039 520.555C671.034 520.555 669.4 521.251 668.137 522.645C666.887 524.038 666.262 525.848 666.262 528.074C666.262 530.34 666.887 532.143 668.137 533.484C669.4 534.812 671.086 535.477 673.195 535.477C674.732 535.477 676.346 535.132 678.039 534.441V536.434C676.242 537.046 674.576 537.352 673.039 537.352C670.409 537.352 668.28 536.518 666.652 534.852C665.038 533.185 664.23 530.997 664.23 528.289C664.23 525.464 665.044 523.159 666.672 521.375C668.312 519.578 670.402 518.68 672.941 518.68C674.335 518.68 675.923 518.973 677.707 519.559ZM685.227 513.074V519.031H690.266V520.594H685.227V531.277C685.227 532.996 685.363 534.129 685.637 534.676C685.923 535.21 686.678 535.477 687.902 535.477C688.84 535.477 689.934 535.184 691.184 534.598V536.434C689.921 537.046 688.684 537.352 687.473 537.352C686.288 537.352 685.298 537.013 684.504 536.336C683.71 535.659 683.312 534.721 683.312 533.523V520.594H678.469V519.031H683.312V514.754L684.621 513.074H685.227ZM243 554.715V557.996H241.066V554.715H243ZM243 564.031V582H241.066V564.031H243ZM250.207 564.031V567.156H250.285C251.783 564.839 253.755 563.68 256.203 563.68C258.234 563.68 259.855 564.331 261.066 565.633C262.277 566.935 262.883 568.738 262.883 571.043V582H260.969V571.766C260.969 567.625 259.341 565.555 256.086 565.555C253.703 565.555 251.743 566.837 250.207 569.402V582H248.293V564.031H250.207ZM278.703 555.125V556.922C277.414 556.466 276.333 556.238 275.461 556.238C272.557 556.238 271.105 558.094 271.105 561.805V564.031H274.582V565.594H271.105V582H269.191V565.594H265.871V564.031H269.191V561.082C269.191 559.012 269.79 557.378 270.988 556.18C272.199 554.969 273.677 554.363 275.422 554.363C276.372 554.363 277.466 554.617 278.703 555.125ZM285.48 563.68C288.085 563.68 290.253 564.572 291.984 566.355C293.729 568.139 294.602 570.366 294.602 573.035C294.602 575.691 293.729 577.911 291.984 579.695C290.253 581.466 288.085 582.352 285.48 582.352C282.876 582.352 280.695 581.466 278.938 579.695C277.193 577.911 276.32 575.691 276.32 573.035C276.32 570.366 277.193 568.139 278.938 566.355C280.695 564.572 282.876 563.68 285.48 563.68ZM285.48 580.477C287.499 580.477 289.185 579.773 290.539 578.367C291.893 576.948 292.57 575.171 292.57 573.035C292.57 570.913 291.887 569.135 290.52 567.703C289.165 566.271 287.486 565.555 285.48 565.555C283.449 565.555 281.75 566.264 280.383 567.684C279.029 569.103 278.352 570.887 278.352 573.035C278.352 575.171 279.029 576.948 280.383 578.367C281.75 579.773 283.449 580.477 285.48 580.477ZM318.645 561.805H321.086L317.766 577.488C317.609 578.165 317.531 578.654 317.531 578.953C317.531 579.539 317.85 579.832 318.488 579.832C320.051 579.832 321.711 578.764 323.469 576.629C325.24 574.48 326.125 571.792 326.125 568.562C326.125 564.969 325.012 561.974 322.785 559.578C320.559 557.169 317.323 555.965 313.078 555.965C308.651 555.965 305.012 557.43 302.16 560.359C299.309 563.289 297.883 567.039 297.883 571.609C297.883 576.115 299.302 579.767 302.141 582.566C304.979 585.366 308.69 586.766 313.273 586.766C318.99 586.766 323.365 584.734 326.398 580.672H328.391C326.919 583.159 324.836 585.06 322.141 586.375C319.445 587.703 316.477 588.367 313.234 588.367C308.169 588.367 304.068 586.818 300.93 583.719C297.805 580.62 296.242 576.564 296.242 571.551C296.242 566.694 297.759 562.618 300.793 559.324C303.84 556.017 308.013 554.363 313.312 554.363C317.844 554.363 321.385 555.73 323.938 558.465C326.49 561.186 327.766 564.552 327.766 568.562C327.766 572.221 326.672 575.314 324.484 577.84C322.31 580.353 320.044 581.609 317.688 581.609C316.112 581.609 315.324 580.88 315.324 579.422C315.324 579.031 315.376 578.582 315.48 578.074L315.402 577.996C313.397 580.405 311.197 581.609 308.801 581.609C306.874 581.609 305.266 580.828 303.977 579.266C302.688 577.703 302.043 575.737 302.043 573.367C302.043 570.177 303.026 567.371 304.992 564.949C306.958 562.527 309.322 561.316 312.082 561.316C314.777 561.316 316.724 562.573 317.922 565.086H318L318.645 561.805ZM309.523 579.715C311.555 579.715 313.312 578.484 314.797 576.023C316.294 573.549 317.043 571.062 317.043 568.562C317.043 566.961 316.568 565.639 315.617 564.598C314.68 563.556 313.488 563.035 312.043 563.035C309.829 563.035 308.02 564.155 306.613 566.395C305.22 568.634 304.523 570.997 304.523 573.484C304.523 575.281 304.999 576.772 305.949 577.957C306.9 579.129 308.091 579.715 309.523 579.715ZM345.383 564.031L337.668 582.352H336.477L328.312 564.031H330.266L337.023 579.168L343.508 564.031H345.383ZM349.816 564.031V565.047C351.626 564.135 353.43 563.68 355.227 563.68C357.779 563.68 359.895 564.559 361.574 566.316C363.254 568.074 364.094 570.288 364.094 572.957C364.094 575.587 363.228 577.814 361.496 579.637C359.764 581.447 357.648 582.352 355.148 582.352C353.417 582.352 351.639 581.902 349.816 581.004V591.199H347.902V564.031H349.816ZM349.816 566.883V579.129C351.444 580.027 353.098 580.477 354.777 580.477C356.926 580.477 358.664 579.799 359.992 578.445C361.32 577.091 361.984 575.314 361.984 573.113C361.984 570.926 361.281 569.122 359.875 567.703C358.469 566.271 356.691 565.555 354.543 565.555C353.007 565.555 351.431 565.997 349.816 566.883ZM380.93 564.559V566.688C379.211 565.932 377.655 565.555 376.262 565.555C374.257 565.555 372.622 566.251 371.359 567.645C370.109 569.038 369.484 570.848 369.484 573.074C369.484 575.34 370.109 577.143 371.359 578.484C372.622 579.812 374.309 580.477 376.418 580.477C377.954 580.477 379.569 580.132 381.262 579.441V581.434C379.465 582.046 377.798 582.352 376.262 582.352C373.632 582.352 371.503 581.518 369.875 579.852C368.26 578.185 367.453 575.997 367.453 573.289C367.453 570.464 368.267 568.159 369.895 566.375C371.535 564.578 373.625 563.68 376.164 563.68C377.557 563.68 379.146 563.973 380.93 564.559ZM397.609 564.559V566.688C395.891 565.932 394.335 565.555 392.941 565.555C390.936 565.555 389.302 566.251 388.039 567.645C386.789 569.038 386.164 570.848 386.164 573.074C386.164 575.34 386.789 577.143 388.039 578.484C389.302 579.812 390.988 580.477 393.098 580.477C394.634 580.477 396.249 580.132 397.941 579.441V581.434C396.145 582.046 394.478 582.352 392.941 582.352C390.311 582.352 388.182 581.518 386.555 579.852C384.94 578.185 384.133 575.997 384.133 573.289C384.133 570.464 384.947 568.159 386.574 566.375C388.215 564.578 390.305 563.68 392.844 563.68C394.237 563.68 395.826 563.973 397.609 564.559ZM404.992 578.113V582H402.395V578.113H404.992ZM422.375 564.559V566.688C420.656 565.932 419.1 565.555 417.707 565.555C415.702 565.555 414.068 566.251 412.805 567.645C411.555 569.038 410.93 570.848 410.93 573.074C410.93 575.34 411.555 577.143 412.805 578.484C414.068 579.812 415.754 580.477 417.863 580.477C419.4 580.477 421.014 580.132 422.707 579.441V581.434C420.91 582.046 419.243 582.352 417.707 582.352C415.077 582.352 412.948 581.518 411.32 579.852C409.706 578.185 408.898 575.997 408.898 573.289C408.898 570.464 409.712 568.159 411.34 566.375C412.98 564.578 415.07 563.68 417.609 563.68C419.003 563.68 420.591 563.973 422.375 564.559ZM428.293 554.715V567.156H428.371C429.868 564.839 431.841 563.68 434.289 563.68C436.32 563.68 437.941 564.331 439.152 565.633C440.363 566.935 440.969 568.725 440.969 571.004V582H439.055V571.766C439.055 567.625 437.427 565.555 434.172 565.555C431.841 565.555 429.882 566.837 428.293 569.402V582H426.379V554.715H428.293ZM458.664 582V579.031H458.586C457.753 580.229 456.893 581.082 456.008 581.59C455.135 582.098 454.022 582.352 452.668 582.352C450.741 582.352 449.146 581.727 447.883 580.477C446.62 579.227 445.988 577.456 445.988 575.164V564.031H447.902V575.125C447.902 576.792 448.358 578.1 449.27 579.051C450.181 580.001 451.366 580.477 452.824 580.477C454.074 580.477 455.135 580.19 456.008 579.617C456.893 579.044 457.779 578.055 458.664 576.648V564.031H460.578V582H458.664ZM478.039 565.809L476.926 567.605C475.428 566.238 474.224 565.555 473.312 565.555C471.516 565.555 469.595 567.273 467.551 570.711V582H465.637V564.031H467.551V568.758H467.629C469.777 565.372 471.874 563.68 473.918 563.68C475.09 563.68 476.464 564.389 478.039 565.809ZM491.594 564.559V566.688C489.875 565.932 488.319 565.555 486.926 565.555C484.921 565.555 483.286 566.251 482.023 567.645C480.773 569.038 480.148 570.848 480.148 573.074C480.148 575.34 480.773 577.143 482.023 578.484C483.286 579.812 484.973 580.477 487.082 580.477C488.618 580.477 490.233 580.132 491.926 579.441V581.434C490.129 582.046 488.462 582.352 486.926 582.352C484.296 582.352 482.167 581.518 480.539 579.852C478.924 578.185 478.117 575.997 478.117 573.289C478.117 570.464 478.931 568.159 480.559 566.375C482.199 564.578 484.289 563.68 486.828 563.68C488.221 563.68 489.81 563.973 491.594 564.559ZM497.512 554.715V567.156H497.59C499.087 564.839 501.06 563.68 503.508 563.68C505.539 563.68 507.16 564.331 508.371 565.633C509.582 566.935 510.188 568.725 510.188 571.004V582H508.273V571.766C508.273 567.625 506.646 565.555 503.391 565.555C501.06 565.555 499.1 566.837 497.512 569.402V582H495.598V554.715H497.512Z" fill="black"/>
<path d="M191.156 84.5156L163.734 150.656H162.281L134.719 84.5156H139.828L163.031 139.922L186.094 84.5156H191.156ZM202.875 84.5156V92.3906H198.234V84.5156H202.875ZM202.875 106.875V150H198.234V106.875H202.875ZM246 108.141V113.25C241.875 111.438 238.141 110.531 234.797 110.531C229.984 110.531 226.062 112.203 223.031 115.547C220.031 118.891 218.531 123.234 218.531 128.578C218.531 134.016 220.031 138.344 223.031 141.562C226.062 144.75 230.109 146.344 235.172 146.344C238.859 146.344 242.734 145.516 246.797 143.859V148.641C242.484 150.109 238.484 150.844 234.797 150.844C228.484 150.844 223.375 148.844 219.469 144.844C215.594 140.844 213.656 135.594 213.656 129.094C213.656 122.312 215.609 116.781 219.516 112.5C223.453 108.188 228.469 106.031 234.562 106.031C237.906 106.031 241.719 106.734 246 108.141ZM264.047 92.5781V106.875H276.141V110.625H264.047V136.266C264.047 140.391 264.375 143.109 265.031 144.422C265.719 145.703 267.531 146.344 270.469 146.344C272.719 146.344 275.344 145.641 278.344 144.234V148.641C275.312 150.109 272.344 150.844 269.438 150.844C266.594 150.844 264.219 150.031 262.312 148.406C260.406 146.781 259.453 144.531 259.453 141.656V110.625H247.828V106.875H259.453V96.6094L262.594 92.5781H264.047ZM304.641 106.031C310.891 106.031 316.094 108.172 320.25 112.453C324.438 116.734 326.531 122.078 326.531 128.484C326.531 134.859 324.438 140.188 320.25 144.469C316.094 148.719 310.891 150.844 304.641 150.844C298.391 150.844 293.156 148.719 288.938 144.469C284.75 140.188 282.656 134.859 282.656 128.484C282.656 122.078 284.75 116.734 288.938 112.453C293.156 108.172 298.391 106.031 304.641 106.031ZM304.641 146.344C309.484 146.344 313.531 144.656 316.781 141.281C320.031 137.875 321.656 133.609 321.656 128.484C321.656 123.391 320.016 119.125 316.734 115.688C313.484 112.25 309.453 110.531 304.641 110.531C299.766 110.531 295.688 112.234 292.406 115.641C289.156 119.047 287.531 123.328 287.531 128.484C287.531 133.609 289.156 137.875 292.406 141.281C295.688 144.656 299.766 146.344 304.641 146.344ZM366.469 111.141L363.797 115.453C360.203 112.172 357.312 110.531 355.125 110.531C350.812 110.531 346.203 114.656 341.297 122.906V150H336.703V106.875H341.297V118.219H341.484C346.641 110.094 351.672 106.031 356.578 106.031C359.391 106.031 362.688 107.734 366.469 111.141ZM376.406 84.5156V92.3906H371.766V84.5156H376.406ZM376.406 106.875V150H371.766V106.875H376.406ZM423.562 142.5V146.344C419.594 149.344 416.688 150.844 414.844 150.844C413.781 150.844 413.047 150.5 412.641 149.812C412.234 149.094 411.938 147.656 411.75 145.5C407.219 149.062 402.719 150.844 398.25 150.844C395 150.844 392.25 149.781 390 147.656C387.75 145.531 386.625 142.953 386.625 139.922C386.625 135.234 388.797 131.547 393.141 128.859C397.484 126.141 403.688 124.578 411.75 124.172V118.688C411.75 112.812 408.562 109.875 402.188 109.875C398.125 109.875 393.734 111.703 389.016 115.359V110.625C393.891 107.562 398.531 106.031 402.938 106.031C406.844 106.031 410.062 107 412.594 108.938C415.125 110.844 416.391 113.625 416.391 117.281V144.141C416.391 145.609 416.734 146.344 417.422 146.344C418.297 146.344 420.344 145.062 423.562 142.5ZM411.75 141.469V128.016C405.844 127.797 400.938 128.844 397.031 131.156C393.156 133.438 391.219 136.359 391.219 139.922C391.219 141.922 392.031 143.609 393.656 144.984C395.281 146.359 397.312 147.047 399.75 147.047C403.688 147.047 407.688 145.188 411.75 141.469ZM458.344 84.5156H476.391C483.297 84.5156 488.578 86.0625 492.234 89.1562C495.922 92.25 497.766 96.4688 497.766 101.812C497.766 107.219 495.906 111.5 492.188 114.656C488.5 117.812 483.078 119.391 475.922 119.391H463.406V150H458.344V84.5156ZM463.406 88.7344V115.172H475.594C481.062 115.172 485.219 114.016 488.062 111.703C490.906 109.391 492.328 106.125 492.328 101.906C492.328 97.875 490.938 94.6719 488.156 92.2969C485.375 89.9219 481.391 88.7344 476.203 88.7344H463.406ZM538.219 142.5V146.344C534.25 149.344 531.344 150.844 529.5 150.844C528.438 150.844 527.703 150.5 527.297 149.812C526.891 149.094 526.594 147.656 526.406 145.5C521.875 149.062 517.375 150.844 512.906 150.844C509.656 150.844 506.906 149.781 504.656 147.656C502.406 145.531 501.281 142.953 501.281 139.922C501.281 135.234 503.453 131.547 507.797 128.859C512.141 126.141 518.344 124.578 526.406 124.172V118.688C526.406 112.812 523.219 109.875 516.844 109.875C512.781 109.875 508.391 111.703 503.672 115.359V110.625C508.547 107.562 513.188 106.031 517.594 106.031C521.5 106.031 524.719 107 527.25 108.938C529.781 110.844 531.047 113.625 531.047 117.281V144.141C531.047 145.609 531.391 146.344 532.078 146.344C532.953 146.344 535 145.062 538.219 142.5ZM526.406 141.469V128.016C520.5 127.797 515.594 128.844 511.688 131.156C507.812 133.438 505.875 136.359 505.875 139.922C505.875 141.922 506.688 143.609 508.312 144.984C509.938 146.359 511.969 147.047 514.406 147.047C518.344 147.047 522.344 145.188 526.406 141.469ZM574.594 111.141L571.922 115.453C568.328 112.172 565.438 110.531 563.25 110.531C558.938 110.531 554.328 114.656 549.422 122.906V150H544.828V106.875H549.422V118.219H549.609C554.766 110.094 559.797 106.031 564.703 106.031C567.516 106.031 570.812 107.734 574.594 111.141ZM584.859 84.5156V150H580.266V84.5156H584.859ZM615.375 106.875L591.797 127.359L619.031 150H612.703L585.516 127.359L609.328 106.875H615.375ZM62.25 198.156V203.688C54.3125 199.469 46.5312 197.359 38.9062 197.359C30.7812 197.359 23.9844 200.125 18.5156 205.656C13.0469 211.188 10.3125 218.094 10.3125 226.375C10.3125 234.75 13.0625 241.641 18.5625 247.047C24.0625 252.453 31.0781 255.156 39.6094 255.156C46.7344 255.156 54.5 252.922 62.9062 248.453V253.703C55.1562 257.797 47.4219 259.844 39.7031 259.844C29.7344 259.844 21.4219 256.656 14.7656 250.281C8.14062 243.875 4.82812 235.906 4.82812 226.375C4.82812 216.781 8.21875 208.766 15 202.328C21.7812 195.891 29.8594 192.672 39.2344 192.672C46.6094 192.672 54.2812 194.5 62.25 198.156ZM91.125 215.031C97.375 215.031 102.578 217.172 106.734 221.453C110.922 225.734 113.016 231.078 113.016 237.484C113.016 243.859 110.922 249.188 106.734 253.469C102.578 257.719 97.375 259.844 91.125 259.844C84.875 259.844 79.6406 257.719 75.4219 253.469C71.2344 249.188 69.1406 243.859 69.1406 237.484C69.1406 231.078 71.2344 225.734 75.4219 221.453C79.6406 217.172 84.875 215.031 91.125 215.031ZM91.125 255.344C95.9688 255.344 100.016 253.656 103.266 250.281C106.516 246.875 108.141 242.609 108.141 237.484C108.141 232.391 106.5 228.125 103.219 224.688C99.9688 221.25 95.9375 219.531 91.125 219.531C86.25 219.531 82.1719 221.234 78.8906 224.641C75.6406 228.047 74.0156 232.328 74.0156 237.484C74.0156 242.609 75.6406 246.875 78.8906 250.281C82.1719 253.656 86.25 255.344 91.125 255.344ZM127.5 215.875V223.469H127.688C131.188 217.844 135.766 215.031 141.422 215.031C148.016 215.031 152.656 218.484 155.344 225.391C159.406 218.484 164.406 215.031 170.344 215.031C174.812 215.031 178.422 216.625 181.172 219.812C183.922 223 185.297 227.234 185.297 232.516V259H180.703V234.531C180.703 229.875 179.719 226.219 177.75 223.562C175.781 220.875 173.016 219.531 169.453 219.531C166.797 219.531 164.484 220.328 162.516 221.922C160.547 223.516 158.516 226.078 156.422 229.609V259H151.781V234.438C151.781 229.656 150.75 225.984 148.688 223.422C146.656 220.828 143.922 219.531 140.484 219.531C135.484 219.531 131.156 222.609 127.5 228.766V259H122.906V215.875H127.5ZM201.562 215.875V223.469H201.75C205.25 217.844 209.828 215.031 215.484 215.031C222.078 215.031 226.719 218.484 229.406 225.391C233.469 218.484 238.469 215.031 244.406 215.031C248.875 215.031 252.484 216.625 255.234 219.812C257.984 223 259.359 227.234 259.359 232.516V259H254.766V234.531C254.766 229.875 253.781 226.219 251.812 223.562C249.844 220.875 247.078 219.531 243.516 219.531C240.859 219.531 238.547 220.328 236.578 221.922C234.609 223.516 232.578 226.078 230.484 229.609V259H225.844V234.438C225.844 229.656 224.812 225.984 222.75 223.422C220.719 220.828 217.984 219.531 214.547 219.531C209.547 219.531 205.219 222.609 201.562 228.766V259H196.969V215.875H201.562ZM300.141 259V251.875H299.953C297.953 254.75 295.891 256.797 293.766 258.016C291.672 259.234 289 259.844 285.75 259.844C281.125 259.844 277.297 258.344 274.266 255.344C271.234 252.344 269.719 248.094 269.719 242.594V215.875H274.312V242.5C274.312 246.5 275.406 249.641 277.594 251.922C279.781 254.203 282.625 255.344 286.125 255.344C289.125 255.344 291.672 254.656 293.766 253.281C295.891 251.906 298.016 249.531 300.141 246.156V215.875H304.734V259H300.141ZM321.375 215.875V223.375H321.562C325.156 217.812 329.891 215.031 335.766 215.031C340.641 215.031 344.531 216.594 347.438 219.719C350.344 222.844 351.797 227.172 351.797 232.703V259H347.203V234.438C347.203 224.5 343.297 219.531 335.484 219.531C329.766 219.531 325.062 222.609 321.375 228.766V259H316.781V215.875H321.375ZM369.234 193.516V201.391H364.594V193.516H369.234ZM369.234 215.875V259H364.594V215.875H369.234ZM390.375 201.578V215.875H402.469V219.625H390.375V245.266C390.375 249.391 390.703 252.109 391.359 253.422C392.047 254.703 393.859 255.344 396.797 255.344C399.047 255.344 401.672 254.641 404.672 253.234V257.641C401.641 259.109 398.672 259.844 395.766 259.844C392.922 259.844 390.547 259.031 388.641 257.406C386.734 255.781 385.781 253.531 385.781 250.656V219.625H374.156V215.875H385.781V205.609L388.922 201.578H390.375ZM445.547 215.875L413.297 281.078H408.609L423.656 250.656L405.516 215.875H410.344L426 246.062L440.859 215.875H445.547ZM533.812 198.156V203.688C525.875 199.469 518.094 197.359 510.469 197.359C502.344 197.359 495.547 200.125 490.078 205.656C484.609 211.188 481.875 218.094 481.875 226.375C481.875 234.75 484.625 241.641 490.125 247.047C495.625 252.453 502.641 255.156 511.172 255.156C518.297 255.156 526.062 252.922 534.469 248.453V253.703C526.719 257.797 518.984 259.844 511.266 259.844C501.297 259.844 492.984 256.656 486.328 250.281C479.703 243.875 476.391 235.906 476.391 226.375C476.391 216.781 479.781 208.766 486.562 202.328C493.344 195.891 501.422 192.672 510.797 192.672C518.172 192.672 525.844 194.5 533.812 198.156ZM547.219 193.516V223.375H547.406C551 217.812 555.734 215.031 561.609 215.031C566.484 215.031 570.375 216.594 573.281 219.719C576.188 222.844 577.641 227.141 577.641 232.609V259H573.047V234.438C573.047 224.5 569.141 219.531 561.328 219.531C555.734 219.531 551.031 222.609 547.219 228.766V259H542.625V193.516H547.219ZM620.109 259V251.875H619.922C617.922 254.75 615.859 256.797 613.734 258.016C611.641 259.234 608.969 259.844 605.719 259.844C601.094 259.844 597.266 258.344 594.234 255.344C591.203 252.344 589.688 248.094 589.688 242.594V215.875H594.281V242.5C594.281 246.5 595.375 249.641 597.562 251.922C599.75 254.203 602.594 255.344 606.094 255.344C609.094 255.344 611.641 254.656 613.734 253.281C615.859 251.906 617.984 249.531 620.109 246.156V215.875H624.703V259H620.109ZM666.609 220.141L663.938 224.453C660.344 221.172 657.453 219.531 655.266 219.531C650.953 219.531 646.344 223.656 641.438 231.906V259H636.844V215.875H641.438V227.219H641.625C646.781 219.094 651.812 215.031 656.719 215.031C659.531 215.031 662.828 216.734 666.609 220.141ZM699.141 217.141V222.25C695.016 220.438 691.281 219.531 687.938 219.531C683.125 219.531 679.203 221.203 676.172 224.547C673.172 227.891 671.672 232.234 671.672 237.578C671.672 243.016 673.172 247.344 676.172 250.562C679.203 253.75 683.25 255.344 688.312 255.344C692 255.344 695.875 254.516 699.938 252.859V257.641C695.625 259.109 691.625 259.844 687.938 259.844C681.625 259.844 676.516 257.844 672.609 253.844C668.734 249.844 666.797 244.594 666.797 238.094C666.797 231.312 668.75 225.781 672.656 221.5C676.594 217.188 681.609 215.031 687.703 215.031C691.047 215.031 694.859 215.734 699.141 217.141ZM713.344 193.516V223.375H713.531C717.125 217.812 721.859 215.031 727.734 215.031C732.609 215.031 736.5 216.594 739.406 219.719C742.312 222.844 743.766 227.141 743.766 232.609V259H739.172V234.438C739.172 224.5 735.266 219.531 727.453 219.531C721.859 219.531 717.156 222.609 713.344 228.766V259H708.75V193.516H713.344Z" fill="#40AB2F"/>
</svg>
